<svg width="40" height="40" viewBox="0 0 40 40" fill="none" xmlns="http://www.w3.org/2000/svg">
<circle cx="20" cy="20" r="20" fill="#C0E6FA"/>
<path d="M31.2545 29.7797C31.2545 32.7706 26.438 35.1951 20.4964 35.1951C14.5549 35.1951 9.7383 32.7706 9.7383 29.7797C9.7383 26.7889 14.5549 24.3643 20.4964 24.3643C26.438 24.3643 31.2545 26.7889 31.2545 29.7797Z" fill="white"/>
<path d="M25.8755 15.3386C25.8755 18.3295 23.4672 20.754 20.4964 20.754C17.5257 20.754 15.1174 18.3295 15.1174 15.3386C15.1174 12.3478 17.5257 9.92324 20.4964 9.92324C23.4672 9.92324 25.8755 12.3478 25.8755 15.3386Z" fill="white"/>
<path d="M20.6971 21.5176C20.6638 21.5176 20.6137 21.5176 20.5804 21.5176C20.5303 21.5176 20.4636 21.5176 20.4136 21.5176C16.6273 21.4 13.7919 18.4278 13.7919 14.7672C13.7919 11.0393 16.8108 8 20.5136 8C24.2164 8 27.2354 11.0393 27.2354 14.7672C27.2187 18.4446 24.3666 21.4 20.7472 21.5176C20.7138 21.5176 20.7138 21.5176 20.6971 21.5176ZM20.497 10.502C18.1619 10.502 16.2771 12.4163 16.2771 14.7504C16.2771 17.0509 18.0618 18.9148 20.3302 18.9988C20.3802 18.982 20.547 18.982 20.7138 18.9988C22.9488 18.8812 24.7001 17.0341 24.7168 14.7504C24.7168 12.4163 22.8321 10.502 20.497 10.502Z" fill="white"/>
<path d="M20.4978 37C16.011 37 11.7245 35.3208 8.40531 32.2647C8.10508 31.996 7.97165 31.593 8.005 31.2068C8.22183 29.2085 9.4561 27.3446 11.5076 25.9677C16.4781 22.6429 24.5341 22.6429 29.4879 25.9677C31.5394 27.3614 32.7737 29.2085 32.9905 31.2068C33.0406 31.6098 32.8904 31.996 32.5902 32.2647C29.271 35.3208 24.9845 37 20.4978 37ZM10.6236 30.8709C13.3924 33.205 16.8784 34.4812 20.4978 34.4812C24.1172 34.4812 27.6031 33.205 30.3719 30.8709C30.0716 29.8466 29.271 28.8559 28.0868 28.0499C23.9837 25.296 17.0285 25.296 12.892 28.0499C11.7078 28.8559 10.9239 29.8466 10.6236 30.8709Z" fill="white"/>
</svg>
