<svg width="20" height="20" viewBox="0 0 20 20" fill="none" xmlns="http://www.w3.org/2000/svg">
<path d="M11.6673 15.2083H8.33398C7.99232 15.2083 7.70898 14.925 7.70898 14.5833C7.70898 14.2416 7.99232 13.9583 8.33398 13.9583H11.6673C12.009 13.9583 12.2923 14.2416 12.2923 14.5833C12.2923 14.925 12.009 15.2083 11.6673 15.2083Z" fill="#3C4E69"/>
<path d="M1.66602 15.2083C1.32435 15.2083 1.04102 14.925 1.04102 14.5833V6.24998C1.04102 2.57498 2.15768 1.45831 5.83268 1.45831C6.17435 1.45831 6.45768 1.74165 6.45768 2.08331C6.45768 2.42498 6.17435 2.70831 5.83268 2.70831C2.85768 2.70831 2.29102 3.26665 2.29102 6.24998V14.5833C2.29102 14.925 2.00768 15.2083 1.66602 15.2083Z" fill="#3C4E69"/>
<path d="M18.3327 15.2083C17.991 15.2083 17.7077 14.925 17.7077 14.5833V6.24998C17.7077 3.26665 17.141 2.70831 14.166 2.70831C13.8243 2.70831 13.541 2.42498 13.541 2.08331C13.541 1.74165 13.8243 1.45831 14.166 1.45831C17.841 1.45831 18.9577 2.57498 18.9577 6.24998V14.5833C18.9577 14.925 18.6744 15.2083 18.3327 15.2083Z" fill="#3C4E69"/>
<path d="M5.99935 18.9584H3.99935C1.98268 18.9584 1.04102 18.0168 1.04102 16.0001V13.2584C1.04102 11.2418 1.98268 10.3001 3.99935 10.3001H5.99935C8.01602 10.3001 8.95768 11.2418 8.95768 13.2584V16.0001C8.95768 18.0168 8.01602 18.9584 5.99935 18.9584ZM3.99935 11.5501C2.67435 11.5501 2.29102 11.9334 2.29102 13.2584V16.0001C2.29102 17.3251 2.67435 17.7084 3.99935 17.7084H5.99935C7.32435 17.7084 7.70768 17.3251 7.70768 16.0001V13.2584C7.70768 11.9334 7.32435 11.5501 5.99935 11.5501H3.99935Z" fill="#3C4E69"/>
<path d="M15.9994 18.9584H13.9993C11.9827 18.9584 11.041 18.0168 11.041 16.0001V13.2584C11.041 11.2418 11.9827 10.3001 13.9993 10.3001H15.9994C18.016 10.3001 18.9577 11.2418 18.9577 13.2584V16.0001C18.9577 18.0168 18.016 18.9584 15.9994 18.9584ZM13.9993 11.5501C12.6743 11.5501 12.291 11.9334 12.291 13.2584V16.0001C12.291 17.3251 12.6743 17.7084 13.9993 17.7084H15.9994C17.3244 17.7084 17.7077 17.3251 17.7077 16.0001V13.2584C17.7077 11.9334 17.3244 11.5501 15.9994 11.5501H13.9993Z" fill="#3C4E69"/>
</svg>
