<svg width="20" height="20" viewBox="0 0 20 20" fill="none" xmlns="http://www.w3.org/2000/svg">
<path d="M9.49935 18.9584H6.33268C2.67435 18.9584 1.04102 17.325 1.04102 13.6667V10.5C1.04102 6.84171 2.67435 5.20837 6.33268 5.20837H8.83268C9.17435 5.20837 9.45768 5.49171 9.45768 5.83337C9.45768 6.17504 9.17435 6.45837 8.83268 6.45837H6.33268C3.34935 6.45837 2.29102 7.51671 2.29102 10.5V13.6667C2.29102 16.65 3.34935 17.7084 6.33268 17.7084H9.49935C12.4827 17.7084 13.541 16.65 13.541 13.6667V11.1667C13.541 10.825 13.8243 10.5417 14.166 10.5417C14.5077 10.5417 14.791 10.825 14.791 11.1667V13.6667C14.791 17.325 13.1577 18.9584 9.49935 18.9584Z" fill="#FF8038"/>
<path d="M14.1654 11.7916H11.4987C9.15702 11.7916 8.20703 10.8416 8.20703 8.49992V5.83324C8.20703 5.58324 8.35702 5.34991 8.59036 5.25824C8.82369 5.15824 9.09036 5.21658 9.27369 5.39158L14.607 10.7249C14.782 10.8999 14.8404 11.1749 14.7404 11.4083C14.6487 11.6416 14.4154 11.7916 14.1654 11.7916ZM9.45702 7.34158V8.49992C9.45702 10.1583 9.84035 10.5416 11.4987 10.5416H12.657L9.45702 7.34158Z" fill="#FF8038"/>
<path d="M12.9993 2.29163H9.66602C9.32435 2.29163 9.04102 2.00829 9.04102 1.66663C9.04102 1.32496 9.32435 1.04163 9.66602 1.04163H12.9993C13.341 1.04163 13.6243 1.32496 13.6243 1.66663C13.6243 2.00829 13.341 2.29163 12.9993 2.29163Z" fill="#FF8038"/>
<path d="M5.83398 4.79163C5.49232 4.79163 5.20898 4.50829 5.20898 4.16663C5.20898 2.44163 6.60898 1.04163 8.33398 1.04163H10.5173C10.859 1.04163 11.1423 1.32496 11.1423 1.66663C11.1423 2.00829 10.859 2.29163 10.5173 2.29163H8.33398C7.30065 2.29163 6.45898 3.13329 6.45898 4.16663C6.45898 4.50829 6.17565 4.79163 5.83398 4.79163Z" fill="#FF8038"/>
<path d="M15.9922 14.7916C15.6505 14.7916 15.3672 14.5083 15.3672 14.1666C15.3672 13.825 15.6505 13.5416 15.9922 13.5416C16.9422 13.5416 17.7089 12.7666 17.7089 11.825V6.66663C17.7089 6.32496 17.9922 6.04163 18.3339 6.04163C18.6755 6.04163 18.9589 6.32496 18.9589 6.66663V11.825C18.9589 13.4583 17.6255 14.7916 15.9922 14.7916Z" fill="#FF8038"/>
<path d="M18.334 7.29162H15.834C13.6173 7.29162 12.709 6.38328 12.709 4.16662V1.66662C12.709 1.41662 12.859 1.18328 13.0923 1.09162C13.3257 0.991617 13.5923 1.04995 13.7757 1.22495L18.7757 6.22495C18.9507 6.39995 19.009 6.67495 18.909 6.90828C18.8173 7.14162 18.584 7.29162 18.334 7.29162ZM13.959 3.17495V4.16662C13.959 5.69162 14.309 6.04162 15.834 6.04162H16.8257L13.959 3.17495Z" fill="#FF8038"/>
</svg>
