<svg width="20" height="20" viewBox="0 0 20 20" fill="none" xmlns="http://www.w3.org/2000/svg">
<path d="M9.49935 18.9583H6.33268C2.67435 18.9583 1.04102 17.325 1.04102 13.6666V10.5C1.04102 6.84165 2.67435 5.20831 6.33268 5.20831H8.83268C9.17435 5.20831 9.45768 5.49165 9.45768 5.83331C9.45768 6.17498 9.17435 6.45831 8.83268 6.45831H6.33268C3.34935 6.45831 2.29102 7.51665 2.29102 10.5V13.6666C2.29102 16.65 3.34935 17.7083 6.33268 17.7083H9.49935C12.4827 17.7083 13.541 16.65 13.541 13.6666V11.1666C13.541 10.825 13.8243 10.5416 14.166 10.5416C14.5077 10.5416 14.791 10.825 14.791 11.1666V13.6666C14.791 17.325 13.1577 18.9583 9.49935 18.9583Z" fill="#EA5455"/>
<path d="M14.1654 11.7916H11.4987C9.15702 11.7916 8.20703 10.8416 8.20703 8.49998V5.8333C8.20703 5.5833 8.35702 5.34997 8.59036 5.2583C8.82369 5.1583 9.09036 5.21664 9.27369 5.39164L14.607 10.725C14.782 10.9 14.8404 11.175 14.7404 11.4083C14.6487 11.6416 14.4154 11.7916 14.1654 11.7916ZM9.45702 7.34164V8.49998C9.45702 10.1583 9.84035 10.5416 11.4987 10.5416H12.657L9.45702 7.34164Z" fill="#EA5455"/>
<path d="M12.9993 2.29169H9.66602C9.32435 2.29169 9.04102 2.00835 9.04102 1.66669C9.04102 1.32502 9.32435 1.04169 9.66602 1.04169H12.9993C13.341 1.04169 13.6243 1.32502 13.6243 1.66669C13.6243 2.00835 13.341 2.29169 12.9993 2.29169Z" fill="#EA5455"/>
<path d="M5.83398 4.79169C5.49232 4.79169 5.20898 4.50835 5.20898 4.16669C5.20898 2.44169 6.60898 1.04169 8.33398 1.04169H10.5173C10.859 1.04169 11.1423 1.32502 11.1423 1.66669C11.1423 2.00835 10.859 2.29169 10.5173 2.29169H8.33398C7.30065 2.29169 6.45898 3.13335 6.45898 4.16669C6.45898 4.50835 6.17565 4.79169 5.83398 4.79169Z" fill="#EA5455"/>
<path d="M15.9922 14.7917C15.6505 14.7917 15.3672 14.5084 15.3672 14.1667C15.3672 13.825 15.6505 13.5417 15.9922 13.5417C16.9422 13.5417 17.7089 12.7667 17.7089 11.825V6.66669C17.7089 6.32502 17.9922 6.04169 18.3339 6.04169C18.6755 6.04169 18.9589 6.32502 18.9589 6.66669V11.825C18.9589 13.4584 17.6255 14.7917 15.9922 14.7917Z" fill="#EA5455"/>
<path d="M18.334 7.29162H15.834C13.6173 7.29162 12.709 6.38328 12.709 4.16662V1.66662C12.709 1.41662 12.859 1.18328 13.0923 1.09162C13.3257 0.991617 13.5923 1.04995 13.7757 1.22495L18.7757 6.22495C18.9507 6.39995 19.009 6.67495 18.909 6.90828C18.8173 7.14162 18.584 7.29162 18.334 7.29162ZM13.959 3.17495V4.16662C13.959 5.69162 14.309 6.04162 15.834 6.04162H16.8257L13.959 3.17495Z" fill="#EA5455"/>
</svg>
