<svg width="675" height="169" viewBox="0 0 675 169" fill="none" xmlns="http://www.w3.org/2000/svg">
<g clip-path="url(#clip0_7_8042)">
<g filter="url(#filter0_d_7_8042)">
<path d="M445.014 24.7464C454.567 23.8042 459.913 36.5394 452.571 43H397.529C390.449 30.9511 399.184 14.9157 411.956 18.0275C422.196 1.33593 441.163 10.2789 445.014 24.7464H445.014Z" fill="white"/>
</g>
<path d="M355.83 144.363H339.997C337.663 144.363 332.58 143.664 329.872 140.989L317.247 131.363L321.08 126.467L333.997 136.341C335.038 137.328 337.663 138.151 339.997 138.151H355.83C359.58 138.151 363.622 135.189 364.455 131.856L374.538 101.619C375.205 99.8084 375.08 98.1628 374.205 96.9698C373.288 95.6944 371.622 94.9539 369.58 94.9539H352.913C350.747 94.9539 348.747 94.0488 347.372 92.4855C345.955 90.881 345.33 88.7417 345.663 86.5202L347.747 73.3143C348.247 71.0104 346.663 68.4186 344.413 67.6781C342.372 66.9376 339.747 68.0072 338.83 69.3237L321.747 94.4191L316.58 91.0044L333.663 65.9091C336.288 62.0419 342.038 60.1907 346.538 61.8774C351.747 63.5641 355.08 69.2414 353.913 74.5073L351.872 87.4664C351.83 87.7544 351.83 88.1658 352.122 88.4949C352.33 88.7006 352.622 88.824 352.955 88.824H369.622C373.705 88.824 377.247 90.5108 379.33 93.4317C381.372 96.2704 381.788 100.014 380.455 103.634L370.497 133.584C368.955 139.55 362.538 144.363 355.83 144.363Z" fill="#32A5DF"/>
<path d="M310.42 139.837H306.253C298.545 139.837 294.795 136.258 294.795 128.935V88.618C294.795 81.2951 298.545 77.7159 306.253 77.7159H310.42C318.128 77.7159 321.878 81.2951 321.878 88.618V128.935C321.878 136.258 318.128 139.837 310.42 139.837ZM306.253 83.8869C301.712 83.8869 301.045 84.9565 301.045 88.618V128.935C301.045 132.597 301.712 133.666 306.253 133.666H310.42C314.962 133.666 315.628 132.597 315.628 128.935V88.618C315.628 84.9565 314.962 83.8869 310.42 83.8869H306.253Z" fill="#32A5DF"/>
<g filter="url(#filter1_d_7_8042)">
<path d="M369.261 118.516C371.135 116.9 373.525 116.008 376 116C381.044 116 385.231 119.75 385.686 124.586C388.671 125.007 391 127.507 391 130.574C391 133.942 388.191 136.625 384.788 136.625H368.089C364.203 136.625 361 133.561 361 129.721C361 126.416 363.374 123.678 366.516 122.984C366.784 121.366 367.825 119.754 369.261 118.516Z" fill="white"/>
</g>
<g filter="url(#filter2_d_7_8042)">
<path d="M543.261 34.5163C545.135 32.9003 547.525 32.0078 550 32C555.044 32 559.231 35.75 559.686 40.5856C562.671 41.0075 565 43.5069 565 46.5744C565 49.9419 562.191 52.625 558.788 52.625H542.089C538.203 52.625 535 49.5612 535 45.7212C535 42.4156 537.374 39.6781 540.516 38.9844C540.784 37.3663 541.825 35.7538 543.261 34.5163Z" fill="white"/>
</g>
<g filter="url(#filter3_d_7_8042)">
<path d="M185 4.669C185 3.72087 185.337 2.80354 185.95 2.08065C186.564 1.35776 187.414 0.876339 188.349 0.722268C188.872 -0.209031 189.663 -0.961896 190.618 -1.43881C191.574 -1.91572 192.651 -2.0947 193.709 -1.95256C194.768 -1.81043 195.759 -1.35373 196.555 -0.641624C197.351 0.0704808 197.915 1.00518 198.173 2.0414C199.004 2.169 199.755 2.60555 200.278 3.26366C200.8 3.92176 201.055 4.75287 200.99 5.59059C200.926 6.42832 200.548 7.21086 199.931 7.78156C199.314 8.35226 198.505 8.669 197.665 8.66839H188.999C187.939 8.66839 186.921 8.24703 186.171 7.497C185.421 6.74697 185 5.72971 185 4.669Z" fill="white"/>
</g>
<g filter="url(#filter4_d_7_8042)">
<path d="M215.019 112.27C218.199 109.528 222.255 108.013 226.455 108C235.014 108 242.119 114.364 242.892 122.57C247.957 123.285 251.909 127.527 251.909 132.732C251.909 138.447 247.143 143 241.368 143H213.03C206.435 143 201 137.801 201 131.285C201 125.675 205.028 121.03 210.361 119.852C210.816 117.106 212.582 114.37 215.019 112.27Z" fill="white"/>
</g>
<g filter="url(#filter5_d_7_8042)">
<path d="M283 42.8C283 46.7754 279.677 50 275.58 50H257.606C254.509 50 252 47.5631 252 44.5585C252 41.5569 254.509 39.12 257.606 39.12C257.833 39.12 258.053 39.1385 258.271 39.1615C258.213 38.7766 258.183 38.3878 258.183 37.9985C258.183 33.5815 261.873 30 266.429 30C270.16 30 273.309 32.4031 274.328 35.7031C274.742 35.6356 275.162 35.6016 275.582 35.6015C279.677 35.6015 283 38.8215 283 42.8Z" fill="white"/>
</g>
<g filter="url(#filter6_d_7_8042)">
<path d="M52.7 44.96C52.7 47.7428 50.3738 50 47.5061 50H34.9244C32.7566 50 31 48.2942 31 46.1909C31 44.0898 32.7566 42.384 34.9244 42.384C35.0829 42.384 35.2369 42.3969 35.3899 42.4131C35.3489 42.1436 35.3282 41.8715 35.3281 41.5989C35.3281 38.5071 37.9115 36 41.1003 36C43.7119 36 45.9166 37.6822 46.6294 39.9922C46.9196 39.9449 47.2131 39.9211 47.5072 39.9211C50.3738 39.9211 52.7 42.1751 52.7 44.96Z" fill="white"/>
</g>
<g filter="url(#filter7_d_7_8042)">
<path d="M81.7 127.96C81.7 130.743 79.3738 133 76.5061 133H63.9244C61.7566 133 60 131.294 60 129.191C60 127.09 61.7566 125.384 63.9244 125.384C64.0829 125.384 64.2369 125.397 64.3899 125.413C64.3489 125.144 64.3282 124.871 64.3281 124.599C64.3281 121.507 66.9115 119 70.1003 119C72.7119 119 74.9166 120.682 75.6294 122.992C75.9196 122.945 76.2131 122.921 76.5072 122.921C79.3738 122.921 81.7 125.175 81.7 127.96Z" fill="white"/>
</g>
<g filter="url(#filter8_d_7_8042)">
<path d="M632.7 109.96C632.7 112.743 630.374 115 627.506 115H614.924C612.757 115 611 113.294 611 111.191C611 109.09 612.757 107.384 614.924 107.384C615.083 107.384 615.237 107.397 615.39 107.413C615.349 107.144 615.328 106.871 615.328 106.599C615.328 103.507 617.911 101 621.1 101C623.712 101 625.917 102.682 626.629 104.992C626.92 104.945 627.213 104.921 627.507 104.921C630.374 104.921 632.7 107.175 632.7 109.96Z" fill="white"/>
</g>
<g filter="url(#filter9_d_7_8042)">
<path d="M524.44 110.416C524.863 109.293 525.1 108.066 525.1 106.786C525.1 101.225 520.666 96.7143 515.2 96.7143C513.168 96.7143 511.271 97.3437 509.703 98.4138C506.847 93.3781 501.515 90 495.4 90C486.284 90 478.9 97.5116 478.9 106.786C478.9 107.069 478.91 107.352 478.921 107.635C473.146 109.702 469 115.304 469 121.893C469 130.233 475.652 137 483.85 137H521.8C529.091 137 535 130.989 535 123.571C535 117.077 530.462 111.654 524.44 110.416Z" fill="white"/>
</g>
<g filter="url(#filter10_d_7_8042)">
<path d="M145.04 67.375C145.399 66.4196 145.6 65.375 145.6 64.2857C145.6 59.5536 141.837 55.7143 137.2 55.7143C135.476 55.7143 133.866 56.25 132.536 57.1607C130.112 52.875 125.589 50 120.4 50C112.665 50 106.4 56.3929 106.4 64.2857C106.4 64.5268 106.409 64.7679 106.417 65.0089C101.517 66.7679 98 71.5357 98 77.1429C98 84.2411 103.644 90 110.6 90H142.8C148.986 90 154 84.8839 154 78.5714C154 73.0446 150.15 68.4286 145.04 67.375Z" fill="white"/>
</g>
</g>
<defs>
<filter id="filter0_d_7_8042" x="365" y="-16" width="121" height="94" filterUnits="userSpaceOnUse" color-interpolation-filters="sRGB">
<feFlood flood-opacity="0" result="BackgroundImageFix"/>
<feColorMatrix in="SourceAlpha" type="matrix" values="0 0 0 0 0 0 0 0 0 0 0 0 0 0 0 0 0 0 127 0" result="hardAlpha"/>
<feOffset dy="5"/>
<feGaussianBlur stdDeviation="15"/>
<feComposite in2="hardAlpha" operator="out"/>
<feColorMatrix type="matrix" values="0 0 0 0 0.458824 0 0 0 0 0.752941 0 0 0 0 0.917647 0 0 0 0.2 0"/>
<feBlend mode="normal" in2="BackgroundImageFix" result="effect1_dropShadow_7_8042"/>
<feBlend mode="normal" in="SourceGraphic" in2="effect1_dropShadow_7_8042" result="shape"/>
</filter>
<filter id="filter1_d_7_8042" x="331" y="91" width="90" height="80.625" filterUnits="userSpaceOnUse" color-interpolation-filters="sRGB">
<feFlood flood-opacity="0" result="BackgroundImageFix"/>
<feColorMatrix in="SourceAlpha" type="matrix" values="0 0 0 0 0 0 0 0 0 0 0 0 0 0 0 0 0 0 127 0" result="hardAlpha"/>
<feOffset dy="5"/>
<feGaussianBlur stdDeviation="15"/>
<feComposite in2="hardAlpha" operator="out"/>
<feColorMatrix type="matrix" values="0 0 0 0 0.458824 0 0 0 0 0.752941 0 0 0 0 0.917647 0 0 0 0.2 0"/>
<feBlend mode="normal" in2="BackgroundImageFix" result="effect1_dropShadow_7_8042"/>
<feBlend mode="normal" in="SourceGraphic" in2="effect1_dropShadow_7_8042" result="shape"/>
</filter>
<filter id="filter2_d_7_8042" x="505" y="7" width="90" height="80.625" filterUnits="userSpaceOnUse" color-interpolation-filters="sRGB">
<feFlood flood-opacity="0" result="BackgroundImageFix"/>
<feColorMatrix in="SourceAlpha" type="matrix" values="0 0 0 0 0 0 0 0 0 0 0 0 0 0 0 0 0 0 127 0" result="hardAlpha"/>
<feOffset dy="5"/>
<feGaussianBlur stdDeviation="15"/>
<feComposite in2="hardAlpha" operator="out"/>
<feColorMatrix type="matrix" values="0 0 0 0 0.458824 0 0 0 0 0.752941 0 0 0 0 0.917647 0 0 0 0.2 0"/>
<feBlend mode="normal" in2="BackgroundImageFix" result="effect1_dropShadow_7_8042"/>
<feBlend mode="normal" in="SourceGraphic" in2="effect1_dropShadow_7_8042" result="shape"/>
</filter>
<filter id="filter3_d_7_8042" x="155" y="-27" width="76" height="70.6684" filterUnits="userSpaceOnUse" color-interpolation-filters="sRGB">
<feFlood flood-opacity="0" result="BackgroundImageFix"/>
<feColorMatrix in="SourceAlpha" type="matrix" values="0 0 0 0 0 0 0 0 0 0 0 0 0 0 0 0 0 0 127 0" result="hardAlpha"/>
<feOffset dy="5"/>
<feGaussianBlur stdDeviation="15"/>
<feComposite in2="hardAlpha" operator="out"/>
<feColorMatrix type="matrix" values="0 0 0 0 0.458824 0 0 0 0 0.752941 0 0 0 0 0.917647 0 0 0 0.2 0"/>
<feBlend mode="normal" in2="BackgroundImageFix" result="effect1_dropShadow_7_8042"/>
<feBlend mode="normal" in="SourceGraphic" in2="effect1_dropShadow_7_8042" result="shape"/>
</filter>
<filter id="filter4_d_7_8042" x="171" y="83" width="110.908" height="95" filterUnits="userSpaceOnUse" color-interpolation-filters="sRGB">
<feFlood flood-opacity="0" result="BackgroundImageFix"/>
<feColorMatrix in="SourceAlpha" type="matrix" values="0 0 0 0 0 0 0 0 0 0 0 0 0 0 0 0 0 0 127 0" result="hardAlpha"/>
<feOffset dy="5"/>
<feGaussianBlur stdDeviation="15"/>
<feComposite in2="hardAlpha" operator="out"/>
<feColorMatrix type="matrix" values="0 0 0 0 0.458824 0 0 0 0 0.752941 0 0 0 0 0.917647 0 0 0 0.2 0"/>
<feBlend mode="normal" in2="BackgroundImageFix" result="effect1_dropShadow_7_8042"/>
<feBlend mode="normal" in="SourceGraphic" in2="effect1_dropShadow_7_8042" result="shape"/>
</filter>
<filter id="filter5_d_7_8042" x="222" y="5" width="91" height="80" filterUnits="userSpaceOnUse" color-interpolation-filters="sRGB">
<feFlood flood-opacity="0" result="BackgroundImageFix"/>
<feColorMatrix in="SourceAlpha" type="matrix" values="0 0 0 0 0 0 0 0 0 0 0 0 0 0 0 0 0 0 127 0" result="hardAlpha"/>
<feOffset dy="5"/>
<feGaussianBlur stdDeviation="15"/>
<feComposite in2="hardAlpha" operator="out"/>
<feColorMatrix type="matrix" values="0 0 0 0 0.458824 0 0 0 0 0.752941 0 0 0 0 0.917647 0 0 0 0.2 0"/>
<feBlend mode="normal" in2="BackgroundImageFix" result="effect1_dropShadow_7_8042"/>
<feBlend mode="normal" in="SourceGraphic" in2="effect1_dropShadow_7_8042" result="shape"/>
</filter>
<filter id="filter6_d_7_8042" x="1" y="11" width="81.6992" height="74" filterUnits="userSpaceOnUse" color-interpolation-filters="sRGB">
<feFlood flood-opacity="0" result="BackgroundImageFix"/>
<feColorMatrix in="SourceAlpha" type="matrix" values="0 0 0 0 0 0 0 0 0 0 0 0 0 0 0 0 0 0 127 0" result="hardAlpha"/>
<feOffset dy="5"/>
<feGaussianBlur stdDeviation="15"/>
<feComposite in2="hardAlpha" operator="out"/>
<feColorMatrix type="matrix" values="0 0 0 0 0.458824 0 0 0 0 0.752941 0 0 0 0 0.917647 0 0 0 0.2 0"/>
<feBlend mode="normal" in2="BackgroundImageFix" result="effect1_dropShadow_7_8042"/>
<feBlend mode="normal" in="SourceGraphic" in2="effect1_dropShadow_7_8042" result="shape"/>
</filter>
<filter id="filter7_d_7_8042" x="30" y="94" width="81.6992" height="74" filterUnits="userSpaceOnUse" color-interpolation-filters="sRGB">
<feFlood flood-opacity="0" result="BackgroundImageFix"/>
<feColorMatrix in="SourceAlpha" type="matrix" values="0 0 0 0 0 0 0 0 0 0 0 0 0 0 0 0 0 0 127 0" result="hardAlpha"/>
<feOffset dy="5"/>
<feGaussianBlur stdDeviation="15"/>
<feComposite in2="hardAlpha" operator="out"/>
<feColorMatrix type="matrix" values="0 0 0 0 0.458824 0 0 0 0 0.752941 0 0 0 0 0.917647 0 0 0 0.2 0"/>
<feBlend mode="normal" in2="BackgroundImageFix" result="effect1_dropShadow_7_8042"/>
<feBlend mode="normal" in="SourceGraphic" in2="effect1_dropShadow_7_8042" result="shape"/>
</filter>
<filter id="filter8_d_7_8042" x="581" y="76" width="81.6992" height="74" filterUnits="userSpaceOnUse" color-interpolation-filters="sRGB">
<feFlood flood-opacity="0" result="BackgroundImageFix"/>
<feColorMatrix in="SourceAlpha" type="matrix" values="0 0 0 0 0 0 0 0 0 0 0 0 0 0 0 0 0 0 127 0" result="hardAlpha"/>
<feOffset dy="5"/>
<feGaussianBlur stdDeviation="15"/>
<feComposite in2="hardAlpha" operator="out"/>
<feColorMatrix type="matrix" values="0 0 0 0 0.458824 0 0 0 0 0.752941 0 0 0 0 0.917647 0 0 0 0.2 0"/>
<feBlend mode="normal" in2="BackgroundImageFix" result="effect1_dropShadow_7_8042"/>
<feBlend mode="normal" in="SourceGraphic" in2="effect1_dropShadow_7_8042" result="shape"/>
</filter>
<filter id="filter9_d_7_8042" x="439" y="65" width="126" height="107" filterUnits="userSpaceOnUse" color-interpolation-filters="sRGB">
<feFlood flood-opacity="0" result="BackgroundImageFix"/>
<feColorMatrix in="SourceAlpha" type="matrix" values="0 0 0 0 0 0 0 0 0 0 0 0 0 0 0 0 0 0 127 0" result="hardAlpha"/>
<feOffset dy="5"/>
<feGaussianBlur stdDeviation="15"/>
<feComposite in2="hardAlpha" operator="out"/>
<feColorMatrix type="matrix" values="0 0 0 0 0.458824 0 0 0 0 0.752941 0 0 0 0 0.917647 0 0 0 0.2 0"/>
<feBlend mode="normal" in2="BackgroundImageFix" result="effect1_dropShadow_7_8042"/>
<feBlend mode="normal" in="SourceGraphic" in2="effect1_dropShadow_7_8042" result="shape"/>
</filter>
<filter id="filter10_d_7_8042" x="68" y="25" width="116" height="100" filterUnits="userSpaceOnUse" color-interpolation-filters="sRGB">
<feFlood flood-opacity="0" result="BackgroundImageFix"/>
<feColorMatrix in="SourceAlpha" type="matrix" values="0 0 0 0 0 0 0 0 0 0 0 0 0 0 0 0 0 0 127 0" result="hardAlpha"/>
<feOffset dy="5"/>
<feGaussianBlur stdDeviation="15"/>
<feComposite in2="hardAlpha" operator="out"/>
<feColorMatrix type="matrix" values="0 0 0 0 0.458824 0 0 0 0 0.752941 0 0 0 0 0.917647 0 0 0 0.2 0"/>
<feBlend mode="normal" in2="BackgroundImageFix" result="effect1_dropShadow_7_8042"/>
<feBlend mode="normal" in="SourceGraphic" in2="effect1_dropShadow_7_8042" result="shape"/>
</filter>
<clipPath id="clip0_7_8042">
<rect width="675" height="169" fill="white"/>
</clipPath>
</defs>
</svg>
