<svg width="20" height="20" viewBox="0 0 20 20" fill="none" xmlns="http://www.w3.org/2000/svg">
<rect width="20" height="20" rx="3" fill="#3C4E69"/>
<path d="M13.6381 14.9271C13.2925 14.9271 12.9469 14.7997 12.6741 14.5269L5.47083 7.32376C4.94332 6.79625 4.94332 5.92314 5.47083 5.39563C5.99833 4.86812 6.8715 4.86812 7.39901 5.39563L14.6022 12.5988C15.1297 13.1263 15.1297 13.9994 14.6022 14.5269C14.3294 14.7815 13.9837 14.9271 13.6381 14.9271Z" fill="white"/>
<path d="M6.35969 15C6.01409 15 5.66848 14.8727 5.39563 14.5999C4.86812 14.0724 4.86812 13.1992 5.39563 12.6717L12.5989 5.46851C13.1264 4.941 13.9995 4.941 14.527 5.46851C15.0545 5.99601 15.0545 6.86913 14.527 7.39663L7.32385 14.5999C7.051 14.8727 6.70539 15 6.35969 15Z" fill="white"/>
</svg>
