<svg width="22" height="22" viewBox="0 0 22 22" fill="none" xmlns="http://www.w3.org/2000/svg">
<path d="M20.166 6.64581H14.666C14.2902 6.64581 13.9785 6.33415 13.9785 5.95831C13.9785 5.58248 14.2902 5.27081 14.666 5.27081H20.166C20.5418 5.27081 20.8535 5.58248 20.8535 5.95831C20.8535 6.33415 20.5418 6.64581 20.166 6.64581Z" fill="#A4ABB6"/>
<path d="M5.50065 6.64581H1.83398C1.45815 6.64581 1.14648 6.33415 1.14648 5.95831C1.14648 5.58248 1.45815 5.27081 1.83398 5.27081H5.50065C5.87648 5.27081 6.18815 5.58248 6.18815 5.95831C6.18815 6.33415 5.87648 6.64581 5.50065 6.64581Z" fill="#A4ABB6"/>
<path d="M9.16732 9.85417C7.02232 9.85417 5.27148 8.10333 5.27148 5.95833C5.27148 3.81333 7.02232 2.0625 9.16732 2.0625C11.3123 2.0625 13.0632 3.81333 13.0632 5.95833C13.0632 8.10333 11.3123 9.85417 9.16732 9.85417ZM9.16732 3.4375C7.77398 3.4375 6.64648 4.565 6.64648 5.95833C6.64648 7.35167 7.77398 8.47917 9.16732 8.47917C10.5607 8.47917 11.6882 7.35167 11.6882 5.95833C11.6882 4.565 10.5607 3.4375 9.16732 3.4375Z" fill="#A4ABB6"/>
<path d="M20.1667 16.7292H16.5C16.1242 16.7292 15.8125 16.4175 15.8125 16.0417C15.8125 15.6659 16.1242 15.3542 16.5 15.3542H20.1667C20.5425 15.3542 20.8542 15.6659 20.8542 16.0417C20.8542 16.4175 20.5425 16.7292 20.1667 16.7292Z" fill="#A4ABB6"/>
<path d="M7.33399 16.7292H1.83398C1.45815 16.7292 1.14648 16.4175 1.14648 16.0417C1.14648 15.6659 1.45815 15.3542 1.83398 15.3542H7.33399C7.70982 15.3542 8.02149 15.6659 8.02149 16.0417C8.02149 16.4175 7.70982 16.7292 7.33399 16.7292Z" fill="#A4ABB6"/>
<path d="M12.8333 19.9375C10.6883 19.9375 8.9375 18.1866 8.9375 16.0416C8.9375 13.8966 10.6883 12.1458 12.8333 12.1458C14.9783 12.1458 16.7292 13.8966 16.7292 16.0416C16.7292 18.1866 14.9783 19.9375 12.8333 19.9375ZM12.8333 13.5208C11.44 13.5208 10.3125 14.6483 10.3125 16.0416C10.3125 17.435 11.44 18.5625 12.8333 18.5625C14.2267 18.5625 15.3542 17.435 15.3542 16.0416C15.3542 14.6483 14.2267 13.5208 12.8333 13.5208Z" fill="#A4ABB6"/>
</svg>
