<svg width="20" height="20" viewBox="0 0 20 20" fill="none" xmlns="http://www.w3.org/2000/svg">
<path d="M9.58268 18.125C4.87435 18.125 1.04102 14.2917 1.04102 9.58335C1.04102 4.87502 4.87435 1.04169 9.58268 1.04169C14.291 1.04169 18.1243 4.87502 18.1243 9.58335C18.1243 14.2917 14.291 18.125 9.58268 18.125ZM9.58268 2.29169C5.55768 2.29169 2.29102 5.56669 2.29102 9.58335C2.29102 13.6 5.55768 16.875 9.58268 16.875C13.6077 16.875 16.8743 13.6 16.8743 9.58335C16.8743 5.56669 13.6077 2.29169 9.58268 2.29169Z" fill="#A4ABB6"/>
<path d="M18.3345 18.9583C18.1762 18.9583 18.0178 18.9 17.8928 18.775L16.2262 17.1083C15.9845 16.8667 15.9845 16.4667 16.2262 16.225C16.4678 15.9833 16.8678 15.9833 17.1095 16.225L18.7762 17.8917C19.0178 18.1333 19.0178 18.5333 18.7762 18.775C18.6512 18.9 18.4928 18.9583 18.3345 18.9583Z" fill="#A4ABB6"/>
</svg>
