<svg width="20" height="20" viewBox="0 0 20 20" fill="none" xmlns="http://www.w3.org/2000/svg">
<path d="M12.4749 18.9595H7.47494C2.94994 18.9595 1.0166 17.0261 1.0166 12.5011V7.50112C1.0166 2.97612 2.94994 1.04279 7.47494 1.04279H12.4749C16.9999 1.04279 18.9332 2.97612 18.9332 7.50112V12.5011C18.9332 17.0261 17.0082 18.9595 12.4749 18.9595ZM7.47494 2.29279C3.63327 2.29279 2.2666 3.65945 2.2666 7.50112V12.5011C2.2666 16.3428 3.63327 17.7095 7.47494 17.7095H12.4749C16.3166 17.7095 17.6832 16.3428 17.6832 12.5011V7.50112C17.6832 3.65945 16.3166 2.29279 12.4749 2.29279H7.47494Z" fill="white"/>
<path d="M9.54151 15.0511C9.34151 15.0511 8.85818 14.9761 8.57485 14.2511L7.62487 11.8511C7.49154 11.5094 7.01654 11.1927 6.6582 11.1927L1.6582 11.2094C1.31654 11.2094 1.0332 10.9344 1.0332 10.5844C1.0332 10.2427 1.3082 9.95939 1.6582 9.95939L6.6582 9.94272H6.66654C7.54154 9.94272 8.47485 10.5761 8.79985 11.3927L9.55818 13.3094L11.2748 8.95939C11.5332 8.30938 11.9915 8.21771 12.1832 8.20104C12.3748 8.19271 12.8415 8.23438 13.1665 8.85105L14.0332 10.4927C14.1832 10.7761 14.6332 11.0511 14.9582 11.0511H18.3415C18.6832 11.0511 18.9665 11.3344 18.9665 11.6761C18.9665 12.0177 18.6832 12.3011 18.3415 12.3011H14.9582C14.1665 12.3011 13.2998 11.7761 12.9332 11.0761L12.2832 9.84272L10.5332 14.2511C10.2248 14.9677 9.73318 15.0511 9.54151 15.0511Z" fill="white"/>
</svg>
