<svg width="20" height="20" viewBox="0 0 20 20" fill="none" xmlns="http://www.w3.org/2000/svg">
<path d="M12.9163 9.37524H7.08301C6.74134 9.37524 6.45801 9.09191 6.45801 8.75024C6.45801 8.40858 6.74134 8.12524 7.08301 8.12524H12.9163C13.258 8.12524 13.5413 8.40858 13.5413 8.75024C13.5413 9.09191 13.258 9.37524 12.9163 9.37524Z" fill="white"/>
<path d="M13.3337 18.6001C13.0503 18.6001 12.767 18.5169 12.5253 18.3586L8.97533 15.9918H5.83366C2.96699 15.9918 1.04199 14.0668 1.04199 11.2001V6.20018C1.04199 3.33351 2.96699 1.40851 5.83366 1.40851H14.167C17.0337 1.40851 18.9587 3.33351 18.9587 6.20018V11.2001C18.9587 13.8501 17.3087 15.7002 14.792 15.9586V17.1418C14.792 17.6835 14.5003 18.1751 14.0253 18.4251C13.8087 18.5418 13.567 18.6001 13.3337 18.6001ZM5.83366 2.65017C3.68366 2.65017 2.29199 4.04183 2.29199 6.19183V11.1918C2.29199 13.3418 3.68366 14.7335 5.83366 14.7335H9.16699C9.29199 14.7335 9.40866 14.7668 9.51699 14.8418L13.2253 17.3086C13.317 17.3669 13.4003 17.3419 13.442 17.3169C13.4837 17.2919 13.5503 17.2418 13.5503 17.1335V15.3585C13.5503 15.0168 13.8337 14.7335 14.1753 14.7335C16.3253 14.7335 17.717 13.3418 17.717 11.1918V6.19183C17.717 4.04183 16.3253 2.65017 14.1753 2.65017H5.83366Z" fill="white"/>
</svg>
