<svg width="20" height="21" viewBox="0 0 20 21" fill="none" xmlns="http://www.w3.org/2000/svg">
<path d="M6.66699 4.79285C6.32533 4.79285 6.04199 4.50951 6.04199 4.16785V1.66785C6.04199 1.32618 6.32533 1.04285 6.66699 1.04285C7.00866 1.04285 7.29199 1.32618 7.29199 1.66785V4.16785C7.29199 4.50951 7.00866 4.79285 6.66699 4.79285Z" fill="white"/>
<path d="M13.333 4.79285C12.9913 4.79285 12.708 4.50951 12.708 4.16785V1.66785C12.708 1.32618 12.9913 1.04285 13.333 1.04285C13.6747 1.04285 13.958 1.32618 13.958 1.66785V4.16785C13.958 4.50951 13.6747 4.79285 13.333 4.79285Z" fill="white"/>
<path d="M12.4997 11.4596H5.83301C5.49134 11.4596 5.20801 11.1763 5.20801 10.8346C5.20801 10.4929 5.49134 10.2096 5.83301 10.2096H12.4997C12.8413 10.2096 13.1247 10.4929 13.1247 10.8346C13.1247 11.1763 12.8413 11.4596 12.4997 11.4596Z" fill="white"/>
<path d="M9.99967 14.7928H5.83301C5.49134 14.7928 5.20801 14.5095 5.20801 14.1678C5.20801 13.8262 5.49134 13.5428 5.83301 13.5428H9.99967C10.3413 13.5428 10.6247 13.8262 10.6247 14.1678C10.6247 14.5095 10.3413 14.7928 9.99967 14.7928Z" fill="white"/>
<path d="M12.5 18.9595H7.5C2.81667 18.9595 1.875 16.7512 1.875 13.1845V8.04285C1.875 4.09285 3.20833 2.48451 6.63333 2.29285H13.3333C13.3417 2.29285 13.3583 2.29285 13.3667 2.29285C16.7917 2.48451 18.125 4.09285 18.125 8.04285V13.1845C18.125 16.7512 17.1833 18.9595 12.5 18.9595ZM6.66667 3.54285C4.33333 3.67618 3.125 4.40951 3.125 8.04285V13.1845C3.125 16.3762 3.73333 17.7095 7.5 17.7095H12.5C16.2667 17.7095 16.875 16.3762 16.875 13.1845V8.04285C16.875 4.41785 15.675 3.67618 13.3167 3.54285H6.66667Z" fill="white"/>
</svg>
