<svg width="20" height="21" viewBox="0 0 20 21" fill="none" xmlns="http://www.w3.org/2000/svg">
<g clip-path="url(#clip0_7_8689)">
<path d="M10.0163 17.1097C8.07456 17.1097 6.1329 16.8013 4.29123 16.1847C3.59123 15.943 3.0579 15.4513 2.82457 14.8097C2.5829 14.168 2.66623 13.4597 3.04957 12.8263L4.0079 11.2347C4.2079 10.9013 4.39123 10.2347 4.39123 9.84301V7.43469C4.39123 4.33469 6.91623 1.80969 10.0163 1.80969C13.1163 1.80969 15.6413 4.33469 15.6413 7.43469V9.84301C15.6413 10.2263 15.8246 10.9013 16.0246 11.243L16.9746 12.8263C17.3329 13.4263 17.3996 14.1513 17.1579 14.8097C16.9163 15.468 16.3913 15.968 15.7329 16.1847C13.8996 16.8013 11.9579 17.1097 10.0163 17.1097ZM10.0163 3.05969C7.6079 3.05969 5.64123 5.01803 5.64123 7.43469V9.84301C5.64123 10.4513 5.39123 11.3513 5.0829 11.8763L4.12457 13.468C3.94123 13.7763 3.89123 14.1013 3.99957 14.3763C4.09957 14.6597 4.34957 14.8763 4.69123 14.993C8.17456 16.1597 11.8663 16.1597 15.3496 14.993C15.6496 14.893 15.8829 14.668 15.9913 14.368C16.0996 14.068 16.0746 13.743 15.9079 13.468L14.9496 11.8763C14.6329 11.3347 14.3913 10.443 14.3913 9.83468V7.43469C14.3913 5.01803 12.4329 3.05969 10.0163 3.05969Z" fill="#A4ABB6"/>
<path d="M11.5668 3.28486C11.5085 3.28486 11.4502 3.27653 11.3918 3.25986C11.1502 3.1932 10.9168 3.1432 10.6918 3.10986C9.98348 3.0182 9.30015 3.0682 8.65848 3.25986C8.42515 3.33486 8.17518 3.25986 8.01684 3.08486C7.85851 2.90986 7.80851 2.65986 7.90018 2.43486C8.24184 1.55986 9.07515 0.984863 10.0252 0.984863C10.9752 0.984863 11.8085 1.55153 12.1502 2.43486C12.2335 2.65986 12.1918 2.90986 12.0335 3.08486C11.9085 3.2182 11.7335 3.28486 11.5668 3.28486Z" fill="#A4ABB6"/>
<path d="M10.0166 19.0099C9.19158 19.0099 8.39158 18.6766 7.80827 18.0932C7.22493 17.5099 6.8916 16.7099 6.8916 15.8849H8.1416C8.1416 16.3766 8.34158 16.8599 8.69158 17.2099C9.04158 17.5599 9.52491 17.7599 10.0166 17.7599C11.0499 17.7599 11.8916 16.9182 11.8916 15.8849H13.1416C13.1416 17.6099 11.7416 19.0099 10.0166 19.0099Z" fill="#A4ABB6"/>
</g>
<defs>
<clipPath id="clip0_7_8689">
<rect width="20" height="20" fill="white" transform="translate(0 0.00146484)"/>
</clipPath>
</defs>
</svg>
