<svg width="20" height="20" viewBox="0 0 20 20" fill="none" xmlns="http://www.w3.org/2000/svg">
<path d="M10.0163 17.1083C8.07456 17.1083 6.1329 16.7999 4.29123 16.1833C3.59123 15.9416 3.0579 15.4499 2.82457 14.8083C2.5829 14.1666 2.66623 13.4583 3.04957 12.8249L4.0079 11.2333C4.2079 10.8999 4.39123 10.2333 4.39123 9.84161V7.43329C4.39123 4.33329 6.91623 1.80829 10.0163 1.80829C13.1163 1.80829 15.6413 4.33329 15.6413 7.43329V9.84161C15.6413 10.2249 15.8246 10.8999 16.0246 11.2416L16.9746 12.8249C17.3329 13.4249 17.3996 14.1499 17.1579 14.8083C16.9163 15.4666 16.3913 15.9666 15.7329 16.1833C13.8996 16.7999 11.9579 17.1083 10.0163 17.1083ZM10.0163 3.05829C7.6079 3.05829 5.64123 5.01662 5.64123 7.43329V9.84161C5.64123 10.4499 5.39123 11.3499 5.0829 11.8749L4.12457 13.4666C3.94123 13.7749 3.89123 14.0999 3.99957 14.3749C4.09957 14.6583 4.34957 14.8749 4.69123 14.9916C8.17456 16.1583 11.8663 16.1583 15.3496 14.9916C15.6496 14.8916 15.8829 14.6666 15.9913 14.3666C16.0996 14.0666 16.0746 13.7416 15.9079 13.4666L14.9496 11.8749C14.6329 11.3333 14.3913 10.4416 14.3913 9.83327V7.43329C14.3913 5.01662 12.4329 3.05829 10.0163 3.05829Z" fill="white"/>
<path d="M11.5668 3.28346C11.5085 3.28346 11.4502 3.27513 11.3918 3.25846C11.1502 3.19179 10.9168 3.14179 10.6918 3.10846C9.98348 3.01679 9.30015 3.06679 8.65848 3.25846C8.42515 3.33346 8.17518 3.25846 8.01684 3.08346C7.85851 2.90846 7.80851 2.65846 7.90018 2.43346C8.24184 1.55846 9.07515 0.983459 10.0252 0.983459C10.9752 0.983459 11.8085 1.55013 12.1502 2.43346C12.2335 2.65846 12.1918 2.90846 12.0335 3.08346C11.9085 3.21679 11.7335 3.28346 11.5668 3.28346Z" fill="white"/>
<path d="M10.0166 19.0084C9.19158 19.0084 8.39158 18.675 7.80827 18.0917C7.22493 17.5084 6.8916 16.7084 6.8916 15.8834H8.1416C8.1416 16.375 8.34158 16.8584 8.69158 17.2084C9.04158 17.5584 9.52491 17.7584 10.0166 17.7584C11.0499 17.7584 11.8916 16.9167 11.8916 15.8834H13.1416C13.1416 17.6084 11.7416 19.0084 10.0166 19.0084Z" fill="white"/>
</svg>
