<svg width="22" height="22" viewBox="0 0 22 22" fill="none" xmlns="http://www.w3.org/2000/svg">
<path d="M19.2494 6.16912C19.2311 6.16912 19.2036 6.16912 19.1761 6.16912C14.3269 5.68329 9.4869 5.49996 4.69271 5.98579L2.82271 6.16912C2.43771 6.20579 2.09854 5.93079 2.06187 5.54579C2.02521 5.16079 2.30021 4.83079 2.67604 4.79412L4.54604 4.61079C9.42273 4.11579 14.3636 4.30829 19.3136 4.79412C19.6894 4.83079 19.9644 5.16996 19.9277 5.54579C19.9002 5.90329 19.5977 6.16912 19.2494 6.16912Z" fill="#A4ABB6"/>
<path d="M7.79267 5.24331C7.75601 5.24331 7.71934 5.24331 7.67351 5.23415C7.30684 5.16998 7.05017 4.81248 7.11434 4.44581L7.31601 3.24498C7.46267 2.36498 7.66434 1.14581 9.80014 1.14581H12.2018C14.3468 1.14581 14.5485 2.41081 14.686 3.25415L14.8876 4.44581C14.9518 4.82165 14.6951 5.17915 14.3285 5.23415C13.9526 5.29831 13.5951 5.04165 13.5401 4.67498L13.3385 3.48331C13.2101 2.68581 13.1826 2.52998 12.211 2.52998H9.8093C8.83767 2.52998 8.81934 2.65831 8.68184 3.47415L8.47101 4.66581C8.41601 5.00498 8.12267 5.24331 7.79267 5.24331Z" fill="#A4ABB6"/>
<path d="M13.9432 20.8543H8.05818C4.85901 20.8543 4.73068 19.0851 4.62985 17.6551L4.03401 8.42423C4.00651 8.04839 4.29985 7.7184 4.67568 7.6909C5.06068 7.67257 5.38151 7.95674 5.40901 8.33257L6.00485 17.5634C6.10568 18.9568 6.14235 19.4793 8.05818 19.4793H13.9432C15.8682 19.4793 15.9049 18.9568 15.9965 17.5634L16.5924 8.33257C16.6199 7.95674 16.9499 7.67257 17.3257 7.6909C17.7015 7.7184 17.9949 8.03923 17.9674 8.42423L17.3715 17.6551C17.2707 19.0851 17.1424 20.8543 13.9432 20.8543Z" fill="#A4ABB6"/>
<path d="M12.5222 15.8125H9.46974C9.09389 15.8125 8.78223 15.5008 8.78223 15.125C8.78223 14.7492 9.09389 14.4375 9.46974 14.4375H12.5222C12.8981 14.4375 13.2097 14.7492 13.2097 15.125C13.2097 15.5008 12.8981 15.8125 12.5222 15.8125Z" fill="#A4ABB6"/>
<path d="M13.2913 12.1458H8.70801C8.33217 12.1458 8.02051 11.8341 8.02051 11.4583C8.02051 11.0825 8.33217 10.7708 8.70801 10.7708H13.2913C13.6672 10.7708 13.9788 11.0825 13.9788 11.4583C13.9788 11.8341 13.6672 12.1458 13.2913 12.1458Z" fill="#A4ABB6"/>
</svg>
