<svg width="20" height="20" viewBox="0 0 20 20" fill="none" xmlns="http://www.w3.org/2000/svg">
<path d="M13.3337 10.625H6.66699C6.32533 10.625 6.04199 10.3417 6.04199 10C6.04199 9.65833 6.32533 9.375 6.66699 9.375H13.3337C13.6753 9.375 13.9587 9.65833 13.9587 10C13.9587 10.3417 13.6753 10.625 13.3337 10.625Z" fill="#2399D5"/>
<path d="M10 13.9584C9.65833 13.9584 9.375 13.675 9.375 13.3334V6.66669C9.375 6.32502 9.65833 6.04169 10 6.04169C10.3417 6.04169 10.625 6.32502 10.625 6.66669V13.3334C10.625 13.675 10.3417 13.9584 10 13.9584Z" fill="#2399D5"/>
<path d="M12.5003 18.9584H7.50033C2.97533 18.9584 1.04199 17.025 1.04199 12.5V7.50002C1.04199 2.97502 2.97533 1.04169 7.50033 1.04169H12.5003C17.0253 1.04169 18.9587 2.97502 18.9587 7.50002V12.5C18.9587 17.025 17.0253 18.9584 12.5003 18.9584ZM7.50033 2.29169C3.65866 2.29169 2.29199 3.65835 2.29199 7.50002V12.5C2.29199 16.3417 3.65866 17.7084 7.50033 17.7084H12.5003C16.342 17.7084 17.7087 16.3417 17.7087 12.5V7.50002C17.7087 3.65835 16.342 2.29169 12.5003 2.29169H7.50033Z" fill="#2399D5"/>
</svg>
