<svg width="100" height="100" viewBox="0 0 100 100" fill="none" xmlns="http://www.w3.org/2000/svg">
<path d="M67.8302 91.3629H51.9968C49.6635 91.3629 44.5802 90.6636 41.8718 87.9895L29.2467 78.3627L33.08 73.4671L45.9968 83.3407C47.0385 84.328 49.6635 85.1508 51.9968 85.1508H67.8302C71.5802 85.1508 75.6218 82.1887 76.4552 78.8564L86.5385 48.6186C87.2052 46.8084 87.0802 45.1628 86.2052 43.9698C85.2885 42.6944 83.6218 41.9539 81.5802 41.9539H64.9135C62.7468 41.9539 60.7468 41.0488 59.3718 39.4855C57.9552 37.881 57.3302 35.7417 57.6635 33.5202L59.7468 20.3143C60.2468 18.0104 58.6635 15.4186 56.4135 14.6781C54.3718 13.9376 51.7468 15.0072 50.8302 16.3237L33.7467 41.4191L28.5801 38.0044L45.6635 12.9091C48.2885 9.04195 54.0385 7.19065 58.5385 8.87739C63.7468 10.5641 67.0802 16.2414 65.9135 21.5073L63.8718 34.4664C63.8302 34.7544 63.8302 35.1658 64.1218 35.4949C64.3302 35.7006 64.6218 35.824 64.9552 35.824H81.6218C85.7052 35.824 89.2468 37.5108 91.3302 40.4317C93.3718 43.2704 93.7885 47.0141 92.4552 50.6344L82.4968 80.5843C80.9552 86.5496 74.5385 91.3629 67.8302 91.3629Z" fill="#32A5DF"/>
<path d="M22.4199 86.8371H18.2533C10.5449 86.8371 6.79492 83.258 6.79492 75.9351V35.618C6.79492 28.2951 10.5449 24.7159 18.2533 24.7159H22.4199C30.1283 24.7159 33.8783 28.2951 33.8783 35.618V75.9351C33.8783 83.258 30.1283 86.8371 22.4199 86.8371ZM18.2533 30.8869C13.7116 30.8869 13.0449 31.9565 13.0449 35.618V75.9351C13.0449 79.5965 13.7116 80.6662 18.2533 80.6662H22.4199C26.9616 80.6662 27.6283 79.5965 27.6283 75.9351V35.618C27.6283 31.9565 26.9616 30.8869 22.4199 30.8869H18.2533Z" fill="#32A5DF"/>
</svg>
