
<svg width="22" height="22" viewBox="0 0 22 22" fill="none" xmlns="http://www.w3.org/2000/svg">
<path d="M8.2412 19.7084C6.71953 19.7084 5.1887 19.1309 4.02453 17.9668C1.70536 15.6384 1.70536 11.8618 4.02453 9.54259C4.29036 9.27675 4.73036 9.27675 4.9962 9.54259C5.26203 9.80842 5.26203 10.2484 4.9962 10.5143C3.2087 12.3018 3.2087 15.2076 4.9962 16.9951C6.7837 18.7826 9.68954 18.7826 11.477 16.9951C12.3387 16.1334 12.8154 14.9784 12.8154 13.7501C12.8154 12.5309 12.3387 11.3759 11.477 10.5051C11.2112 10.2393 11.2112 9.79925 11.477 9.53342C11.7429 9.26759 12.1829 9.26759 12.4487 9.53342C13.5762 10.6609 14.1904 12.1551 14.1904 13.7501C14.1904 15.3451 13.567 16.8393 12.4487 17.9668C11.2937 19.1309 9.77204 19.7084 8.2412 19.7084Z" fill="#A4ABB6"/>
<path d="M17.4804 12.9802C17.3063 12.9802 17.1321 12.916 16.9946 12.7785C16.7288 12.5127 16.7288 12.0727 16.9946 11.8068C18.8738 9.92767 18.8738 6.87519 16.9946 5.00519C15.1154 3.12603 12.0629 3.12603 10.1929 5.00519C9.28544 5.91269 8.78125 7.12269 8.78125 8.40603C8.78125 9.68933 9.28544 10.8993 10.1929 11.8068C10.4588 12.0727 10.4588 12.5127 10.1929 12.7785C9.9271 13.0443 9.4871 13.0443 9.22127 12.7785C8.05708 11.6143 7.40625 10.056 7.40625 8.40603C7.40625 6.75603 8.04792 5.19769 9.22127 4.03353C11.6321 1.62269 15.5554 1.62269 17.9754 4.03353C20.3863 6.44436 20.3863 10.3768 17.9754 12.7877C17.8379 12.916 17.6546 12.9802 17.4804 12.9802Z" fill="#A4ABB6"/>
</svg>
