
<svg width="22" height="22" viewBox="0 0 22 22" fill="none" xmlns="http://www.w3.org/2000/svg">
<path d="M11.0007 12.9891C9.04813 12.9891 7.45312 11.4032 7.45312 9.44156C7.45312 7.47993 9.04813 5.90326 11.0007 5.90326C12.9532 5.90326 14.5482 7.48909 14.5482 9.45072C14.5482 11.4124 12.9532 12.9891 11.0007 12.9891ZM11.0007 7.27826C9.809 7.27826 8.82813 8.24993 8.82813 9.45072C8.82813 10.6516 9.79983 11.6232 11.0007 11.6232C12.2015 11.6232 13.1732 10.6516 13.1732 9.45072C13.1732 8.24993 12.1923 7.27826 11.0007 7.27826Z" fill="#A4ABB6"/>
<path d="M10.9996 20.8633C9.64289 20.8633 8.27705 20.35 7.21372 19.3325C4.50955 16.7291 1.52122 12.5766 2.64872 7.63581C3.66622 3.15331 7.58038 1.14581 10.9996 1.14581C10.9996 1.14581 10.9996 1.14581 11.0087 1.14581C14.4279 1.14581 18.3421 3.15331 19.3596 7.64498C20.4779 12.5858 17.4896 16.7291 14.7854 19.3325C13.7221 20.35 12.3562 20.8633 10.9996 20.8633ZM10.9996 2.52081C8.33205 2.52081 4.90372 3.94165 3.99622 7.93831C3.00622 12.2558 5.71955 15.9775 8.17622 18.3333C9.76206 19.8641 12.2462 19.8641 13.8321 18.3333C16.2796 15.9775 18.9929 12.2558 18.0212 7.93831C17.1046 3.94165 13.6671 2.52081 10.9996 2.52081Z" fill="#A4ABB6"/>
</svg>
