<svg width="157" height="55" viewBox="0 0 157 55" fill="none" xmlns="http://www.w3.org/2000/svg">
<path d="M155.913 0.027339C155.829 0.00891699 155.733 0 155.639 0H147.618C147.524 0 147.437 0.00891699 147.345 0.027339C146.732 0.157482 146.262 0.704794 146.262 1.36383V1.70196V9.08918V9.42732C146.262 10.0822 146.732 10.6325 147.345 10.7614C147.437 10.7798 147.524 10.7905 147.618 10.7905H155.639C155.733 10.7905 155.829 10.7798 155.913 10.7614C156.532 10.6325 157 10.0816 157 9.42732V9.08918V1.70196V1.36383C157 0.705388 156.532 0.157482 155.913 0.027339Z" fill="#00528F"/>
<path d="M153.068 4.49574H150.189V1.83109H148.438V8.961H150.189V6.03249H153.068V8.961H154.815V1.83109H153.068V4.49574Z" fill="white"/>
<path d="M13.2755 6.05142L20.767 26.1825H16.1924L14.678 21.6988H7.18592L5.61589 26.1825H1.1875L8.75831 6.05142H13.2755ZM13.5276 18.4013L11 11.0129H10.9468L8.34228 18.4013H13.5276Z" fill="white"/>
<path d="M37.4567 26.1825L29.0976 15.1566C28.3738 14.1809 27.7365 13.2657 27.0399 12.3755H26.9825C27.0689 13.1053 27.0689 14.3597 27.0689 15.3361V26.1819H22.9258V6.05142H27.0689L35.096 16.6536C35.8819 17.6626 36.5169 18.5463 37.1241 19.4335H37.185C37.1241 18.3662 37.1241 17.0208 37.1241 16.0712V6.05202H41.2708V26.1831H37.4567V26.1825Z" fill="white"/>
<path d="M55.7394 6.05142L63.2291 26.1825H58.6545L57.1396 21.6988H49.6534L48.0774 26.1825H43.6484L51.221 6.05142H55.7394ZM55.9891 18.4013L53.4687 11.0129H53.413L50.8003 18.4013H55.9891Z" fill="white"/>
<path d="M65.3873 6.05142H72.1835C79.2749 6.05142 83.3175 9.93015 83.3175 15.9524C83.3175 22.1861 78.6973 26.1825 71.7846 26.1825H65.3867V6.05142H65.3873ZM71.8769 22.6419C76.8628 22.6419 78.8482 19.616 78.8482 16.0706C78.8482 12.0095 76.4361 9.5938 71.7846 9.5938H69.5784V22.6419H71.8769Z" fill="white"/>
<path d="M86.4062 16.0545C86.4062 9.92885 90.637 5.69357 96.691 5.69357C102.749 5.69357 106.975 9.95618 106.975 16.0545C106.975 22.2514 102.722 26.4177 96.691 26.4177C90.6376 26.4183 86.4062 22.2181 86.4062 16.0545ZM102.505 16.0545C102.505 11.6772 100.177 9.22347 96.6916 9.22347C93.2344 9.22347 90.8784 11.6439 90.8784 16.0545C90.8784 20.4989 93.2344 22.9271 96.6916 22.9271C100.149 22.9277 102.505 20.4995 102.505 16.0545Z" fill="white"/>
<path d="M110.277 6.05142H114.468V22.6419H121.507V26.1825H110.277V6.05142Z" fill="white"/>
<path d="M124.517 22.7438C123.934 21.648 123.629 20.2432 123.629 18.5959V6.09567H127.817V18.3522C127.817 19.3869 128.036 20.305 128.401 21.0026C129.104 22.3165 130.448 23.016 132.321 23.016C134.154 23.016 135.499 22.3165 136.206 21.0026C136.603 20.305 136.788 19.3868 136.788 18.3237V6.09567H140.978V18.5953C140.978 20.2426 140.67 21.648 140.094 22.7432C138.778 25.3045 136.019 26.4924 132.292 26.4924C128.555 26.493 125.832 25.3051 124.517 22.7438Z" fill="white"/>
<path d="M156.999 31.4073H1.00391V32.4073H156.999V31.4073Z" fill="white"/>
<path d="M1.83774 38.3806C1.81407 37.9486 1.81407 37.8078 1.29152 37.7139C1.08794 37.6764 1.02994 37.6111 1.02994 37.5463C1.02994 37.4702 1.13647 37.431 1.26252 37.431C1.5087 37.431 1.97504 37.4637 2.2804 37.4637C2.73608 37.4637 2.94913 37.431 3.27284 37.431C3.42375 37.431 3.50896 37.4702 3.50896 37.5463C3.50896 37.6182 3.41132 37.6764 3.26456 37.7061C2.72425 37.8185 2.73549 38.052 2.69703 38.3028C2.64791 38.6124 2.64495 39.2203 2.64495 41.0578C2.64495 41.57 2.64791 42.1506 2.66862 42.4477C2.69702 42.9528 2.74555 43.1335 3.34741 43.2541C3.51607 43.2838 3.59063 43.3474 3.59063 43.4152C3.59063 43.4883 3.45275 43.5358 3.33735 43.5358C2.86687 43.5358 2.20584 43.4806 1.95314 43.4806C1.67204 43.4806 1.59156 43.4972 1.24299 43.4972C1.06782 43.4972 1.00391 43.4306 1.00391 43.3718C1.00391 43.2999 1.09622 43.2476 1.28205 43.209C1.7466 43.1044 1.78685 42.9647 1.82176 42.5226C1.85194 42.1952 1.87029 41.2247 1.87029 40.4296C1.87029 39.8479 1.86023 38.6873 1.83774 38.3806Z" fill="white"/>
<path d="M4.15455 39.9617C4.31197 39.9041 4.64633 39.7817 4.77357 39.6884C4.86707 39.6325 4.95229 39.5873 4.99549 39.5873C5.04461 39.5873 5.08958 39.6884 5.08958 39.7252C5.08958 39.8863 5.05289 40.1115 5.05289 40.1953C5.05289 40.2387 5.1026 40.2202 5.11089 40.2202C5.48609 39.9689 5.96603 39.7074 6.35602 39.7074C6.8117 39.7074 7.07328 39.9124 7.20643 40.0622C7.40705 40.3082 7.52718 40.7325 7.52718 41.2043C7.52718 41.385 7.54494 42.7749 7.55677 42.9087C7.57453 43.0477 7.66803 43.1695 7.9006 43.2349C8.07873 43.283 8.13022 43.3282 8.13022 43.3965C8.13022 43.4577 8.00417 43.497 7.85622 43.497C7.64376 43.497 7.42658 43.4803 7.16382 43.4803C6.93539 43.4803 6.64541 43.497 6.5235 43.497C6.43947 43.497 6.31105 43.4578 6.31105 43.387C6.31105 43.3211 6.41638 43.2646 6.5235 43.2284C6.74779 43.1398 6.79336 43.0673 6.81229 42.7547C6.82709 42.4457 6.84248 41.3178 6.84248 41.0451C6.84248 40.7063 6.67795 40.4371 6.56137 40.3498C6.46018 40.2785 6.17907 40.1751 5.96662 40.1751C5.55414 40.1751 5.31328 40.3159 5.13574 40.4752C5.11148 40.5001 5.04579 40.616 5.04579 40.6986C5.04579 40.8198 5.04579 42.8326 5.05408 42.9473C5.06295 43.0733 5.10379 43.1475 5.40146 43.2337C5.49378 43.264 5.56894 43.3205 5.56894 43.3769C5.56894 43.4387 5.46537 43.4869 5.33577 43.4869C5.22096 43.4869 4.96294 43.4791 4.76706 43.4791C4.42086 43.4791 4.15514 43.5077 3.99181 43.5077C3.85274 43.5077 3.75391 43.4678 3.75391 43.3864C3.75391 43.3205 3.84267 43.2753 3.94683 43.2468C4.25456 43.1475 4.31315 43.056 4.33978 42.7221C4.36464 42.4368 4.38476 41.6256 4.38476 40.6713C4.38476 40.5643 4.36464 40.4752 4.16225 40.3076C4.03915 40.2202 3.98411 40.1751 3.98411 40.1454C3.98293 40.083 4.08354 39.9861 4.15455 39.9617Z" fill="white"/>
<path d="M13.6205 37.5352C13.6951 37.7859 13.8519 38.209 14.0312 38.6951C14.5129 40.0619 15.2136 41.9154 15.3716 42.2981C15.677 43.0683 15.8249 43.1402 16.2451 43.2478C16.3942 43.2905 16.4694 43.3381 16.4694 43.4052C16.4694 43.4688 16.4019 43.5265 16.1694 43.5265C15.8616 43.5265 15.4095 43.4807 14.9988 43.4807C14.7005 43.4807 14.5703 43.4973 14.3336 43.4973C14.1034 43.4973 14.046 43.4326 14.046 43.3874C14.046 43.3381 14.1034 43.265 14.2679 43.2347C14.7171 43.1402 14.6786 42.956 14.6431 42.7551C14.5691 42.3766 14.333 41.7568 14.1229 41.1548C14.1158 41.1203 14.0762 41.0645 13.8063 41.0645C13.295 41.0645 12.4754 41.0746 12.2795 41.1025C12.2422 41.1025 12.1949 41.1441 12.1783 41.1768C11.9327 41.7835 11.6948 42.584 11.6948 42.8157C11.6948 42.9239 11.7303 43.0861 12.1481 43.2169C12.3055 43.265 12.4014 43.3214 12.4014 43.3874C12.4014 43.4801 12.2635 43.5039 12.1398 43.5039C11.98 43.5039 11.7504 43.4801 11.406 43.4801C11.0616 43.4801 10.5787 43.5259 10.4414 43.5259C10.2698 43.5259 10.2266 43.4878 10.2266 43.432C10.2266 43.3779 10.2911 43.2905 10.426 43.2472C10.8947 43.0861 11.0131 43.0564 11.2865 42.4461C11.5007 41.9719 12.5606 39.1462 12.9719 38.1336C13.008 38.0581 13.0234 37.9838 13.0234 37.9363C13.0234 37.9083 13.0234 37.8917 13.0453 37.8638C13.1317 37.7503 13.2536 37.506 13.3258 37.402C13.3903 37.3307 13.4246 37.2939 13.4737 37.2939C13.5075 37.2939 13.5436 37.3307 13.6205 37.5352ZM13.9182 40.5647C13.7643 40.0881 13.2761 38.6868 13.1944 38.5531C13.1684 38.499 13.1471 38.4901 13.1198 38.5531C12.9506 39.0042 12.4695 40.3163 12.3949 40.6039C12.3831 40.6419 12.4032 40.6711 12.4393 40.6711C12.8139 40.6615 13.5838 40.6711 13.8892 40.6419C13.8963 40.6425 13.927 40.5962 13.9182 40.5647Z" fill="white"/>
<path d="M18.0569 40.2512C17.9936 40.2512 17.9675 40.3505 17.9675 40.467C17.9675 40.6167 17.9675 42.4613 18.0001 42.6925C18.0326 42.9819 18.125 43.1322 18.4475 43.2285C18.6162 43.276 18.7008 43.3206 18.7008 43.3961C18.7008 43.468 18.5718 43.5161 18.4303 43.5161C18.3114 43.5161 17.7444 43.4793 17.5568 43.4793C17.2509 43.4793 16.9289 43.525 16.8621 43.525C16.7473 43.525 16.6484 43.4793 16.6484 43.4133C16.6484 43.3705 16.7378 43.2891 16.8414 43.2635C17.2515 43.1387 17.2586 43.055 17.2882 42.6235C17.2751 42.3353 17.303 40.8556 17.2882 40.3879C17.2882 40.341 17.242 40.2946 17.1864 40.2911L16.8532 40.278C16.7822 40.278 16.7473 40.2013 16.7473 40.111C16.7603 40.0694 17.0603 39.9185 17.1864 39.8359C17.2675 39.7806 17.303 39.7544 17.303 39.676C17.303 39.2101 17.4101 38.771 17.5639 38.4227C17.745 38.04 18.0847 37.6472 18.4789 37.4012C18.7008 37.2514 19.131 37.0369 19.5678 37.0369C20.0329 37.0369 20.3744 37.1861 20.5679 37.3952C20.5886 37.422 20.6265 37.4125 20.643 37.3952C20.9703 37.0541 21.5106 36.795 21.9947 36.795C22.6184 36.795 22.851 37.0488 22.9717 37.2146C23.028 37.3031 23.0439 37.3459 23.0439 37.4291C23.0439 37.6549 22.693 37.8909 22.5717 37.8909C22.5261 37.8909 22.4042 37.7667 22.219 37.5991C22.0142 37.3845 21.7716 37.2698 21.4869 37.2615C21.2508 37.2615 21.0798 37.3459 20.9064 37.545C20.6815 37.8065 20.4383 38.4233 20.4383 39.7128C20.4383 39.7437 20.4383 39.8067 20.5152 39.8067C20.7389 39.8067 21.0567 39.8198 21.407 39.8198C22.2356 39.8281 22.3829 39.7544 22.5563 39.6968C22.6463 39.6689 22.7226 39.6314 22.8013 39.6314C22.8552 39.6314 22.8552 39.9304 22.8552 40.4658C22.8552 42.2967 22.8552 42.6069 22.8859 42.9153C22.9084 43.096 23.0084 43.1471 23.2966 43.2332C23.4766 43.298 23.4913 43.3265 23.4913 43.3949C23.4913 43.4668 23.3884 43.4953 23.2801 43.4953C23.0434 43.4953 22.8007 43.4668 22.5563 43.4668C22.2444 43.4668 21.9775 43.5024 21.7568 43.5024C21.658 43.5024 21.5881 43.4668 21.5881 43.3949C21.5881 43.336 21.6331 43.298 21.784 43.2457C22.0308 43.1465 22.1279 43.0722 22.1296 42.9147C22.1687 42.3341 22.1811 40.6975 22.1811 40.4087C22.1811 40.3481 22.1279 40.2905 22.087 40.2768C21.826 40.237 20.9064 40.218 20.4892 40.2679C20.472 40.2679 20.4211 40.2934 20.4211 40.3582C20.4211 40.5739 20.4288 42.5659 20.4383 42.6901C20.4383 43.0455 20.414 43.1376 20.991 43.2624C21.1567 43.2974 21.191 43.3753 21.191 43.4121C21.191 43.4775 21.0721 43.5143 20.9614 43.5143C20.8537 43.5143 20.314 43.4775 20.0702 43.4775C19.7358 43.4775 19.4997 43.5143 19.2784 43.5143C19.1772 43.5143 19.073 43.4775 19.073 43.4121C19.073 43.3444 19.1772 43.2879 19.2559 43.2742C19.666 43.1607 19.7234 43.0544 19.7234 42.6122C19.7234 42.2961 19.7453 40.8847 19.7453 40.3321C19.7453 40.294 19.6879 40.2489 19.6589 40.2489H18.0569V40.2512ZM19.6589 39.8293C19.6974 39.8293 19.7453 39.7883 19.7453 39.7556C19.7453 39.0336 19.9483 38.4043 20.1702 37.9937C20.1779 37.9746 20.1702 37.9182 20.1501 37.892C19.9862 37.687 19.6423 37.4505 19.0807 37.4505C18.8239 37.4505 18.5511 37.611 18.3475 37.9021C18.1427 38.1654 17.9746 38.7638 17.9746 39.714C17.9746 39.7556 17.9995 39.8293 18.0652 39.8293H19.6589Z" fill="white"/>
<path d="M24.1719 37.1737C24.6004 37.0209 24.8821 36.9651 25.1283 36.8017C25.1573 36.7856 25.2117 36.8593 25.2117 36.9009C25.1869 37.1356 25.1283 38.1922 25.1283 39.4455C25.1283 40.8129 25.1129 42.5981 25.1573 42.8518C25.1946 43.0396 25.2336 43.1477 25.6301 43.2642C25.7739 43.2993 25.8444 43.3462 25.8444 43.4039C25.8444 43.4675 25.7148 43.5031 25.6041 43.5031C25.378 43.5031 24.9809 43.4793 24.8135 43.4793C24.6004 43.4793 24.1903 43.5031 23.9986 43.5031C23.8133 43.5031 23.7305 43.4793 23.7305 43.4039C23.7305 43.3373 23.8388 43.2898 23.9382 43.2755C24.3666 43.1733 24.3874 43.0122 24.4158 42.5434C24.4323 42.188 24.4797 41.176 24.4797 39.6975C24.4797 39.004 24.4507 38.0205 24.4507 37.7388C24.4507 37.6681 24.4442 37.6098 24.2299 37.4773C24.0684 37.365 24.0429 37.3401 24.0429 37.3038C24.0423 37.2628 24.0678 37.198 24.1719 37.1737Z" fill="white"/>
<path d="M26.588 39.9785C26.933 39.9042 27.3722 39.698 27.5106 39.6582C27.5438 39.6582 27.5935 39.7556 27.5935 39.7639C27.5935 39.8697 27.5343 41.0832 27.5343 41.6162C27.5343 42.1433 27.5438 42.5332 27.5574 42.86C27.5669 43.1631 27.771 43.1744 28.0048 43.2534C28.1515 43.2998 28.2072 43.3467 28.2072 43.4145C28.2072 43.4685 28.0941 43.5036 27.9924 43.5036C27.929 43.5036 27.4645 43.4798 27.268 43.4798C26.9638 43.4798 26.6336 43.5167 26.4738 43.5167C26.3276 43.5167 26.2383 43.4798 26.2383 43.4145C26.2383 43.3562 26.2992 43.3129 26.4596 43.2647C26.6744 43.2083 26.8105 43.0971 26.8318 42.9985C26.8567 42.8731 26.865 42.3115 26.865 42.0364C26.865 42.0203 26.8774 40.6928 26.8567 40.5769C26.8484 40.5121 26.7496 40.4378 26.4738 40.2393C26.4223 40.2025 26.4016 40.1764 26.4016 40.1371C26.401 40.07 26.4809 40.0011 26.588 39.9785ZM27.655 38.2587C27.655 38.5107 27.3946 38.7127 27.2124 38.7127C27.1455 38.7127 26.9952 38.6782 26.9141 38.6004C26.8407 38.5172 26.7744 38.4156 26.7744 38.2593C26.7744 38.1725 26.8105 38.0216 26.8822 37.9188C26.9792 37.8385 27.1212 37.7952 27.2508 37.7952C27.4988 37.7946 27.655 38.0852 27.655 38.2587Z" fill="white"/>
<path d="M31.1118 40.137C31.2521 40.3349 31.3006 40.5227 31.3006 40.9149C31.3006 41.2791 31.2622 42.4623 31.2622 42.5645C31.2622 42.9912 31.5586 43.0286 31.6314 43.0286C31.6693 43.0286 31.8835 42.9645 31.9859 42.8896C32.0131 42.8735 32.0244 42.8896 32.0427 42.9169C32.0723 42.9484 32.0723 42.9989 32.0723 43.0132C32.0723 43.1873 31.6539 43.595 31.2326 43.595C31.0207 43.595 30.7485 43.4684 30.6402 43.1231C30.6402 43.113 30.6023 43.0738 30.5828 43.0857C30.2354 43.3276 29.8377 43.4874 29.7454 43.5165C29.6371 43.5516 29.4205 43.5748 29.372 43.5748C29.0459 43.5748 28.7275 43.1695 28.7275 42.7042C28.7275 42.533 28.8038 42.3542 28.9086 42.2222C29.0003 42.1028 29.1394 42.0547 29.2767 41.9905C29.4211 41.931 30.162 41.7314 30.3709 41.663C30.5828 41.5995 30.6402 41.5507 30.6402 41.4937C30.6491 41.4093 30.6538 40.84 30.6538 40.7259C30.6538 40.4912 30.3863 40.1019 29.9265 40.1019C29.7353 40.1019 29.6105 40.153 29.5501 40.2018C29.4951 40.2303 29.4649 40.3996 29.4809 40.5874C29.4809 40.6159 29.4454 40.6712 29.4294 40.692C29.3353 40.7621 28.8695 40.9981 28.8246 40.9981C28.7642 40.9981 28.7109 40.9232 28.7109 40.8745C28.7109 40.6041 28.9707 40.342 29.4093 40.052C29.6803 39.8607 30.0999 39.6972 30.2739 39.6972C30.7396 39.6978 30.9722 39.9314 31.1118 40.137ZM30.494 42.9235C30.5532 42.889 30.6094 42.7113 30.6094 42.6923C30.626 42.4694 30.626 42.1491 30.626 41.9631C30.626 41.931 30.5899 41.8883 30.5532 41.8883C30.294 41.8883 29.8442 42.0457 29.5945 42.1723C29.5034 42.2311 29.4075 42.2977 29.4075 42.5217C29.4075 42.9347 29.8004 43.0857 29.9969 43.0857C30.1342 43.0857 30.3194 43.0209 30.494 42.9235Z" fill="white"/>
<path d="M34.6169 39.7883C34.6288 39.7883 34.7235 39.8371 34.7235 39.8697C34.7235 39.8371 34.7471 40.1033 34.7471 40.221C34.7471 40.3083 34.5731 40.3261 34.5081 40.3261H33.4919C33.4476 40.3261 33.4091 40.3719 33.4091 40.3897C33.4026 40.5769 33.3931 41.9544 33.3931 42.4043C33.3931 42.639 33.4476 42.7561 33.5493 42.8606C33.7222 43.0217 33.9239 43.0413 34.1186 43.0413C34.2364 43.0413 34.4341 42.9831 34.5731 42.9005C34.6578 42.8535 34.6737 42.8458 34.7116 42.8458C34.7241 42.8458 34.7696 42.8607 34.7696 42.9492C34.7696 43.0223 34.7051 43.1144 34.6388 43.1756C34.3855 43.4234 34.0553 43.5963 33.6423 43.5963C33.2617 43.5963 32.9345 43.358 32.825 43.1495C32.7197 42.992 32.7037 42.7947 32.7037 42.5344C32.7037 42.1903 32.7427 40.7879 32.7427 40.4604C32.7427 40.3909 32.5753 40.3267 32.3829 40.2721C32.3095 40.2406 32.2539 40.1972 32.2539 40.1698C32.2539 40.1294 32.2835 40.0902 32.3101 40.0635C32.6368 39.802 32.9232 39.5774 33.0558 39.4187C33.17 39.2862 33.2316 39.2125 33.2706 39.2125C33.3132 39.2125 33.4026 39.2987 33.4026 39.3195V39.7568C33.4026 39.783 33.4357 39.8305 33.4771 39.8305C33.6795 39.8293 34.5803 39.7883 34.6169 39.7883Z" fill="white"/>
<path d="M35.4386 39.9785C35.7801 39.9042 36.2228 39.698 36.3607 39.6582C36.3962 39.6582 36.4423 39.7556 36.4423 39.7639C36.4423 39.8697 36.3885 41.0832 36.3885 41.6162C36.3885 42.1433 36.3962 42.5332 36.4045 42.86C36.4121 43.1631 36.6193 43.1744 36.8512 43.2534C37.0004 43.2998 37.0607 43.3467 37.0607 43.4145C37.0607 43.4685 36.9465 43.5036 36.8442 43.5036C36.7767 43.5036 36.3109 43.4798 36.1157 43.4798C35.8121 43.4798 35.4884 43.5167 35.3238 43.5167C35.1759 43.5167 35.0859 43.4798 35.0859 43.4145C35.0859 43.3562 35.1487 43.3129 35.3079 43.2647C35.5203 43.2083 35.6623 43.0971 35.6777 42.9985C35.7103 42.8731 35.7168 42.3115 35.7168 42.0364C35.7168 42.0203 35.7251 40.6928 35.7097 40.5769C35.6955 40.5121 35.5966 40.4378 35.3232 40.2393C35.2723 40.2025 35.2522 40.1764 35.2522 40.1371C35.2522 40.07 35.3369 40.0011 35.4386 39.9785ZM36.5116 38.2587C36.5116 38.5107 36.2453 38.7127 36.0606 38.7127C36.0003 38.7127 35.8488 38.6782 35.7624 38.6004C35.6884 38.5172 35.6268 38.4156 35.6268 38.2593C35.6268 38.1725 35.6617 38.0216 35.7339 37.9188C35.828 37.8385 35.9695 37.7952 36.0985 37.7952C36.3524 37.7946 36.5116 38.0852 36.5116 38.2587Z" fill="white"/>
<path d="M41.3742 41.6069C41.3742 42.3842 40.9079 42.9909 40.5664 43.2167C40.1954 43.4877 39.8297 43.5952 39.4089 43.5952C38.984 43.5952 38.5147 43.3968 38.175 43.1044C37.7708 42.7746 37.4844 42.1435 37.4844 41.6716C37.4844 40.9627 37.7785 40.5122 38.1336 40.2127C38.4236 39.962 38.8887 39.6987 39.5166 39.6987C40.4327 39.6981 41.3742 40.429 41.3742 41.6069ZM38.7301 40.2514C38.4898 40.476 38.2732 40.9621 38.2732 41.4446C38.2732 41.7572 38.3117 42.0466 38.3869 42.2802C38.6183 42.9826 39.1497 43.3213 39.5971 43.3213C39.7018 43.3213 39.9054 43.2767 40.1611 43.0129C40.3978 42.755 40.5836 42.1815 40.5836 41.7762C40.5836 41.2877 40.4676 40.7565 40.1173 40.3423C39.9119 40.12 39.5752 39.9786 39.3337 39.9786C39.1408 39.9786 38.9266 40.0832 38.7301 40.2514Z" fill="white"/>
<path d="M42.2958 39.9617C42.4508 39.9041 42.7875 39.7817 42.9148 39.6884C43.0112 39.6325 43.0917 39.5873 43.1444 39.5873C43.1888 39.5873 43.2349 39.6884 43.2349 39.7252C43.2349 39.8863 43.1977 40.1115 43.1977 40.1953C43.1977 40.2387 43.2426 40.2202 43.2515 40.2202C43.6243 39.9689 44.1126 39.7074 44.5032 39.7074C44.9571 39.7074 45.2145 39.9124 45.3476 40.0622C45.5536 40.3082 45.6749 40.7325 45.6749 41.2043C45.6749 41.385 45.6915 42.7749 45.7051 42.9087C45.7223 43.0477 45.8134 43.1695 46.046 43.2349C46.2241 43.283 46.2785 43.3282 46.2785 43.3965C46.2785 43.4577 46.1478 43.497 45.9968 43.497C45.785 43.497 45.5702 43.4803 45.311 43.4803C45.079 43.4803 44.7914 43.497 44.67 43.497C44.5813 43.497 44.4546 43.4578 44.4546 43.387C44.4546 43.3211 44.5546 43.2646 44.67 43.2284C44.892 43.1398 44.9346 43.0673 44.9571 42.7547C44.9736 42.4457 44.9855 41.3178 44.9855 41.0451C44.9855 40.7063 44.8174 40.4371 44.7038 40.3498C44.6026 40.2785 44.3221 40.1751 44.112 40.1751C43.7031 40.1751 43.4569 40.3159 43.2829 40.4752C43.2515 40.5001 43.1894 40.616 43.1894 40.6986C43.1894 40.8198 43.1894 42.8326 43.1977 42.9473C43.2054 43.0733 43.2426 43.1475 43.5433 43.2337C43.6368 43.264 43.7119 43.3205 43.7119 43.3769C43.7119 43.4387 43.6084 43.4869 43.474 43.4869C43.3645 43.4869 43.103 43.4791 42.9071 43.4791C42.565 43.4791 42.2958 43.5077 42.1384 43.5077C41.9951 43.5077 41.8945 43.4678 41.8945 43.3864C41.8945 43.3205 41.988 43.2753 42.091 43.2468C42.3964 43.1475 42.4514 43.056 42.4792 42.7221C42.5088 42.4368 42.5272 41.6256 42.5272 40.6713C42.5272 40.5643 42.5094 40.4752 42.3052 40.3076C42.1821 40.2202 42.1324 40.1751 42.1324 40.1454C42.1313 40.083 42.2307 39.9861 42.2958 39.9617Z" fill="white"/>
<path d="M49.8326 39.7998C49.9989 39.7998 50.0728 39.861 50.0728 39.9038C50.0728 39.9614 49.9989 40.0155 49.8385 40.0524C49.6397 40.0886 49.5899 40.2021 49.671 40.4178C49.7858 40.7857 50.4102 42.3836 50.4711 42.4954C50.5013 42.5548 50.538 42.5435 50.5546 42.4954C50.654 42.2939 51.0233 41.4934 51.2038 41.0733C51.2558 40.9723 51.2558 40.9229 51.2558 40.8861C51.2452 40.8201 51.1748 40.5765 51.1037 40.4368C51.002 40.2508 50.9298 40.1023 50.7161 40.0446C50.5924 40.003 50.5114 39.9686 50.5114 39.8949C50.5114 39.8289 50.5729 39.7998 50.7333 39.7998C50.8623 39.7998 51.144 39.8289 51.3535 39.8289C51.5257 39.8289 51.8044 39.7998 52.0116 39.7998C52.1435 39.7998 52.2329 39.8473 52.2329 39.9038C52.2329 39.9686 52.1625 40.0262 52.0116 40.0524C51.7648 40.1118 51.7364 40.2199 51.7364 40.2603C51.7364 40.3251 51.7825 40.4184 51.8506 40.5961C51.9027 40.7322 52.372 42.0075 52.5649 42.4692C52.5868 42.5322 52.6205 42.512 52.6513 42.4609C52.8046 42.1216 53.0851 41.3734 53.2721 40.8938C53.3762 40.6211 53.4277 40.4172 53.4277 40.334C53.4277 40.2384 53.4129 40.1266 53.0679 40.0446C52.9839 40.0149 52.8513 39.9781 52.8513 39.8949C52.8513 39.836 52.9744 39.7998 53.0679 39.7998C53.1715 39.7998 53.5064 39.8289 53.6455 39.8289C53.9538 39.8289 54.184 39.7814 54.3296 39.7814C54.4444 39.7814 54.529 39.8206 54.529 39.8764C54.529 39.9614 54.4296 39.9858 54.3148 40.0149C54.0071 40.1112 53.9704 40.2116 53.8177 40.4666C53.5147 41.0198 53.2076 41.7834 52.9265 42.4787C52.7691 42.8727 52.6312 43.174 52.5389 43.4872C52.5063 43.5822 52.4643 43.6013 52.4158 43.6013C52.3726 43.6013 52.295 43.5347 52.2406 43.4569C52.2033 43.3558 52.0891 42.9904 51.9962 42.7675C51.8743 42.4692 51.5772 41.7181 51.4168 41.3342C51.4115 41.3181 51.363 41.3181 51.3541 41.3449C51.1286 41.8143 50.7913 42.5328 50.512 43.2346C50.4717 43.338 50.3628 43.6197 50.28 43.6197C50.1977 43.6197 50.1444 43.5947 50.1072 43.48C50.0924 43.4319 49.9711 43.086 49.8332 42.6772C49.7616 42.4864 49.2289 41.1274 49.0283 40.6716C48.8839 40.3251 48.7697 40.1118 48.5105 40.0446C48.3779 40.0149 48.2773 39.9608 48.2773 39.9038C48.2773 39.8206 48.3709 39.7879 48.5508 39.7879C48.7052 39.7879 48.9768 39.8289 49.1798 39.8289C49.41 39.8289 49.671 39.7998 49.8326 39.7998Z" fill="white"/>
<path d="M54.9776 39.9785C55.3185 39.9042 55.7558 39.698 55.8937 39.6582C55.9351 39.6582 55.9759 39.7556 55.9759 39.7639C55.9759 39.8697 55.9227 41.0832 55.9227 41.6162C55.9227 42.1433 55.9351 42.5332 55.9404 42.86C55.9493 43.1631 56.1588 43.1744 56.3867 43.2534C56.5352 43.2998 56.5926 43.3467 56.5926 43.4145C56.5926 43.4685 56.4802 43.5036 56.379 43.5036C56.3168 43.5036 55.8493 43.4798 55.6522 43.4798C55.3439 43.4798 55.0214 43.5167 54.8622 43.5167C54.7119 43.5167 54.6172 43.4798 54.6172 43.4145C54.6172 43.3562 54.6858 43.3129 54.8456 43.2647C55.0581 43.2083 55.1989 43.0971 55.2155 42.9985C55.2415 42.8731 55.2498 42.3115 55.2498 42.0364C55.2498 42.0203 55.2575 40.6928 55.2415 40.5769C55.2338 40.5121 55.1285 40.4378 54.8616 40.2393C54.8048 40.2025 54.7876 40.1764 54.7876 40.1371C54.7888 40.07 54.8758 40.0011 54.9776 39.9785ZM56.0434 38.2587C56.0434 38.5107 55.7842 38.7127 55.5978 38.7127C55.5315 38.7127 55.3812 38.6782 55.2995 38.6004C55.2238 38.5172 55.1581 38.4156 55.1581 38.2593C55.1581 38.1725 55.1995 38.0216 55.2676 37.9188C55.3652 37.8385 55.5043 37.7952 55.6333 37.7952C55.8866 37.7946 56.0434 38.0852 56.0434 38.2587Z" fill="white"/>
<path d="M59.3978 39.7883C59.4043 39.7883 59.4973 39.8371 59.4973 39.8697C59.4973 39.8371 59.5251 40.1033 59.5251 40.221C59.5251 40.3083 59.3469 40.3261 59.2795 40.3261H58.2675C58.219 40.3261 58.1841 40.3719 58.1841 40.3897C58.1782 40.5769 58.1645 41.9544 58.1645 42.4043C58.1645 42.639 58.2184 42.7561 58.3249 42.8606C58.5007 43.0217 58.6977 43.0413 58.8913 43.0413C59.012 43.0413 59.2091 42.9831 59.3469 42.9005C59.4316 42.8535 59.447 42.8458 59.4872 42.8458C59.4973 42.8458 59.547 42.8607 59.547 42.9492C59.547 43.0223 59.4771 43.1144 59.4126 43.1756C59.1647 43.4234 58.8374 43.5963 58.4166 43.5963C58.0355 43.5963 57.7112 43.358 57.6012 43.1495C57.5 42.992 57.4775 42.7947 57.4775 42.5344C57.4775 42.1903 57.5177 40.7879 57.5177 40.4604C57.5177 40.3909 57.3508 40.3267 57.1644 40.2721C57.0887 40.2406 57.0312 40.1972 57.0312 40.1698C57.0312 40.1294 57.0602 40.0902 57.0887 40.0635C57.4124 39.802 57.7018 39.5774 57.8314 39.4187C57.9456 39.2862 58.0059 39.2125 58.0414 39.2125C58.0947 39.2125 58.1776 39.2987 58.1776 39.3195V39.7568C58.1776 39.783 58.2107 39.8305 58.2504 39.8305C58.4551 39.8293 59.3623 39.7883 59.3978 39.7883Z" fill="white"/>
<path d="M63.2943 40.1273C63.4824 40.3834 63.5647 40.7322 63.5647 41.1363C63.5724 41.7318 63.5961 42.3112 63.5996 42.8728C63.5996 43.1039 63.7245 43.1741 63.9653 43.2341C64.1524 43.2757 64.2246 43.3274 64.2246 43.3868C64.2246 43.4682 64.1523 43.5033 63.9736 43.5033C63.6552 43.5033 63.5517 43.4795 63.2357 43.4795C63.0226 43.4795 62.8392 43.4961 62.5669 43.4961C62.4302 43.4961 62.3811 43.4516 62.3811 43.3862C62.3811 43.3268 62.4651 43.2816 62.5794 43.2519C62.8102 43.1729 62.8398 43.1467 62.8735 42.7925C62.8924 42.6131 62.8735 41.5874 62.8735 41.4358C62.8735 40.923 62.8261 40.6211 62.7285 40.4999C62.5794 40.3246 62.3355 40.1944 61.971 40.1944C61.5751 40.1944 61.2632 40.3703 61.2277 40.4096C61.2111 40.4274 61.088 40.5754 61.0804 40.8671C61.0525 41.2564 61.0525 42.4782 61.0626 42.8145C61.0804 43.1223 61.2111 43.1735 61.4254 43.2335C61.549 43.2751 61.6301 43.3369 61.6301 43.3862C61.6301 43.4676 61.5242 43.4961 61.3999 43.4961C61.3236 43.4961 60.8578 43.4795 60.6294 43.4795C60.4199 43.4795 60.0808 43.5033 59.9234 43.5033C59.8435 43.5033 59.7109 43.4795 59.7109 43.3868C59.7109 43.3375 59.7879 43.2822 59.982 43.2281C60.224 43.1396 60.3187 43.0397 60.3465 42.6921C60.369 42.2975 60.4383 41.2166 60.4383 38.8181C60.4383 38.499 60.4459 38.1336 60.4087 37.8638C60.3785 37.6171 60.3619 37.5999 60.1051 37.43C60.066 37.4133 60.0098 37.3194 60.0098 37.241C60.0098 37.2077 60.0376 37.1982 60.0376 37.1982C60.3264 37.1144 60.7454 37.0211 60.9661 36.8713C61.004 36.8511 61.0886 36.8018 61.1413 36.8018C61.1792 36.8018 61.2011 36.882 61.2011 36.9112C61.1111 37.5803 61.0703 39.9128 61.0703 40.1837C61.0703 40.2396 61.1271 40.2515 61.1342 40.2396C61.5147 39.8961 61.9177 39.6988 62.3077 39.6988C62.7741 39.6976 63.0984 39.8611 63.2943 40.1273Z" fill="white"/>
<path d="M0.214229 54.0243C0.242635 53.9994 0.387624 53.9043 0.436151 53.9043C0.476393 53.9043 0.659853 53.9679 0.72495 54.0178C0.901305 54.1307 1.07825 54.2127 1.20489 54.2127C1.36586 54.2127 1.45108 54.1866 1.58068 54.0327C1.73041 53.8752 1.81503 53.6547 1.8387 53.2584C1.87954 52.6813 1.89847 51.664 1.89847 50.3382C1.89847 48.9916 1.87954 48.0354 1.8387 47.5832C1.82272 47.4019 1.77065 47.1636 1.29248 47.0781C1.07825 47.0412 1.00487 46.977 1.00487 46.9046C1.00487 46.8267 1.07884 46.7887 1.2552 46.7887C1.54399 46.7887 1.87954 46.8202 2.28847 46.8202C2.61573 46.8202 2.97968 46.7887 3.26552 46.7887C3.375 46.7887 3.51703 46.8065 3.51703 46.8861C3.51703 46.977 3.43122 47.0353 3.23711 47.0703C2.86724 47.1452 2.70627 47.2789 2.70627 47.7514C2.70627 48.5191 2.66899 51.1921 2.66899 51.9956C2.66189 53.127 2.14229 53.9507 1.66413 54.3179C1.23567 54.6418 0.846858 54.7666 0.605406 54.7666C0.297674 54.7666 0 54.5794 0 54.4023C0 54.3179 0.123093 54.1218 0.214229 54.0243Z" fill="white"/>
<path d="M10.7175 49.7495C10.7175 51.0586 10.0742 51.9756 9.3966 52.4629C8.81013 52.8717 8.03666 53.006 7.56619 53.006C6.61695 53.006 5.71151 52.5912 5.1422 51.9381C4.65101 51.3831 4.37109 50.6302 4.37109 49.8226C4.37109 48.6721 4.87471 47.8746 5.5819 47.3047C6.03995 46.9291 6.84065 46.6487 7.49103 46.6487C9.2741 46.6492 10.7175 47.9697 10.7175 49.7495ZM6.00326 47.4919C5.59611 47.893 5.27654 48.6008 5.27654 49.696C5.27654 51.0878 6.30152 52.6905 7.78811 52.6905C8.55744 52.6905 8.91666 52.3506 9.01785 52.2347C9.38832 51.9013 9.80908 51.1412 9.80908 50.0318C9.80908 49.0114 9.36938 48.0285 8.67876 47.4675C8.29764 47.1555 7.71236 46.96 7.28568 46.96C6.89332 46.96 6.32461 47.1645 6.00326 47.4919Z" fill="white"/>
<path d="M13.3343 49.5875C13.8817 49.5875 15.1482 49.5625 16.7916 49.5625C16.8537 49.5625 16.8792 49.5072 16.8952 49.3218C16.9058 49.1964 16.9058 47.9705 16.8798 47.6026C16.8543 47.2627 16.7833 47.1843 16.3673 47.0708C16.2347 47.0357 16.1365 46.9781 16.1365 46.8889C16.1365 46.8271 16.2276 46.7891 16.4199 46.7891C16.5424 46.7891 17.1366 46.8069 17.3704 46.8069C17.6899 46.8069 18.116 46.7814 18.2178 46.7814C18.3652 46.7814 18.48 46.82 18.48 46.8889C18.48 46.9389 18.4048 47.0054 18.2107 47.0524C17.8207 47.1451 17.7456 47.3132 17.7248 47.5836C17.6793 48.0638 17.6521 49.0818 17.6521 50.6756C17.6521 51.0868 17.6893 51.9211 17.6893 52.059C17.7053 52.4227 17.8012 52.4631 18.2172 52.5831C18.3486 52.633 18.4309 52.6978 18.4309 52.7632C18.4309 52.8375 18.348 52.8654 18.1728 52.8654C18.0231 52.8654 17.6893 52.8375 17.4011 52.8375C17.1958 52.8375 16.4945 52.8969 16.3105 52.8969C16.1702 52.8969 16.0773 52.8725 16.0773 52.7887C16.0773 52.7061 16.1797 52.6509 16.2809 52.6229C16.7827 52.469 16.8306 52.3674 16.862 51.706C16.8786 51.3126 16.894 50.6648 16.894 50.1972C16.894 50.032 16.862 49.9999 16.7821 49.9999C15.3441 49.9999 13.5077 49.9755 13.326 49.991C13.2965 49.991 13.2219 50.0759 13.2219 50.149C13.2024 50.3957 13.2219 51.5907 13.2219 51.8653C13.2302 52.3032 13.3331 52.4696 13.7249 52.592C13.9309 52.6515 13.9948 52.6907 14.0025 52.781C14.0137 52.8559 13.8527 52.8725 13.7338 52.8725C13.6657 52.8725 13.1023 52.8375 12.7668 52.8375C12.5526 52.8375 12.1573 52.8725 11.8442 52.8725C11.6406 52.8725 11.5625 52.8375 11.5625 52.781C11.5625 52.6907 11.6779 52.6336 11.7773 52.6021C12.2549 52.4833 12.3235 52.3864 12.3626 52.0209C12.3952 51.6394 12.4484 50.5799 12.4484 49.0562C12.4484 48.8892 12.4697 48.0287 12.4484 47.6133C12.4336 47.2978 12.3756 47.1641 11.9821 47.0791C11.7897 47.0423 11.7211 46.9781 11.7211 46.9056C11.7211 46.8366 11.8442 46.7992 11.9933 46.7992C12.2549 46.7992 12.5975 46.8206 12.836 46.8206C13.2308 46.8206 13.5083 46.7992 13.7249 46.7992C13.9184 46.7992 14.0179 46.8473 14.0179 46.9056C14.0179 46.9977 13.9462 47.0423 13.751 47.0791C13.3178 47.1647 13.2834 47.3055 13.2538 47.6995C13.2302 48.0067 13.2219 49.2416 13.2302 49.4044C13.2402 49.5768 13.2686 49.5875 13.3343 49.5875Z" fill="white"/>
<path d="M19.3775 46.7896C19.5822 46.7896 20.0391 46.8211 20.5143 46.8211C20.5664 46.8211 20.6504 46.887 20.7102 46.9393C20.8486 47.1117 21.0842 47.3868 21.4446 47.8682C21.8636 48.4018 23.9094 50.6469 24.532 51.3327C24.5923 51.3844 24.6273 51.2947 24.6273 51.2673C24.6734 50.969 24.6432 49.957 24.6432 48.6092C24.6432 48.2871 24.6272 47.9609 24.5988 47.6715C24.5923 47.4754 24.5231 47.2549 24.0136 47.0998C23.8277 47.0427 23.7585 46.9702 23.7585 46.8894C23.7585 46.8276 23.8905 46.8074 24.0053 46.8074C24.2467 46.8074 24.5006 46.8205 24.8042 46.8205C25.1392 46.8205 25.4356 46.7819 25.6795 46.7819C25.8351 46.7819 25.8878 46.8074 25.8878 46.887C25.8878 46.9393 25.8351 47.0279 25.6664 47.0713C25.2688 47.1646 25.0965 47.2549 25.0693 47.7523C25.0539 48.0946 24.9723 49.9356 24.9723 51.5484C24.9723 51.9394 25.0326 52.6418 25.0326 52.7898C25.0326 52.8843 24.9894 52.9853 24.9042 52.9853C24.7734 52.9853 24.5687 52.7993 24.4834 52.6912C24.329 52.4927 24.1574 52.2502 23.9076 51.9394C23.0336 50.8929 21.4203 49.0644 20.5853 48.0571C20.5498 48.0072 20.4871 48.0292 20.4871 48.0744C20.4699 48.3281 20.4427 48.5902 20.4362 49.3223C20.4362 50.1608 20.4119 51.6007 20.4267 51.8937C20.4628 52.3221 20.5652 52.4642 21.0126 52.5925C21.2108 52.6418 21.2487 52.7072 21.2487 52.7643C21.2487 52.8564 21.1274 52.8843 20.9475 52.8843C20.6794 52.8843 20.2918 52.8385 19.9533 52.8385C19.7515 52.8385 19.5059 52.8564 19.3496 52.8564C19.2171 52.8564 19.107 52.8469 19.107 52.753C19.107 52.6828 19.2017 52.6234 19.2911 52.5919C19.7331 52.4439 19.9077 52.4071 19.9456 51.7142C19.9929 50.9577 20.1237 48.7084 20.1237 47.9329C20.1237 47.5936 20.0746 47.5152 20.0533 47.4843C19.7941 47.1747 19.6947 47.1646 19.2757 47.0528C19.1745 47.0279 19.0703 46.978 19.0703 46.9055C19.0721 46.8276 19.1603 46.7896 19.3775 46.7896Z" fill="white"/>
<path d="M29.7609 46.8211C29.8171 46.8366 29.8763 46.9786 29.8763 46.9982C29.8929 47.1747 29.968 47.7185 29.968 47.7523C29.968 47.9164 29.968 48.0073 29.8988 48.0073C29.8319 48.0073 29.7195 47.9455 29.6792 47.8118C29.5662 47.476 29.3129 47.1914 29.223 47.1391C29.0543 47.0065 28.8318 46.9239 28.5637 46.9239C27.9382 46.9239 27.4931 47.3875 27.4931 48.018C27.4931 48.683 27.9666 48.9741 28.788 49.5268C29.5041 50.0099 30.0692 50.499 30.0692 51.3423C30.0692 51.8093 29.81 52.3341 29.3058 52.6651C29.0105 52.857 28.4584 52.9996 28.0394 52.9996C27.7429 52.9996 27.115 52.898 26.8203 52.7536C26.728 52.6995 26.6055 52.4933 26.6055 52.4565C26.5658 52.138 26.4688 51.7261 26.4688 51.5776C26.4688 51.5401 26.5658 51.3975 26.5978 51.3975C26.6759 51.3975 26.812 51.6412 26.9422 51.9312C27.1872 52.4446 27.7985 52.6835 28.153 52.6835C28.7951 52.6835 29.2756 52.2176 29.2756 51.5491C29.2756 51.1545 29.0916 50.7314 28.1145 50.108C27.3274 49.5886 26.7664 49.0484 26.7664 48.2533C26.7664 47.8124 26.9647 47.3881 27.2754 47.1129C27.5677 46.8491 28.0056 46.6506 28.6554 46.6506C29.1111 46.6494 29.5952 46.7896 29.7609 46.8211Z" fill="white"/>
<path d="M34.4357 49.5875C34.9854 49.5875 36.2465 49.5625 37.8941 49.5625C37.9515 49.5625 37.9835 49.5072 37.9983 49.3218C38.0059 49.1964 38.006 47.9705 37.9835 47.6026C37.9515 47.2627 37.8846 47.1843 37.4668 47.0708C37.3349 47.0357 37.2337 46.9781 37.2337 46.8889C37.2337 46.8271 37.3283 46.7891 37.523 46.7891C37.6438 46.7891 38.2409 46.8069 38.4723 46.8069C38.7901 46.8069 39.2156 46.7814 39.3162 46.7814C39.4683 46.7814 39.5766 46.82 39.5766 46.8889C39.5766 46.9389 39.5044 47.0054 39.3109 47.0524C38.9191 47.1451 38.8439 47.3132 38.8238 47.5836C38.7765 48.0638 38.7528 49.0818 38.7528 50.6756C38.7528 51.0868 38.7895 51.9211 38.7895 52.059C38.8043 52.4227 38.8984 52.4631 39.3156 52.5831C39.4446 52.633 39.5322 52.6978 39.5322 52.7632C39.5322 52.8375 39.4452 52.8654 39.2712 52.8654C39.1256 52.8654 38.7895 52.8375 38.4995 52.8375C38.2912 52.8375 37.5941 52.8969 37.4088 52.8969C37.2745 52.8969 37.1751 52.8725 37.1751 52.7887C37.1751 52.7061 37.2828 52.6509 37.3816 52.6229C37.8829 52.469 37.9284 52.3674 37.9598 51.706C37.9823 51.3126 37.9971 50.6648 37.9971 50.1972C37.9971 50.032 37.9598 49.9999 37.8834 49.9999C36.4418 49.9999 34.6067 49.9755 34.4226 49.991C34.3984 49.991 34.3226 50.0759 34.3226 50.149C34.3078 50.3957 34.3226 51.5907 34.3226 51.8653C34.3297 52.3032 34.4345 52.4696 34.8262 52.592C35.028 52.6515 35.0931 52.6907 35.1068 52.781C35.115 52.8559 34.9547 52.8725 34.8316 52.8725C34.7671 52.8725 34.2001 52.8375 33.8658 52.8375C33.6527 52.8375 33.2627 52.8725 32.9437 52.8725C32.7443 52.8725 32.668 52.8375 32.668 52.781C32.668 52.6907 32.7751 52.6336 32.8822 52.6021C33.3533 52.4833 33.4296 52.3864 33.4627 52.0209C33.4923 51.6394 33.5444 50.5799 33.5444 49.0562C33.5444 48.8892 33.5669 48.0287 33.5444 47.6133C33.529 47.2978 33.4781 47.1641 33.0822 47.0791C32.8899 47.0423 32.823 46.9781 32.823 46.9056C32.823 46.8366 32.9437 46.7992 33.0958 46.7992C33.3533 46.7992 33.6983 46.8206 33.9409 46.8206C34.3297 46.8206 34.6067 46.7992 34.8257 46.7992C35.0186 46.7992 35.1221 46.8473 35.1221 46.9056C35.1221 46.9977 35.0488 47.0423 34.8487 47.0791C34.4155 47.1647 34.3842 47.3055 34.3558 47.6995C34.3291 48.0067 34.322 49.2416 34.3291 49.4044C34.3386 49.5768 34.3694 49.5875 34.4357 49.5875Z" fill="white"/>
<path d="M46.8544 49.7495C46.8544 51.0586 46.2076 51.9756 45.5318 52.4629C44.9459 52.8717 44.1724 53.006 43.7008 53.006C42.748 53.006 41.8485 52.5912 41.2774 51.9381C40.7838 51.3831 40.5039 50.6302 40.5039 49.8226C40.5039 48.6721 41.0075 47.8746 41.7123 47.3047C42.1722 46.9291 42.9735 46.6487 43.6227 46.6487C45.4158 46.6492 46.8544 47.9697 46.8544 49.7495ZM42.1361 47.4919C41.726 47.893 41.4093 48.6008 41.4093 49.696C41.4093 51.0878 42.4337 52.6905 43.9233 52.6905C44.692 52.6905 45.0471 52.3506 45.1471 52.2347C45.5223 51.9013 45.9431 51.1412 45.9431 50.0318C45.9431 49.0114 45.5052 48.0285 44.8151 47.4675C44.431 47.1555 43.844 46.96 43.4179 46.96C43.0279 46.96 42.4592 47.1645 42.1361 47.4919Z" fill="white"/>
<path d="M49.7551 47.0186C49.6557 47.0186 49.5628 47.0536 49.4906 47.1C49.4533 47.1291 49.4048 47.2414 49.3906 47.4678C49.3823 47.6645 49.3823 48.8234 49.3764 49.8996C49.3764 50.7523 49.3906 51.5397 49.3906 51.7703C49.4048 52.3782 49.4776 52.4555 49.9492 52.5921C50.1309 52.6415 50.2067 52.6908 50.2067 52.7716C50.2067 52.8566 50.0338 52.8839 49.8936 52.8839C49.6652 52.8839 49.3302 52.8465 48.9207 52.8465C48.6514 52.8465 48.2715 52.8839 47.9786 52.8839C47.82 52.8839 47.7188 52.8382 47.7188 52.7526C47.7188 52.6908 47.8117 52.6337 47.9034 52.6022C48.4236 52.4834 48.5301 52.3033 48.555 51.9117C48.5845 51.463 48.6017 50.6858 48.6017 50.2169C48.6017 49.9091 48.5846 47.9219 48.5745 47.6229C48.568 47.2896 48.5745 47.1553 48.0567 47.0792C47.8673 47.0531 47.7685 46.9978 47.7685 46.9396C47.7685 46.8647 47.8602 46.8213 47.9786 46.8076C48.0419 46.7993 48.1999 46.8076 48.2857 46.8076C48.6591 46.8076 49.3758 46.7381 49.8409 46.7381C50.6854 46.7381 51.2358 46.9604 51.5796 47.2902C52.0294 47.7186 52.1199 48.2523 52.1199 48.5613C52.1199 49.3915 51.7388 49.7765 51.4713 50.0095C51.2275 50.2181 50.7961 50.4243 50.399 50.4243C50.2972 50.4243 50.054 50.4148 49.9031 50.3625C49.7954 50.3102 49.7474 50.265 49.7474 50.2056C49.7474 50.1676 49.7883 50.1242 49.8569 50.1242H50.0942C50.5824 50.1242 51.2766 49.6838 51.2766 48.6088C51.276 47.7519 50.6345 47.0186 49.7551 47.0186Z" fill="white"/>
<path d="M53.2 46.7894C53.4148 46.7894 53.8113 46.8209 54.1084 46.8209C54.3901 46.8209 54.7511 46.7995 54.9801 46.7995C55.1316 46.7995 55.2263 46.828 55.2263 46.9136C55.2263 46.9896 55.1085 47.036 54.9606 47.0711C54.6404 47.1382 54.5304 47.2202 54.5114 47.5875C54.483 47.9446 54.483 49.4707 54.5031 49.5996C54.5114 49.6359 54.5304 49.6638 54.5706 49.6638C54.6073 49.6638 54.6978 49.5996 54.7049 49.5996C55.0032 49.3714 56.491 47.9161 56.7839 47.5875C57.0248 47.3141 56.9851 47.1643 56.6797 47.0794C56.5643 47.0425 56.4655 47.0182 56.4655 46.9397C56.4655 46.8553 56.5643 46.8215 56.7093 46.8215C56.8833 46.8215 56.8934 46.8286 57.062 46.8286C57.2863 46.8286 58.1799 46.7828 58.4409 46.7828C58.6048 46.7828 58.6806 46.8215 58.6806 46.8904C58.6806 46.9528 58.5693 47.0289 58.4255 47.0633C57.9006 47.175 57.6728 47.326 57.078 47.7836C56.6448 48.13 55.434 49.2425 55.3228 49.4219C55.3038 49.4772 55.2914 49.4897 55.3228 49.5146C55.5287 49.7767 57.1082 51.3972 57.8077 52.1193C58.2356 52.5513 58.4498 52.5673 58.7865 52.6244C58.8877 52.6523 58.9688 52.7159 58.9688 52.7539C58.9688 52.8478 58.8398 52.8983 58.7392 52.8983C58.4912 52.8983 57.6284 52.8229 57.3733 52.8229C57.0419 52.8229 56.9407 52.827 56.7271 52.827C56.5969 52.827 56.5294 52.726 56.5294 52.6654C56.5294 52.6161 56.5661 52.5763 56.9324 52.502C56.9709 52.4937 56.9958 52.4372 56.9798 52.4093C56.6963 52.0503 55.4524 50.7323 54.9683 50.239C54.7168 49.9663 54.6227 49.8468 54.5481 49.8468C54.5055 49.8468 54.5138 49.9663 54.5055 50.0394C54.4854 50.2194 54.5138 51.7354 54.5221 52.0824C54.5327 52.3237 54.6617 52.4663 55.0807 52.5769C55.2476 52.6167 55.292 52.685 55.292 52.7486C55.292 52.8241 55.2044 52.868 55.0529 52.868C54.8511 52.868 54.1995 52.8401 53.9096 52.8401C53.6125 52.8401 53.3036 52.868 53.0053 52.868C52.8988 52.868 52.7852 52.8134 52.7852 52.7486C52.7852 52.666 52.8556 52.6363 53.0526 52.5864C53.5101 52.4948 53.6876 52.3635 53.7149 51.8109C53.722 51.4917 53.7403 50.6128 53.7403 49.602C53.7403 48.1051 53.722 47.9351 53.703 47.5958C53.6882 47.2731 53.5628 47.1667 53.1899 47.0734C52.9787 47.0205 52.9526 46.9623 52.9526 46.916C52.9497 46.8274 53.0568 46.7894 53.2 46.7894Z" fill="white"/>
<path d="M60.3353 47.7361C60.3128 47.3058 60.3128 47.165 59.7849 47.0717C59.5813 47.0366 59.5269 46.9707 59.5269 46.9065C59.5269 46.8287 59.6304 46.7906 59.7594 46.7906C60.0009 46.7906 60.4643 46.8221 60.775 46.8221C61.2289 46.8221 61.4431 46.7906 61.7698 46.7906C61.9189 46.7906 62.0047 46.8287 62.0047 46.9065C62.0047 46.979 61.9094 47.0372 61.7615 47.0634C61.2194 47.1751 61.2289 47.4098 61.1886 47.6654C61.1472 47.9714 61.1348 48.5793 61.1348 50.4156C61.1348 50.9261 61.1472 51.5072 61.1632 51.8097C61.1886 52.3166 61.2366 52.4931 61.8426 52.6155C62.0118 52.6423 62.0834 52.7077 62.0834 52.7724C62.0834 52.8479 61.9443 52.8984 61.8343 52.8984C61.3585 52.8984 60.7004 52.839 60.4465 52.839C60.1672 52.839 60.0814 52.8568 59.7387 52.8568C59.5647 52.8568 59.4961 52.7902 59.4961 52.7255C59.4961 52.6643 59.5949 52.6031 59.779 52.5668C60.2423 52.464 60.282 52.322 60.3199 51.8834C60.3477 51.5566 60.3631 50.5814 60.3631 49.7851C60.3625 49.2051 60.356 48.0475 60.3353 47.7361Z" fill="white"/>
<path d="M62.8543 46.7896C63.059 46.7896 63.5082 46.8211 63.9917 46.8211C64.0414 46.8211 64.1248 46.887 64.1858 46.9393C64.3237 47.1117 64.5545 47.3868 64.9167 47.8682C65.3374 48.4018 67.3827 50.6469 68.0094 51.3327C68.062 51.3844 68.0987 51.2947 68.0987 51.2673C68.1467 50.969 68.1212 49.957 68.1212 48.6092C68.1212 48.2871 68.0987 47.9609 68.0733 47.6715C68.0614 47.4754 67.9963 47.2549 67.4874 47.0998C67.2986 47.0427 67.2312 46.9702 67.2312 46.8894C67.2312 46.8276 67.3667 46.8074 67.4791 46.8074C67.7176 46.8074 67.9762 46.8205 68.278 46.8205C68.6094 46.8205 68.9095 46.7819 69.1509 46.7819C69.3107 46.7819 69.3657 46.8074 69.3657 46.887C69.3657 46.9393 69.3107 47.0279 69.1438 47.0713C68.7414 47.1646 68.5781 47.2549 68.5503 47.7523C68.5266 48.0946 68.4437 49.9356 68.4437 51.5484C68.4437 51.9394 68.51 52.6418 68.51 52.7898C68.51 52.8843 68.4645 52.9853 68.3804 52.9853C68.2473 52.9853 68.0472 52.7993 67.9614 52.6912C67.8011 52.4927 67.6353 52.2502 67.3827 51.9394C66.5121 50.8929 64.8995 49.0644 64.0603 48.0571C64.026 48.0072 63.9609 48.0292 63.9609 48.0744C63.9526 48.3281 63.9195 48.5902 63.9112 49.3223C63.9112 50.1608 63.884 51.6007 63.9041 51.8937C63.9408 52.3221 64.0426 52.4642 64.4929 52.5925C64.6823 52.6418 64.7249 52.7072 64.7249 52.7643C64.7249 52.8564 64.6024 52.8843 64.4243 52.8843C64.1532 52.8843 63.7662 52.8385 63.4265 52.8385C63.2277 52.8385 62.9815 52.8564 62.83 52.8564C62.6945 52.8564 62.5856 52.8469 62.5856 52.753C62.5856 52.6828 62.6785 52.6234 62.772 52.5919C63.204 52.4439 63.3833 52.4071 63.4253 51.7142C63.4644 50.9577 63.597 48.7084 63.597 47.9329C63.597 47.5936 63.549 47.5152 63.5313 47.4843C63.2715 47.1747 63.1709 47.1646 62.7525 47.0528C62.6477 47.0279 62.543 46.978 62.543 46.9055C62.543 46.8276 62.6388 46.7896 62.8543 46.7896Z" fill="white"/>
<path d="M73.2398 46.8211C73.2919 46.8366 73.3464 46.9786 73.3464 46.9982C73.3683 47.1747 73.4404 47.7185 73.4404 47.7523C73.4404 47.9164 73.4404 48.0073 73.3801 48.0073C73.299 48.0073 73.1901 47.9455 73.1564 47.8118C73.0428 47.476 72.7865 47.1914 72.6983 47.1391C72.532 47.0065 72.3083 46.9239 72.0367 46.9239C71.4141 46.9239 70.9697 47.3875 70.9697 48.018C70.9697 48.683 71.4408 48.9741 72.2616 49.5268C72.9777 50.0099 73.5476 50.499 73.5476 51.3423C73.5476 51.8093 73.2848 52.3341 72.78 52.6651C72.4853 52.857 71.9326 52.9996 71.5165 52.9996C71.2194 52.9996 70.5868 52.898 70.2974 52.7536C70.2016 52.6995 70.0832 52.4933 70.0832 52.4565C70.0382 52.138 69.9453 51.7261 69.9453 51.5776C69.9453 51.5401 70.0382 51.3975 70.0761 51.3975C70.1519 51.3975 70.288 51.6412 70.4199 51.9312C70.662 52.4446 71.2727 52.6835 71.6296 52.6835C72.2711 52.6835 72.7557 52.2176 72.7557 51.5491C72.7557 51.1545 72.5687 50.7314 71.5935 50.108C70.8005 49.5886 70.2406 49.0484 70.2406 48.2533C70.2406 47.8124 70.433 47.3881 70.7507 47.1129C71.0431 46.8491 71.4781 46.6506 72.1344 46.6506C72.5859 46.6494 73.07 46.7896 73.2398 46.8211Z" fill="white"/>
<path d="M76.5435 46.7988C77.1459 46.7988 77.2466 46.8202 77.7863 46.8202C77.8076 46.8202 77.8798 46.8885 77.8922 46.9384C78.0017 47.289 78.0597 47.3859 78.2461 47.79C78.7651 48.8917 79.8445 51.141 79.9747 51.3199C79.9937 51.349 80.0487 51.3805 80.0682 51.349C80.1487 51.1915 81.888 47.8857 82.0424 47.4911C82.0531 47.4536 82.2016 47.1375 82.2543 46.9515C82.2667 46.9051 82.3407 46.8202 82.3585 46.8202C82.6905 46.8202 83.4468 46.7887 83.5296 46.7887C83.6486 46.7887 83.7734 46.8065 83.7734 46.8885C83.7734 46.9592 83.6959 47.0175 83.5296 47.0418C83.3823 47.0703 83.2515 47.1108 83.1083 47.1636C82.9727 47.2195 82.823 47.4019 82.823 47.8857C82.823 50.4879 82.9236 51.6717 82.9544 51.9379C83.0088 52.3598 83.1089 52.4543 83.5592 52.5827C83.7285 52.6219 83.8084 52.6974 83.8084 52.7627C83.8084 52.837 83.6788 52.8828 83.5367 52.8828C83.4361 52.8828 82.7206 52.837 82.3739 52.837C82.2016 52.837 81.8886 52.865 81.6696 52.865C81.5672 52.865 81.4175 52.8251 81.4175 52.7318C81.4175 52.6498 81.5323 52.6011 81.6619 52.5655C82.043 52.4543 82.0596 52.2339 82.0874 51.8922C82.1247 51.4679 82.1087 48.7586 82.0803 48.2773C82.0714 48.2422 82.043 48.1555 82.0016 48.2226C81.8832 48.4288 80.8399 50.4879 80.4766 51.2551C80.2493 51.7406 80.0392 52.2255 79.9007 52.591C79.8007 52.865 79.7522 52.8549 79.6865 52.8549C79.6321 52.8549 79.5776 52.78 79.5463 52.6813C79.4812 52.443 79.3806 52.1358 79.203 51.6836C78.7012 50.4487 77.9372 48.972 77.5927 48.1751C77.5655 48.1097 77.5389 48.102 77.5271 48.2036C77.4537 48.6 77.3537 50.9568 77.3815 51.8179C77.3945 52.2927 77.475 52.4228 77.9455 52.572C78.1544 52.6332 78.1982 52.6712 78.1982 52.752C78.1982 52.8251 78.094 52.865 77.9455 52.865C77.6484 52.865 77.2596 52.837 77.0163 52.837C76.7956 52.837 76.5015 52.865 76.2701 52.865C76.1346 52.865 76.0352 52.837 76.0352 52.7318C76.0352 52.6974 76.0955 52.6326 76.2162 52.6011C76.7956 52.4341 76.8506 52.2761 76.9258 51.7406C77.0163 51.0917 77.2247 48.4009 77.2394 47.6985C77.2394 47.6218 77.2247 47.2694 76.8211 47.1541C76.6642 47.1108 76.5447 47.0697 76.4234 47.0418C76.3518 47.0276 76.2701 46.9592 76.2701 46.8885C76.2695 46.7988 76.3358 46.7988 76.5435 46.7988Z" fill="white"/>
<path d="M87.6411 46.8213C87.9524 46.8213 88.3554 46.8082 88.5004 46.7898C88.5223 46.782 88.5714 46.848 88.5827 46.8896C88.5827 47.3252 88.5969 47.5938 88.5969 47.7828C88.5969 47.9165 88.5454 48.0288 88.4643 48.0288C88.3767 48.0288 88.3335 47.8927 88.3104 47.8024C88.1956 47.3056 87.9879 47.2111 87.6896 47.1647C87.4446 47.1285 86.7771 47.1118 86.3652 47.1285C86.3492 47.1285 86.2516 47.1742 86.2285 47.387C86.2102 47.6229 86.18 49.3831 86.1989 49.5263C86.2102 49.5632 86.2208 49.619 86.2664 49.619H86.8682C87.7453 49.619 87.7825 49.5774 87.9524 49.1555C88.0051 49.0123 88.0601 48.9529 88.1175 48.9529C88.1838 48.9529 88.2015 49.0824 88.1956 49.1567C88.1743 49.4211 88.1631 49.6089 88.1631 49.8341C88.1631 50.0867 88.1838 50.218 88.1956 50.4058C88.2015 50.5734 88.1548 50.6768 88.0855 50.6768C88.0222 50.6768 87.9601 50.5734 87.9287 50.4718C87.7991 50.038 87.7624 50.0094 87.1943 49.9821C86.8984 49.9649 86.5268 49.9649 86.2735 49.9649C86.2368 49.9649 86.1894 50.0326 86.1894 50.0487C86.1516 50.2436 86.1587 51.1154 86.1587 51.5177C86.1587 51.7916 86.1977 52.1464 86.2581 52.295C86.2954 52.4085 86.3646 52.4845 86.4315 52.5018C86.5919 52.5297 86.9114 52.5677 87.2777 52.5677C87.3896 52.5677 87.9595 52.5588 88.1625 52.5018C88.4637 52.4251 88.7129 52.251 88.933 51.8101C89.0419 51.6015 89.094 51.5498 89.1466 51.5498C89.2141 51.5498 89.2413 51.6977 89.2248 51.8011C89.2141 51.8754 88.9507 52.7169 88.8874 52.8007C88.8608 52.8399 88.775 52.9148 88.7288 52.9148C88.6276 52.9148 87.2227 52.8399 85.7083 52.8399C85.2112 52.8399 85.01 52.8857 84.6573 52.8857C84.4792 52.8857 84.375 52.8678 84.375 52.7656C84.375 52.7008 84.4851 52.6533 84.6342 52.6165C85.097 52.5024 85.2733 52.437 85.3171 51.9325C85.3432 51.5414 85.3864 50.4326 85.3864 49.2744C85.3864 48.1583 85.3976 47.9628 85.381 47.6942C85.3597 47.2818 85.2674 47.1665 84.8585 47.0732C84.6644 47.0304 84.5886 46.9918 84.5886 46.9157C84.5886 46.8296 84.7147 46.7838 84.8461 46.7838C85.2834 46.7838 85.6474 46.8224 86.2729 46.8224H87.6411V46.8213Z" fill="white"/>
<path d="M95.1914 47.6449C95.6962 48.1287 96.0383 48.9731 96.0383 49.7124C96.0383 51.0702 95.2038 52.0484 94.5517 52.4162C94.0019 52.733 93.2308 52.9416 92.3354 52.9416C91.9579 52.9416 91.1252 52.913 90.5121 52.8661C90.3358 52.856 90.1677 52.856 90.0191 52.856C89.8055 52.856 89.7227 52.7894 89.7227 52.7151C89.7227 52.6415 89.8138 52.5921 89.9286 52.5838C90.5713 52.5095 90.6145 52.333 90.6435 51.5908C90.6601 51.1534 90.6731 50.8628 90.6731 50.3102C90.6731 49.7765 90.653 48.6736 90.6228 47.9058C90.6033 47.3056 90.5944 47.1749 90.028 47.0911C89.9286 47.0715 89.8144 47.0061 89.8144 46.9396C89.8144 46.8647 89.9008 46.8213 90.0363 46.8213H90.2991C90.7642 46.8213 91.8164 46.7381 92.6153 46.7381C93.9197 46.7381 94.821 47.2979 95.1914 47.6449ZM91.5667 47.0994C91.4998 47.1458 91.4773 47.1642 91.472 47.22C91.4554 47.3365 91.4371 48.1697 91.4371 49.0004V50.3548C91.4371 51.0108 91.4436 51.5664 91.472 51.9759C91.4998 52.2677 91.6519 52.3984 91.675 52.4156C91.8525 52.5499 92.2348 52.6635 92.4396 52.6635C92.8692 52.6635 93.6575 52.4917 94.1806 52.0478C94.7357 51.576 95.1388 50.7588 95.1388 49.7118C95.1388 48.9071 94.7357 48.0282 94.1374 47.5772C93.6788 47.229 92.8965 47.0275 92.2094 47.0275C91.8738 47.0281 91.6519 47.0531 91.5667 47.0994Z" fill="white"/>
<path d="M97.7436 47.7361C97.7188 47.3058 97.7188 47.165 97.1974 47.0717C96.9926 47.0366 96.9382 46.9707 96.9382 46.9065C96.9382 46.8287 97.0376 46.7906 97.169 46.7906C97.4128 46.7906 97.8803 46.8221 98.1822 46.8221C98.6414 46.8221 98.855 46.7906 99.1793 46.7906C99.329 46.7906 99.4101 46.8287 99.4101 46.9065C99.4101 46.979 99.3184 47.0372 99.1693 47.0634C98.6301 47.1751 98.642 47.4098 98.6011 47.6654C98.5574 47.9714 98.5443 48.5793 98.5443 50.4156C98.5443 50.9261 98.5568 51.5072 98.571 51.8097C98.6011 52.3166 98.6509 52.4931 99.2509 52.6155C99.4178 52.6423 99.4924 52.7077 99.4924 52.7724C99.4924 52.8479 99.3533 52.8984 99.2438 52.8984C98.7674 52.8984 98.1088 52.839 97.859 52.839C97.5773 52.839 97.4921 52.8568 97.1495 52.8568C96.9725 52.8568 96.9062 52.7902 96.9062 52.7255C96.9062 52.6643 97.0033 52.6031 97.1873 52.5668C97.6519 52.464 97.6886 52.322 97.7288 51.8834C97.7584 51.5566 97.7732 50.5814 97.7732 49.7851C97.7726 49.2051 97.7643 48.0475 97.7436 47.7361Z" fill="white"/>
<path d="M104.938 46.7989C105.179 46.8363 105.504 46.9599 105.641 46.9778C105.688 46.9778 105.785 47.0419 105.785 47.2624C105.785 47.4544 105.829 47.868 105.849 48.0736C105.854 48.2679 105.785 48.3832 105.711 48.3832C105.661 48.3832 105.605 48.2774 105.556 48.1372C105.473 47.8103 105.297 47.5334 105.179 47.4371C104.664 47.0526 104.191 46.9516 103.686 46.9516C102.194 46.9516 101.232 48.1954 101.232 49.608C101.232 50.2367 101.352 50.74 101.562 51.153C102.077 52.2263 103.159 52.6512 103.91 52.6512C104.089 52.6512 104.547 52.6232 104.923 52.3986C105.335 52.1835 105.565 51.8828 105.793 51.4894C105.911 51.2945 105.949 51.2434 105.985 51.2434C106.082 51.2434 106.093 51.4543 106.073 51.5559C106.044 51.7907 105.83 52.2881 105.698 52.5002C105.661 52.584 105.505 52.6987 105.411 52.7462C105.26 52.8068 104.511 53.0065 103.716 53.0065C102.407 53.0065 101.446 52.3504 101.072 51.9113C100.72 51.4971 100.293 50.8256 100.293 49.7589C100.293 48.6892 100.924 47.8394 101.317 47.515C102.119 46.8553 102.979 46.6491 103.84 46.6491C104.163 46.6491 104.58 46.7181 104.938 46.7989Z" fill="white"/>
<path d="M107.741 47.7361C107.715 47.3058 107.715 47.165 107.196 47.0717C106.988 47.0366 106.935 46.9707 106.935 46.9065C106.935 46.8287 107.034 46.7906 107.165 46.7906C107.409 46.7906 107.873 46.8221 108.183 46.8221C108.635 46.8221 108.851 46.7906 109.175 46.7906C109.329 46.7906 109.406 46.8287 109.406 46.9065C109.406 46.979 109.315 47.0372 109.165 47.0634C108.629 47.1751 108.635 47.4098 108.602 47.6654C108.556 47.9714 108.545 48.5793 108.545 50.4156C108.545 50.9261 108.556 51.5072 108.572 51.8097C108.602 52.3166 108.644 52.4931 109.254 52.6155C109.42 52.6423 109.494 52.7077 109.494 52.7724C109.494 52.8479 109.354 52.8984 109.241 52.8984C108.772 52.8984 108.108 52.839 107.857 52.839C107.574 52.839 107.492 52.8568 107.148 52.8568C106.972 52.8568 106.906 52.7902 106.906 52.7255C106.906 52.6643 107 52.6031 107.187 52.5668C107.651 52.464 107.692 52.322 107.721 51.8834C107.755 51.5566 107.771 50.5814 107.771 49.7851C107.771 49.2051 107.763 48.0475 107.741 47.7361Z" fill="white"/>
<path d="M110.268 46.7896C110.468 46.7896 110.926 46.8211 111.403 46.8211C111.458 46.8211 111.54 46.887 111.597 46.9393C111.738 47.1117 111.968 47.3868 112.332 47.8682C112.749 48.4018 114.794 50.6469 115.421 51.3327C115.476 51.3844 115.514 51.2947 115.514 51.2673C115.559 50.969 115.53 49.957 115.53 48.6092C115.53 48.2871 115.514 47.9609 115.483 47.6715C115.475 47.4754 115.414 47.2549 114.898 47.0998C114.711 47.0427 114.653 46.9702 114.653 46.8894C114.653 46.8276 114.776 46.8074 114.891 46.8074C115.132 46.8074 115.394 46.8205 115.691 46.8205C116.023 46.8205 116.321 46.7819 116.565 46.7819C116.726 46.7819 116.779 46.8074 116.779 46.887C116.779 46.9393 116.726 47.0279 116.552 47.0713C116.156 47.1646 115.987 47.2549 115.956 47.7523C115.942 48.0946 115.856 49.9356 115.856 51.5484C115.856 51.9394 115.925 52.6418 115.925 52.7898C115.925 52.8843 115.876 52.9853 115.793 52.9853C115.661 52.9853 115.457 52.7993 115.371 52.6912C115.215 52.4927 115.049 52.2502 114.794 51.9394C113.922 50.8929 112.311 49.0644 111.471 48.0571C111.436 48.0072 111.374 48.0292 111.374 48.0744C111.359 48.3281 111.336 48.5902 111.327 49.3223C111.327 50.1608 111.295 51.6007 111.318 51.8937C111.352 52.3221 111.457 52.4642 111.901 52.5925C112.1 52.6418 112.138 52.7072 112.138 52.7643C112.138 52.8564 112.013 52.8843 111.834 52.8843C111.564 52.8843 111.174 52.8385 110.839 52.8385C110.637 52.8385 110.392 52.8564 110.236 52.8564C110.104 52.8564 109.995 52.8469 109.995 52.753C109.995 52.6828 110.085 52.6234 110.176 52.5919C110.617 52.4439 110.796 52.4071 110.83 51.7142C110.876 50.9577 111.006 48.7084 111.006 47.9329C111.006 47.5936 110.962 47.5152 110.944 47.4843C110.687 47.1747 110.581 47.1646 110.16 47.0528C110.06 47.0279 109.961 46.978 109.961 46.9055C109.962 46.8276 110.053 46.7896 110.268 46.7896Z" fill="white"/>
<path d="M120.515 46.8213C120.819 46.8213 121.23 46.8082 121.375 46.7898C121.4 46.782 121.446 46.848 121.46 46.8896C121.46 47.3252 121.475 47.5938 121.475 47.7828C121.475 47.9165 121.423 48.0288 121.338 48.0288C121.253 48.0288 121.205 47.8927 121.187 47.8024C121.064 47.3056 120.859 47.2111 120.567 47.1647C120.321 47.1285 119.655 47.1118 119.243 47.1285C119.218 47.1285 119.118 47.1742 119.105 47.387C119.086 47.6229 119.056 49.3831 119.077 49.5263C119.086 49.5632 119.097 49.619 119.142 49.619H119.746C120.62 49.619 120.659 49.5774 120.819 49.1555C120.882 49.0123 120.936 48.9529 120.994 48.9529C121.055 48.9529 121.074 49.0824 121.064 49.1567C121.048 49.4211 121.039 49.6089 121.039 49.8341C121.039 50.0867 121.055 50.218 121.064 50.4058C121.074 50.5734 121.027 50.6768 120.964 50.6768C120.899 50.6768 120.834 50.5734 120.803 50.4718C120.676 50.038 120.639 50.0094 120.068 49.9821C119.773 49.9649 119.401 49.9649 119.149 49.9649C119.112 49.9649 119.067 50.0326 119.067 50.0487C119.027 50.2436 119.035 51.1154 119.035 51.5177C119.035 51.7916 119.076 52.1464 119.134 52.295C119.167 52.4085 119.243 52.4845 119.305 52.5018C119.463 52.5297 119.782 52.5677 120.157 52.5677C120.264 52.5677 120.834 52.5588 121.039 52.5018C121.337 52.4251 121.588 52.251 121.813 51.8101C121.912 51.6015 121.97 51.5498 122.023 51.5498C122.094 51.5498 122.115 51.6977 122.099 51.8011C122.094 51.8754 121.83 52.7169 121.762 52.8007C121.733 52.8399 121.651 52.9148 121.604 52.9148C121.504 52.9148 120.096 52.8399 118.584 52.8399C118.086 52.8399 117.883 52.8857 117.531 52.8857C117.354 52.8857 117.25 52.8678 117.25 52.7656C117.25 52.7008 117.362 52.6533 117.511 52.6165C117.977 52.5024 118.153 52.437 118.189 51.9325C118.219 51.5414 118.263 50.4326 118.263 49.2744C118.263 48.1583 118.272 47.9628 118.254 47.6942C118.238 47.2818 118.145 47.1665 117.733 47.0732C117.537 47.0304 117.465 46.9918 117.465 46.9157C117.465 46.8296 117.598 46.7838 117.724 46.7838C118.166 46.7838 118.525 46.8224 119.148 46.8224H120.515V46.8213Z" fill="white"/>
</svg>
