<svg width="24" height="25" viewBox="0 0 24 25" fill="none" xmlns="http://www.w3.org/2000/svg">
<path d="M15 13.2695H8C7.59 13.2695 7.25 12.9295 7.25 12.5195C7.25 12.1095 7.59 11.7695 8 11.7695H15C15.41 11.7695 15.75 12.1095 15.75 12.5195C15.75 12.9295 15.41 13.2695 15 13.2695Z" fill="white"/>
<path d="M12.38 17.2695H8C7.59 17.2695 7.25 16.9295 7.25 16.5195C7.25 16.1095 7.59 15.7695 8 15.7695H12.38C12.79 15.7695 13.13 16.1095 13.13 16.5195C13.13 16.9295 12.79 17.2695 12.38 17.2695Z" fill="white"/>
<path d="M14 7.06836H10C9.04 7.06836 7.25 7.06836 7.25 4.31836C7.25 1.56836 9.04 1.56836 10 1.56836H14C14.96 1.56836 16.75 1.56836 16.75 4.31836C16.75 5.27836 16.75 7.06836 14 7.06836ZM10 3.06836C9.01 3.06836 8.75 3.06836 8.75 4.31836C8.75 5.56836 9.01 5.56836 10 5.56836H14C15.25 5.56836 15.25 5.30836 15.25 4.31836C15.25 3.06836 14.99 3.06836 14 3.06836H10Z" fill="white"/>
<path d="M15 23.0688H9C3.38 23.0688 2.25 20.4888 2.25 16.3187V10.3188C2.25 5.75878 3.9 3.80878 7.96 3.59878C8.36 3.57878 8.73 3.88878 8.75 4.30878C8.77 4.72878 8.45 5.06878 8.04 5.08878C5.2 5.24878 3.75 6.09878 3.75 10.3188V16.3187C3.75 20.0187 4.48 21.5688 9 21.5688H15C19.52 21.5688 20.25 20.0187 20.25 16.3187V10.3188C20.25 6.09878 18.8 5.24878 15.96 5.08878C15.55 5.06878 15.23 4.70878 15.25 4.29878C15.27 3.88878 15.63 3.56878 16.04 3.58878C20.1 3.80878 21.75 5.75878 21.75 10.3088V16.3087C21.75 20.4887 20.62 23.0688 15 23.0688Z" fill="white"/>
</svg>
