<svg width="22" height="22" viewBox="0 0 22 22" fill="none" xmlns="http://www.w3.org/2000/svg">
<path d="M7.33337 5.27051C6.95753 5.27051 6.64587 4.95884 6.64587 4.58301V1.83301C6.64587 1.45717 6.95753 1.14551 7.33337 1.14551C7.7092 1.14551 8.02087 1.45717 8.02087 1.83301V4.58301C8.02087 4.95884 7.7092 5.27051 7.33337 5.27051Z" fill="#A4ABB6"/>
<path d="M14.6666 5.27051C14.2908 5.27051 13.9791 4.95884 13.9791 4.58301V1.83301C13.9791 1.45717 14.2908 1.14551 14.6666 1.14551C15.0425 1.14551 15.3541 1.45717 15.3541 1.83301V4.58301C15.3541 4.95884 15.0425 5.27051 14.6666 5.27051Z" fill="#A4ABB6"/>
<path d="M7.79167 13.2921C7.6725 13.2921 7.55333 13.2646 7.44333 13.2188C7.32417 13.1729 7.2325 13.1088 7.14083 13.0263C6.97583 12.8521 6.875 12.6229 6.875 12.3754C6.875 12.2563 6.9025 12.1371 6.94833 12.0271C6.99417 11.9171 7.05833 11.8163 7.14083 11.7246C7.2325 11.6421 7.32417 11.5779 7.44333 11.5321C7.77333 11.3946 8.18583 11.4679 8.4425 11.7246C8.6075 11.8988 8.70833 12.1371 8.70833 12.3754C8.70833 12.4304 8.69917 12.4946 8.69 12.5588C8.68083 12.6138 8.6625 12.6688 8.635 12.7238C8.61667 12.7788 8.58917 12.8338 8.5525 12.8888C8.525 12.9346 8.47917 12.9804 8.4425 13.0263C8.26833 13.1913 8.03 13.2921 7.79167 13.2921Z" fill="#A4ABB6"/>
<path d="M11 13.2913C10.8809 13.2913 10.7617 13.2638 10.6517 13.218C10.5325 13.1721 10.4409 13.108 10.3492 13.0255C10.1842 12.8513 10.0834 12.6221 10.0834 12.3746C10.0834 12.2555 10.1109 12.1363 10.1567 12.0263C10.2025 11.9163 10.2667 11.8155 10.3492 11.7238C10.4409 11.6413 10.5325 11.5771 10.6517 11.5313C10.9817 11.3846 11.3942 11.4671 11.6509 11.7238C11.8159 11.898 11.9167 12.1363 11.9167 12.3746C11.9167 12.4296 11.9075 12.4938 11.8984 12.558C11.8892 12.613 11.8709 12.668 11.8434 12.723C11.825 12.778 11.7975 12.833 11.7609 12.888C11.7334 12.9338 11.6875 12.9796 11.6509 13.0255C11.4767 13.1905 11.2384 13.2913 11 13.2913Z" fill="#A4ABB6"/>
<path d="M14.2083 13.2913C14.0891 13.2913 13.97 13.2638 13.86 13.218C13.7408 13.1721 13.6491 13.108 13.5575 13.0255C13.5208 12.9796 13.4841 12.9338 13.4475 12.888C13.4108 12.833 13.3833 12.778 13.365 12.723C13.3375 12.668 13.3191 12.613 13.31 12.558C13.3008 12.4938 13.2916 12.4296 13.2916 12.3746C13.2916 12.1363 13.3925 11.898 13.5575 11.7238C13.6491 11.6413 13.7408 11.5771 13.86 11.5313C14.1991 11.3846 14.6025 11.4671 14.8591 11.7238C15.0241 11.898 15.125 12.1363 15.125 12.3746C15.125 12.4296 15.1158 12.4938 15.1066 12.558C15.0975 12.613 15.0791 12.668 15.0516 12.723C15.0333 12.778 15.0058 12.833 14.9691 12.888C14.9416 12.9338 14.8958 12.9796 14.8591 13.0255C14.685 13.1905 14.4466 13.2913 14.2083 13.2913Z" fill="#A4ABB6"/>
<path d="M7.79167 16.4995C7.6725 16.4995 7.55333 16.4721 7.44333 16.4263C7.33333 16.3804 7.2325 16.3162 7.14083 16.2337C6.97583 16.0595 6.875 15.8212 6.875 15.5829C6.875 15.4637 6.9025 15.3445 6.94833 15.2345C6.99417 15.1154 7.05833 15.0146 7.14083 14.9321C7.48 14.5929 8.10333 14.5929 8.4425 14.9321C8.6075 15.1063 8.70833 15.3445 8.70833 15.5829C8.70833 15.8212 8.6075 16.0595 8.4425 16.2337C8.26833 16.3987 8.03 16.4995 7.79167 16.4995Z" fill="#A4ABB6"/>
<path d="M11 16.4995C10.7617 16.4995 10.5234 16.3987 10.3492 16.2337C10.1842 16.0595 10.0834 15.8212 10.0834 15.5829C10.0834 15.4637 10.1109 15.3445 10.1567 15.2345C10.2025 15.1154 10.2667 15.0146 10.3492 14.9321C10.6884 14.5929 11.3117 14.5929 11.6509 14.9321C11.7334 15.0146 11.7975 15.1154 11.8434 15.2345C11.8892 15.3445 11.9167 15.4637 11.9167 15.5829C11.9167 15.8212 11.8159 16.0595 11.6509 16.2337C11.4767 16.3987 11.2384 16.4995 11 16.4995Z" fill="#A4ABB6"/>
<path d="M14.2083 16.5002C13.97 16.5002 13.7316 16.3993 13.5575 16.2343C13.475 16.1518 13.4108 16.051 13.365 15.9318C13.3191 15.8218 13.2916 15.7027 13.2916 15.5835C13.2916 15.4643 13.3191 15.3452 13.365 15.2352C13.4108 15.116 13.475 15.0152 13.5575 14.9327C13.7683 14.7218 14.0891 14.621 14.3825 14.6852C14.4466 14.6943 14.5016 14.7127 14.5566 14.7402C14.6116 14.7585 14.6666 14.786 14.7216 14.8227C14.7675 14.8502 14.8133 14.896 14.8591 14.9327C15.0241 15.1068 15.125 15.3452 15.125 15.5835C15.125 15.8218 15.0241 16.0602 14.8591 16.2343C14.685 16.3993 14.4466 16.5002 14.2083 16.5002Z" fill="#A4ABB6"/>
<path d="M18.7917 9.01953H3.20837C2.83253 9.01953 2.52087 8.70786 2.52087 8.33203C2.52087 7.9562 2.83253 7.64453 3.20837 7.64453H18.7917C19.1675 7.64453 19.4792 7.9562 19.4792 8.33203C19.4792 8.70786 19.1675 9.01953 18.7917 9.01953Z" fill="#A4ABB6"/>
<path d="M14.6667 20.8538H7.33333C3.9875 20.8538 2.0625 18.9288 2.0625 15.583V7.79134C2.0625 4.44551 3.9875 2.52051 7.33333 2.52051H14.6667C18.0125 2.52051 19.9375 4.44551 19.9375 7.79134V15.583C19.9375 18.9288 18.0125 20.8538 14.6667 20.8538ZM7.33333 3.89551C4.71167 3.89551 3.4375 5.16967 3.4375 7.79134V15.583C3.4375 18.2047 4.71167 19.4788 7.33333 19.4788H14.6667C17.2883 19.4788 18.5625 18.2047 18.5625 15.583V7.79134C18.5625 5.16967 17.2883 3.89551 14.6667 3.89551H7.33333Z" fill="#A4ABB6"/>
</svg>
