<svg width="20" height="20" viewBox="0 0 20 20" fill="none" xmlns="http://www.w3.org/2000/svg">
<path d="M13.5591 17.9806C13.3173 17.9806 13.0661 17.9708 12.7963 17.9415C12.3126 17.9025 11.7637 17.8049 11.1963 17.6586L9.6334 17.2683C5.34482 16.2048 3.94011 13.8241 4.9448 9.33594L5.85647 5.2478C6.06113 4.32091 6.303 3.56962 6.60068 2.94518C8.20078 -0.518524 11.2614 -0.206312 13.4382 0.330318L14.9918 0.710838C17.1686 1.24747 18.5454 2.09632 19.3175 3.394C20.0803 4.69167 20.2013 6.36009 19.6896 8.6432L18.778 12.7216C17.9779 16.2926 16.3127 17.9806 13.5591 17.9806ZM11.0567 1.46212C9.50316 1.46212 8.51707 2.13536 7.85655 3.57938C7.61468 4.10625 7.40072 4.75996 7.21466 5.57954L6.303 9.66768C5.47506 13.3558 6.43324 14.9657 9.94969 15.8438L11.5125 16.2341C12.0149 16.3609 12.4893 16.439 12.9173 16.478C15.4476 16.7414 16.7035 15.5804 17.4105 12.3899L18.3221 8.31146C18.7408 6.4284 18.6849 5.11122 18.1268 4.16479C17.5686 3.21836 16.4709 2.57442 14.6662 2.13536L13.1126 1.75483C12.3405 1.55969 11.6521 1.46212 11.0567 1.46212Z" fill="#2399D5"/>
<path d="M6.6 20C4.20921 20 2.68355 18.4974 1.70677 15.3264L0.516019 11.4724C-0.804961 7.17943 0.376479 4.75972 4.45107 3.37424L5.9209 2.87663C6.40464 2.72052 6.76744 2.6132 7.09304 2.55465C7.36282 2.49611 7.6233 2.60344 7.78145 2.82785C7.9396 3.05226 7.9675 3.34496 7.85587 3.59864C7.614 4.11576 7.40003 4.76947 7.22328 5.58905L6.31162 9.67717C5.48368 13.3653 6.44185 14.9752 9.9583 15.8533L11.5212 16.2436C12.0235 16.3704 12.4979 16.4485 12.9259 16.4875C13.2236 16.5168 13.4654 16.7314 13.5492 17.0339C13.6236 17.3363 13.5119 17.6486 13.2701 17.8242C12.6561 18.2633 11.884 18.634 10.9072 18.9658L9.43735 19.4731C8.36754 19.8244 7.43724 20 6.6 20ZM6.08835 4.35968L4.8883 4.76947C1.56723 5.89152 0.776495 7.53068 1.84631 11.0236L3.03706 14.8776C4.11617 18.3608 5.67904 19.1999 9.00012 18.0779L10.47 17.5705C10.5258 17.551 10.5723 17.5315 10.6281 17.512L9.64201 17.268C5.35344 16.2045 3.94872 13.8239 4.95341 9.33568L5.86508 5.24756C5.93021 4.93534 6.00462 4.63288 6.08835 4.35968Z" fill="#2399D5"/>
<path d="M15.1222 8.5455C15.0663 8.5455 15.0105 8.53574 14.9454 8.52599L10.4336 7.32591C10.0615 7.22834 9.83822 6.8283 9.93124 6.43803C10.0243 6.04775 10.4057 5.81359 10.7778 5.91115L15.2896 7.11125C15.6617 7.20882 15.885 7.60886 15.792 7.99913C15.7175 8.32109 15.4291 8.5455 15.1222 8.5455Z" fill="#2399D5"/>
<path d="M12.3956 11.8434C12.3397 11.8434 12.2839 11.8337 12.2188 11.8239L9.51172 11.1019C9.13961 11.0043 8.91634 10.6043 9.00937 10.214C9.1024 9.82375 9.48381 9.58959 9.85592 9.68716L12.563 10.4092C12.9351 10.5067 13.1584 10.9068 13.0654 11.297C12.9909 11.6288 12.7119 11.8434 12.3956 11.8434Z" fill="#2399D5"/>
</svg>
