<svg width="100" height="100" viewBox="0 0 100 100" fill="none" xmlns="http://www.w3.org/2000/svg">
<path d="M50 94.7914C25.2917 94.7914 5.20834 74.708 5.20834 49.9997C5.20834 25.2913 25.2917 5.20801 50 5.20801C74.7084 5.20801 94.7917 25.2913 94.7917 49.9997C94.7917 74.708 74.7084 94.7914 50 94.7914ZM50 11.458C28.75 11.458 11.4583 28.7497 11.4583 49.9997C11.4583 71.2497 28.75 88.5414 50 88.5414C71.25 88.5414 88.5417 71.2497 88.5417 49.9997C88.5417 28.7497 71.25 11.458 50 11.458Z" fill="#2CC2A7"/>
<path d="M44.0813 64.9183C43.2479 64.9183 42.4563 64.585 41.8729 64.0016L30.0811 52.21C28.8727 51.0016 28.8727 49.0016 30.0811 47.7933C31.2894 46.585 33.2894 46.585 34.4977 47.7933L44.0813 57.3766L65.4979 35.96C66.7063 34.7516 68.7063 34.7516 69.9146 35.96C71.1229 37.1683 71.1229 39.1683 69.9146 40.3766L46.2896 64.0016C45.7063 64.585 44.9146 64.9183 44.0813 64.9183Z" fill="#2CC2A7"/>
</svg>
