<svg width="34" height="34" viewBox="0 0 34 34" fill="none" xmlns="http://www.w3.org/2000/svg">
<g filter="url(#filter0_d_7_2296)">
<circle cx="17" cy="14" r="14" fill="white"/>
</g>
<path d="M20.332 19.8334H16.9987C16.7254 19.8334 16.4987 19.6067 16.4987 19.3334C16.4987 19.06 16.7254 18.8334 16.9987 18.8334H20.332C22.2387 18.8334 23.1654 17.9067 23.1654 16V12C23.1654 10.0934 22.2387 9.16669 20.332 9.16669H13.6654C11.7587 9.16669 10.832 10.0934 10.832 12V13.3334C10.832 13.6067 10.6054 13.8334 10.332 13.8334C10.0587 13.8334 9.83203 13.6067 9.83203 13.3334V12C9.83203 9.56669 11.232 8.16669 13.6654 8.16669H20.332C22.7654 8.16669 24.1654 9.56669 24.1654 12V16C24.1654 18.4334 22.7654 19.8334 20.332 19.8334Z" fill="#3C4E69"/>
<path d="M16.9987 16.1666C15.8054 16.1666 14.832 15.1933 14.832 14C14.832 12.8066 15.8054 11.8333 16.9987 11.8333C18.192 11.8333 19.1654 12.8066 19.1654 14C19.1654 15.1933 18.192 16.1666 16.9987 16.1666ZM16.9987 12.8333C16.3587 12.8333 15.832 13.36 15.832 14C15.832 14.64 16.3587 15.1666 16.9987 15.1666C17.6387 15.1666 18.1654 14.64 18.1654 14C18.1654 13.36 17.6387 12.8333 16.9987 12.8333Z" fill="#3C4E69"/>
<path d="M21.332 16.1666C21.0587 16.1666 20.832 15.94 20.832 15.6666V12.3333C20.832 12.06 21.0587 11.8333 21.332 11.8333C21.6054 11.8333 21.832 12.06 21.832 12.3333V15.6666C21.832 15.94 21.6054 16.1666 21.332 16.1666Z" fill="#3C4E69"/>
<path d="M14.6654 18.46C14.392 18.46 14.1654 18.2333 14.1654 17.96V17.1066C14.1654 16.96 14.0454 16.8333 13.8921 16.8333H10.332C10.0587 16.8333 9.83203 16.6066 9.83203 16.3333C9.83203 16.06 10.0587 15.8333 10.332 15.8333H13.8921C14.5921 15.8333 15.1654 16.4066 15.1654 17.1066V17.96C15.1654 18.2333 14.9387 18.46 14.6654 18.46Z" fill="#3C4E69"/>
<path d="M11.1476 17.6465C11.0209 17.6465 10.8943 17.5998 10.7943 17.4998L9.98094 16.6866C9.7876 16.4932 9.7876 16.1732 9.98094 15.9798L10.7943 15.1665C10.9876 14.9732 11.3076 14.9732 11.501 15.1665C11.6943 15.3598 11.6943 15.6798 11.501 15.8732L11.041 16.3332L11.501 16.7932C11.6943 16.9865 11.6943 17.3065 11.501 17.4998C11.401 17.5998 11.2743 17.6465 11.1476 17.6465Z" fill="#3C4E69"/>
<path d="M14.6654 20.3532H11.1053C10.4053 20.3532 9.83203 19.7799 9.83203 19.0799V18.2266C9.83203 17.9532 10.0587 17.7266 10.332 17.7266C10.6054 17.7266 10.832 17.9532 10.832 18.2266V19.0799C10.832 19.2266 10.952 19.3532 11.1053 19.3532H14.6654C14.9387 19.3532 15.1654 19.5799 15.1654 19.8532C15.1654 20.1266 14.9387 20.3532 14.6654 20.3532Z" fill="#3C4E69"/>
<path d="M13.8538 21.1667C13.7272 21.1667 13.6005 21.12 13.5005 21.02C13.3071 20.8267 13.3071 20.5066 13.5005 20.3133L13.9605 19.8534L13.5005 19.3934C13.3071 19.2 13.3071 18.88 13.5005 18.6867C13.6938 18.4934 14.0138 18.4934 14.2071 18.6867L15.0205 19.5C15.2138 19.6934 15.2138 20.0134 15.0205 20.2067L14.2071 21.02C14.1138 21.12 13.9805 21.1667 13.8538 21.1667Z" fill="#3C4E69"/>
<defs>
<filter id="filter0_d_7_2296" x="0" y="0" width="34" height="34" filterUnits="userSpaceOnUse" color-interpolation-filters="sRGB">
<feFlood flood-opacity="0" result="BackgroundImageFix"/>
<feColorMatrix in="SourceAlpha" type="matrix" values="0 0 0 0 0 0 0 0 0 0 0 0 0 0 0 0 0 0 127 0" result="hardAlpha"/>
<feOffset dy="3"/>
<feGaussianBlur stdDeviation="1.5"/>
<feComposite in2="hardAlpha" operator="out"/>
<feColorMatrix type="matrix" values="0 0 0 0 0 0 0 0 0 0 0 0 0 0 0 0 0 0 0.03 0"/>
<feBlend mode="normal" in2="BackgroundImageFix" result="effect1_dropShadow_7_2296"/>
<feBlend mode="normal" in="SourceGraphic" in2="effect1_dropShadow_7_2296" result="shape"/>
</filter>
</defs>
</svg>
