<svg width="64" height="64" viewBox="0 0 64 64" fill="none" xmlns="http://www.w3.org/2000/svg">
<path d="M32 36.6667C30.9067 36.6667 30 35.76 30 34.6667V20.6667C30 19.5734 30.9067 18.6667 32 18.6667C33.0933 18.6667 34 19.5734 34 20.6667V34.6667C34 35.76 33.0933 36.6667 32 36.6667Z" fill="#3C4E69"/>
<path d="M32.0007 46.0001C31.2807 46.0001 30.614 45.7335 30.1073 45.2268C29.8673 44.9601 29.6807 44.6668 29.5207 44.3468C29.3873 44.0268 29.334 43.6801 29.334 43.3335C29.334 42.6401 29.6273 41.9468 30.1073 41.4401C31.094 40.4535 32.9073 40.4535 33.894 41.4401C34.374 41.9468 34.6673 42.6401 34.6673 43.3335C34.6673 43.6801 34.5873 44.0268 34.454 44.3468C34.3207 44.6668 34.134 44.9601 33.894 45.2268C33.3873 45.7335 32.7207 46.0001 32.0007 46.0001Z" fill="#3C4E69"/>
<path d="M31.9999 60.6669C30.2132 60.6669 28.3999 60.2136 26.7999 59.2803L10.9598 50.1336C7.75979 48.2669 5.75977 44.8269 5.75977 41.1203V22.8803C5.75977 19.1736 7.75979 15.7336 10.9598 13.867L26.7999 4.72031C29.9999 2.85365 33.9732 2.85365 37.1999 4.72031L53.0399 13.867C56.2399 15.7336 58.2399 19.1736 58.2399 22.8803V41.1203C58.2399 44.8269 56.2399 48.2669 53.0399 50.1336L37.1999 59.2803C35.5999 60.2136 33.7865 60.6669 31.9999 60.6669ZM31.9999 7.33359C30.9065 7.33359 29.7865 7.62693 28.7999 8.18693L12.9598 17.3336C10.9865 18.4803 9.75977 20.587 9.75977 22.8803V41.1203C9.75977 43.3869 10.9865 45.5203 12.9598 46.6669L28.7999 55.8136C30.7732 56.9603 33.2265 56.9603 35.1732 55.8136L51.0132 46.6669C52.9865 45.5203 54.2132 43.4136 54.2132 41.1203V22.8803C54.2132 20.6136 52.9865 18.4803 51.0132 17.3336L35.1732 8.18693C34.2132 7.62693 33.0932 7.33359 31.9999 7.33359Z" fill="#3C4E69"/>
</svg>
