<svg width="18" height="18" viewBox="0 0 18 18" fill="none" xmlns="http://www.w3.org/2000/svg">
<path d="M8.99985 17.0626C8.12235 17.0626 7.30482 16.7251 6.68982 16.1101L1.89731 11.3176C1.28231 10.7026 0.944824 9.87762 0.944824 9.00762C0.944824 8.13762 1.28231 7.31261 1.89731 6.69761L6.68982 1.90511C7.30482 1.29011 8.12985 0.952637 8.99985 0.952637C9.86985 0.952637 10.6948 1.29011 11.3098 1.90511L16.1023 6.69761C16.7173 7.31261 17.0548 8.13762 17.0548 9.00762C17.0548 9.87762 16.7173 10.7026 16.1023 11.3176L11.3098 16.1101C10.6948 16.7251 9.87735 17.0626 8.99985 17.0626ZM8.99985 2.06262C8.42235 2.06262 7.88235 2.28764 7.48482 2.68514L2.69231 7.4776C2.28731 7.88262 2.06982 8.42262 2.06982 8.99262C2.06982 9.56262 2.29481 10.1101 2.69231 10.5076L7.48482 15.3001C8.28735 16.1026 9.71227 16.1026 10.5148 15.3001L15.3073 10.5076C15.7123 10.1026 15.9298 9.57012 15.9298 8.99262C15.9298 8.41512 15.7048 7.87512 15.3073 7.4776L10.5148 2.68514C10.1173 2.28764 9.57735 2.06262 8.99985 2.06262Z" fill="#17A1FA"/>
<path d="M13.3121 13.8751C13.1696 13.8751 13.0271 13.8226 12.9146 13.7101L4.28959 5.08512C4.07209 4.86762 4.07209 4.50758 4.28959 4.29008C4.50709 4.07258 4.86709 4.07258 5.08459 4.29008L13.7096 12.915C13.9271 13.1326 13.9271 13.4926 13.7096 13.7101C13.5971 13.8226 13.4546 13.8751 13.3121 13.8751Z" fill="#17A1FA"/>
<path d="M4.68709 13.8751C4.54459 13.8751 4.40209 13.8226 4.28959 13.7101C4.07209 13.4926 4.07209 13.1326 4.28959 12.915L12.9146 4.29008C13.1321 4.07258 13.4921 4.07258 13.7096 4.29008C13.9271 4.50758 13.9271 4.86762 13.7096 5.08512L5.08459 13.7101C4.97209 13.8226 4.82959 13.8751 4.68709 13.8751Z" fill="#17A1FA"/>
</svg>
