<svg width="938" height="151" viewBox="0 0 938 151" fill="none" xmlns="http://www.w3.org/2000/svg">
<g filter="url(#filter0_d_4041_16195)">
<path d="M134.635 98.4308C142.779 97.6271 147.335 108.49 141.077 114H94.1562C88.1204 103.723 95.5669 90.0457 106.454 92.7C115.184 78.463 131.352 86.0909 134.635 98.4308H134.635Z" fill="white"/>
</g>
<g filter="url(#filter1_d_4041_16195)">
<path d="M97.0379 82.0207C100.483 81.6604 102.411 86.5298 99.7633 89H79.9123C77.3586 84.3931 80.5091 78.2619 85.1153 79.4517C88.8085 73.0696 95.6491 76.489 97.0378 82.0207H97.0379Z" fill="white"/>
</g>
<g filter="url(#filter2_d_4041_16195)">
<path d="M737.976 42.1889C744.084 41.5792 747.502 49.8196 742.808 54H707.617C703.09 46.2036 708.675 35.8278 716.841 37.8413C723.388 27.0409 735.514 32.8275 737.976 42.1889H737.976Z" fill="white"/>
</g>
<g filter="url(#filter3_d_4041_16195)">
<path d="M763.038 32.0207C766.483 31.6604 768.411 36.5298 765.763 39H745.912C743.359 34.3931 746.509 28.2619 751.115 29.4517C754.808 23.0696 761.649 26.489 763.038 32.0207H763.038Z" fill="white"/>
</g>
<g filter="url(#filter4_d_4041_16195)">
<path d="M814.464 76.1873C816.838 74.1403 819.866 73.0098 823 73C829.389 73 834.692 77.75 835.269 83.8751C839.05 84.4095 842 87.5754 842 91.4609C842 95.7264 838.442 99.125 834.132 99.125H812.98C808.056 99.125 804 95.2442 804 90.3802C804 86.1931 807.007 82.7256 810.987 81.8469C811.327 79.7972 812.645 77.7548 814.464 76.1873Z" fill="white"/>
</g>
<g filter="url(#filter5_d_4041_16195)">
<path d="M367 108.8C367 112.775 363.677 116 359.58 116H341.606C338.509 116 336 113.563 336 110.558C336 107.557 338.509 105.12 341.606 105.12C341.833 105.12 342.053 105.138 342.271 105.162C342.213 104.777 342.183 104.388 342.183 103.998C342.183 99.5815 345.873 96 350.429 96C354.16 96 357.309 98.4031 358.328 101.703C358.742 101.636 359.162 101.602 359.582 101.602C363.677 101.602 367 104.822 367 108.8Z" fill="white"/>
</g>
<g filter="url(#filter6_d_4041_16195)">
<path d="M61 37.8C61 41.7754 57.6768 45 53.5802 45H35.6063C32.5094 45 30 42.5631 30 39.5585C30 36.5569 32.5094 34.12 35.6063 34.12C35.8327 34.12 36.0527 34.1385 36.2713 34.1615C36.2127 33.7766 36.1831 33.3878 36.183 32.9985C36.183 28.5815 39.8735 25 44.4289 25C48.1598 25 51.3094 27.4031 52.3277 30.7031C52.7423 30.6356 53.1616 30.6016 53.5817 30.6015C57.6768 30.6015 61 33.8215 61 37.8Z" fill="white"/>
</g>
<g filter="url(#filter7_d_4041_16195)">
<path d="M908 43.8C908 47.7754 904.677 51 900.58 51H882.606C879.509 51 877 48.5631 877 45.5585C877 42.5569 879.509 40.12 882.606 40.12C882.833 40.12 883.053 40.1385 883.271 40.1615C883.213 39.7766 883.183 39.3878 883.183 38.9985C883.183 34.5815 886.873 31 891.429 31C895.16 31 898.309 33.4031 899.328 36.7031C899.742 36.6356 900.162 36.6016 900.582 36.6015C904.677 36.6015 908 39.8215 908 43.8Z" fill="white"/>
</g>
<g filter="url(#filter8_d_4041_16195)">
<path d="M216.88 44.9906C217.085 44.4413 217.2 43.8406 217.2 43.2143C217.2 40.4933 215.05 38.2857 212.4 38.2857C211.415 38.2857 210.495 38.5938 209.735 39.1174C208.35 36.6531 205.765 35 202.8 35C198.38 35 194.8 38.6759 194.8 43.2143C194.8 43.3529 194.805 43.4915 194.81 43.6301C192.01 44.6415 190 47.383 190 50.6071C190 54.6886 193.225 58 197.2 58H215.6C219.135 58 222 55.0583 222 51.4286C222 48.2507 219.8 45.5964 216.88 44.9906Z" fill="white"/>
</g>
<defs>
<filter id="filter0_d_4041_16195" x="62" y="60" width="112" height="89" filterUnits="userSpaceOnUse" color-interpolation-filters="sRGB">
<feFlood flood-opacity="0" result="BackgroundImageFix"/>
<feColorMatrix in="SourceAlpha" type="matrix" values="0 0 0 0 0 0 0 0 0 0 0 0 0 0 0 0 0 0 127 0" result="hardAlpha"/>
<feOffset dy="5"/>
<feGaussianBlur stdDeviation="15"/>
<feComposite in2="hardAlpha" operator="out"/>
<feColorMatrix type="matrix" values="0 0 0 0 0.458824 0 0 0 0 0.752941 0 0 0 0 0.917647 0 0 0 0.2 0"/>
<feBlend mode="normal" in2="BackgroundImageFix" result="effect1_dropShadow_4041_16195"/>
<feBlend mode="normal" in="SourceGraphic" in2="effect1_dropShadow_4041_16195" result="shape"/>
</filter>
<filter id="filter1_d_4041_16195" x="49" y="51" width="82" height="73" filterUnits="userSpaceOnUse" color-interpolation-filters="sRGB">
<feFlood flood-opacity="0" result="BackgroundImageFix"/>
<feColorMatrix in="SourceAlpha" type="matrix" values="0 0 0 0 0 0 0 0 0 0 0 0 0 0 0 0 0 0 127 0" result="hardAlpha"/>
<feOffset dy="5"/>
<feGaussianBlur stdDeviation="15"/>
<feComposite in2="hardAlpha" operator="out"/>
<feColorMatrix type="matrix" values="0 0 0 0 0.458824 0 0 0 0 0.752941 0 0 0 0 0.917647 0 0 0 0.2 0"/>
<feBlend mode="normal" in2="BackgroundImageFix" result="effect1_dropShadow_4041_16195"/>
<feBlend mode="normal" in="SourceGraphic" in2="effect1_dropShadow_4041_16195" result="shape"/>
</filter>
<filter id="filter2_d_4041_16195" x="676" y="7" width="99" height="82" filterUnits="userSpaceOnUse" color-interpolation-filters="sRGB">
<feFlood flood-opacity="0" result="BackgroundImageFix"/>
<feColorMatrix in="SourceAlpha" type="matrix" values="0 0 0 0 0 0 0 0 0 0 0 0 0 0 0 0 0 0 127 0" result="hardAlpha"/>
<feOffset dy="5"/>
<feGaussianBlur stdDeviation="15"/>
<feComposite in2="hardAlpha" operator="out"/>
<feColorMatrix type="matrix" values="0 0 0 0 0.458824 0 0 0 0 0.752941 0 0 0 0 0.917647 0 0 0 0.2 0"/>
<feBlend mode="normal" in2="BackgroundImageFix" result="effect1_dropShadow_4041_16195"/>
<feBlend mode="normal" in="SourceGraphic" in2="effect1_dropShadow_4041_16195" result="shape"/>
</filter>
<filter id="filter3_d_4041_16195" x="715" y="1" width="82" height="73" filterUnits="userSpaceOnUse" color-interpolation-filters="sRGB">
<feFlood flood-opacity="0" result="BackgroundImageFix"/>
<feColorMatrix in="SourceAlpha" type="matrix" values="0 0 0 0 0 0 0 0 0 0 0 0 0 0 0 0 0 0 127 0" result="hardAlpha"/>
<feOffset dy="5"/>
<feGaussianBlur stdDeviation="15"/>
<feComposite in2="hardAlpha" operator="out"/>
<feColorMatrix type="matrix" values="0 0 0 0 0.458824 0 0 0 0 0.752941 0 0 0 0 0.917647 0 0 0 0.2 0"/>
<feBlend mode="normal" in2="BackgroundImageFix" result="effect1_dropShadow_4041_16195"/>
<feBlend mode="normal" in="SourceGraphic" in2="effect1_dropShadow_4041_16195" result="shape"/>
</filter>
<filter id="filter4_d_4041_16195" x="774" y="48" width="98" height="86.125" filterUnits="userSpaceOnUse" color-interpolation-filters="sRGB">
<feFlood flood-opacity="0" result="BackgroundImageFix"/>
<feColorMatrix in="SourceAlpha" type="matrix" values="0 0 0 0 0 0 0 0 0 0 0 0 0 0 0 0 0 0 127 0" result="hardAlpha"/>
<feOffset dy="5"/>
<feGaussianBlur stdDeviation="15"/>
<feComposite in2="hardAlpha" operator="out"/>
<feColorMatrix type="matrix" values="0 0 0 0 0.458824 0 0 0 0 0.752941 0 0 0 0 0.917647 0 0 0 0.2 0"/>
<feBlend mode="normal" in2="BackgroundImageFix" result="effect1_dropShadow_4041_16195"/>
<feBlend mode="normal" in="SourceGraphic" in2="effect1_dropShadow_4041_16195" result="shape"/>
</filter>
<filter id="filter5_d_4041_16195" x="306" y="71" width="91" height="80" filterUnits="userSpaceOnUse" color-interpolation-filters="sRGB">
<feFlood flood-opacity="0" result="BackgroundImageFix"/>
<feColorMatrix in="SourceAlpha" type="matrix" values="0 0 0 0 0 0 0 0 0 0 0 0 0 0 0 0 0 0 127 0" result="hardAlpha"/>
<feOffset dy="5"/>
<feGaussianBlur stdDeviation="15"/>
<feComposite in2="hardAlpha" operator="out"/>
<feColorMatrix type="matrix" values="0 0 0 0 0.458824 0 0 0 0 0.752941 0 0 0 0 0.917647 0 0 0 0.2 0"/>
<feBlend mode="normal" in2="BackgroundImageFix" result="effect1_dropShadow_4041_16195"/>
<feBlend mode="normal" in="SourceGraphic" in2="effect1_dropShadow_4041_16195" result="shape"/>
</filter>
<filter id="filter6_d_4041_16195" x="0" y="0" width="91" height="80" filterUnits="userSpaceOnUse" color-interpolation-filters="sRGB">
<feFlood flood-opacity="0" result="BackgroundImageFix"/>
<feColorMatrix in="SourceAlpha" type="matrix" values="0 0 0 0 0 0 0 0 0 0 0 0 0 0 0 0 0 0 127 0" result="hardAlpha"/>
<feOffset dy="5"/>
<feGaussianBlur stdDeviation="15"/>
<feComposite in2="hardAlpha" operator="out"/>
<feColorMatrix type="matrix" values="0 0 0 0 0.458824 0 0 0 0 0.752941 0 0 0 0 0.917647 0 0 0 0.2 0"/>
<feBlend mode="normal" in2="BackgroundImageFix" result="effect1_dropShadow_4041_16195"/>
<feBlend mode="normal" in="SourceGraphic" in2="effect1_dropShadow_4041_16195" result="shape"/>
</filter>
<filter id="filter7_d_4041_16195" x="847" y="6" width="91" height="80" filterUnits="userSpaceOnUse" color-interpolation-filters="sRGB">
<feFlood flood-opacity="0" result="BackgroundImageFix"/>
<feColorMatrix in="SourceAlpha" type="matrix" values="0 0 0 0 0 0 0 0 0 0 0 0 0 0 0 0 0 0 127 0" result="hardAlpha"/>
<feOffset dy="5"/>
<feGaussianBlur stdDeviation="15"/>
<feComposite in2="hardAlpha" operator="out"/>
<feColorMatrix type="matrix" values="0 0 0 0 0.458824 0 0 0 0 0.752941 0 0 0 0 0.917647 0 0 0 0.2 0"/>
<feBlend mode="normal" in2="BackgroundImageFix" result="effect1_dropShadow_4041_16195"/>
<feBlend mode="normal" in="SourceGraphic" in2="effect1_dropShadow_4041_16195" result="shape"/>
</filter>
<filter id="filter8_d_4041_16195" x="160" y="10" width="92" height="83" filterUnits="userSpaceOnUse" color-interpolation-filters="sRGB">
<feFlood flood-opacity="0" result="BackgroundImageFix"/>
<feColorMatrix in="SourceAlpha" type="matrix" values="0 0 0 0 0 0 0 0 0 0 0 0 0 0 0 0 0 0 127 0" result="hardAlpha"/>
<feOffset dy="5"/>
<feGaussianBlur stdDeviation="15"/>
<feComposite in2="hardAlpha" operator="out"/>
<feColorMatrix type="matrix" values="0 0 0 0 0.458824 0 0 0 0 0.752941 0 0 0 0 0.917647 0 0 0 0.2 0"/>
<feBlend mode="normal" in2="BackgroundImageFix" result="effect1_dropShadow_4041_16195"/>
<feBlend mode="normal" in="SourceGraphic" in2="effect1_dropShadow_4041_16195" result="shape"/>
</filter>
</defs>
</svg>
