<svg width="16" height="16" viewBox="0 0 16 16" fill="none" xmlns="http://www.w3.org/2000/svg">
<path d="M1.25 0.875C1.05109 0.875 0.860322 0.954018 0.71967 1.09467C0.579018 1.23532 0.5 1.42609 0.5 1.625V5.75C0.5 7.05575 0.9605 8.192 1.7825 9.00275C2.43725 9.64775 3.29 10.0573 4.25 10.1968V10.8125C4.25 12.0557 4.74386 13.248 5.62294 14.1271C6.50201 15.0061 7.6943 15.5 8.9375 15.5C10.1807 15.5 11.373 15.0061 12.2521 14.1271C13.1311 13.248 13.625 12.0557 13.625 10.8125V10.3198C14.176 10.1396 14.6448 9.76915 14.9474 9.27473C15.25 8.7803 15.3666 8.19427 15.2764 7.62166C15.1861 7.04906 14.8948 6.52732 14.4548 6.14998C14.0147 5.77265 13.4547 5.56437 12.875 5.5625C12.2941 5.56213 11.7321 5.76926 11.2903 6.14657C10.8486 6.52388 10.5562 7.04655 10.4657 7.62041C10.3752 8.19426 10.4927 8.78156 10.7969 9.27648C11.1011 9.77139 11.5721 10.1414 12.125 10.3198V10.8125C12.125 11.2311 12.0426 11.6456 11.8824 12.0323C11.7222 12.419 11.4874 12.7704 11.1914 13.0664C10.8954 13.3624 10.544 13.5972 10.1573 13.7574C9.77058 13.9176 9.35609 14 8.9375 14C8.51891 14 8.10442 13.9176 7.7177 13.7574C7.33097 13.5972 6.97958 13.3624 6.6836 13.0664C6.38761 12.7704 6.15282 12.419 5.99263 12.0323C5.83245 11.6456 5.75 11.2311 5.75 10.8125V10.1968C6.71 10.0573 7.56275 9.64775 8.2175 9.00275C9.03875 8.19275 9.5 7.05575 9.5 5.75V1.625C9.5 1.42609 9.42098 1.23532 9.28033 1.09467C9.13968 0.954018 8.94891 0.875 8.75 0.875H7.2515C7.05259 0.875 6.86182 0.954018 6.72117 1.09467C6.58052 1.23532 6.5015 1.42609 6.5015 1.625C6.5015 1.82391 6.58052 2.01468 6.72117 2.15533C6.86182 2.29598 7.05259 2.375 7.2515 2.375H8V5.75C8 6.69425 7.673 7.433 7.16375 7.93475C6.65375 8.438 5.91125 8.75 5 8.75C4.088 8.75 3.347 8.438 2.83625 7.93475C2.32625 7.43225 2 6.69425 2 5.75V2.375H2.75C2.94891 2.375 3.13968 2.29598 3.28033 2.15533C3.42098 2.01468 3.5 1.82391 3.5 1.625C3.5 1.42609 3.42098 1.23532 3.28033 1.09467C3.13968 0.954018 2.94891 0.875 2.75 0.875H1.25ZM12.875 7.0625C13.1236 7.0625 13.3621 7.16127 13.5379 7.33709C13.7137 7.5129 13.8125 7.75136 13.8125 8C13.8125 8.24864 13.7137 8.4871 13.5379 8.66291C13.3621 8.83873 13.1236 8.9375 12.875 8.9375C12.6264 8.9375 12.3879 8.83873 12.2121 8.66291C12.0363 8.4871 11.9375 8.24864 11.9375 8C11.9375 7.75136 12.0363 7.5129 12.2121 7.33709C12.3879 7.16127 12.6264 7.0625 12.875 7.0625Z" fill="white"/>
</svg>
