<svg width="16" height="16" viewBox="0 0 16 16" fill="none" xmlns="http://www.w3.org/2000/svg">
<path d="M1.25006 0.875C1.05115 0.875 0.860383 0.954018 0.719731 1.09467C0.579079 1.23532 0.500061 1.42609 0.500061 1.625V5.75C0.500061 7.05575 0.960561 8.192 1.78256 9.00275C2.43731 9.64775 3.29006 10.0573 4.25006 10.1968V10.8125C4.25006 12.0557 4.74392 13.248 5.623 14.1271C6.50208 15.0061 7.69436 15.5 8.93756 15.5C10.1808 15.5 11.373 15.0061 12.2521 14.1271C13.1312 13.248 13.6251 12.0557 13.6251 10.8125V10.3198C14.176 10.1396 14.6449 9.76915 14.9475 9.27473C15.2501 8.7803 15.3667 8.19427 15.2764 7.62166C15.1862 7.04906 14.8949 6.52732 14.4548 6.14998C14.0148 5.77265 13.4547 5.56437 12.8751 5.5625C12.2941 5.56213 11.7321 5.76926 11.2904 6.14657C10.8487 6.52388 10.5562 7.04655 10.4657 7.62041C10.3753 8.19426 10.4927 8.78156 10.797 9.27648C11.1012 9.77139 11.5722 10.1414 12.1251 10.3198V10.8125C12.1251 11.2311 12.0426 11.6456 11.8824 12.0323C11.7222 12.419 11.4875 12.7704 11.1915 13.0664C10.8955 13.3624 10.5441 13.5972 10.1574 13.7574C9.77064 13.9176 9.35615 14 8.93756 14C8.51897 14 8.10448 13.9176 7.71776 13.7574C7.33103 13.5972 6.97965 13.3624 6.68366 13.0664C6.38767 12.7704 6.15288 12.419 5.9927 12.0323C5.83251 11.6456 5.75006 11.2311 5.75006 10.8125V10.1968C6.71006 10.0573 7.56281 9.64775 8.21756 9.00275C9.03881 8.19275 9.50006 7.05575 9.50006 5.75V1.625C9.50006 1.42609 9.42104 1.23532 9.28039 1.09467C9.13974 0.954018 8.94897 0.875 8.75006 0.875H7.25156C7.05265 0.875 6.86188 0.954018 6.72123 1.09467C6.58058 1.23532 6.50156 1.42609 6.50156 1.625C6.50156 1.82391 6.58058 2.01468 6.72123 2.15533C6.86188 2.29598 7.05265 2.375 7.25156 2.375H8.00006V5.75C8.00006 6.69425 7.67306 7.433 7.16381 7.93475C6.65381 8.438 5.91131 8.75 5.00006 8.75C4.08806 8.75 3.34706 8.438 2.83631 7.93475C2.32631 7.43225 2.00006 6.69425 2.00006 5.75V2.375H2.75006C2.94897 2.375 3.13974 2.29598 3.28039 2.15533C3.42104 2.01468 3.50006 1.82391 3.50006 1.625C3.50006 1.42609 3.42104 1.23532 3.28039 1.09467C3.13974 0.954018 2.94897 0.875 2.75006 0.875H1.25006ZM12.8751 7.0625C13.1237 7.0625 13.3622 7.16127 13.538 7.33709C13.7138 7.5129 13.8126 7.75136 13.8126 8C13.8126 8.24864 13.7138 8.4871 13.538 8.66291C13.3622 8.83873 13.1237 8.9375 12.8751 8.9375C12.6264 8.9375 12.388 8.83873 12.2121 8.66291C12.0363 8.4871 11.9376 8.24864 11.9376 8C11.9376 7.75136 12.0363 7.5129 12.2121 7.33709C12.388 7.16127 12.6264 7.0625 12.8751 7.0625Z" fill="#17A1FA"/>
</svg>
