<svg width="22" height="22" viewBox="0 0 22 22" fill="none" xmlns="http://www.w3.org/2000/svg">
<path d="M10.147 16.6555C9.99119 16.6555 9.84452 16.628 9.68869 16.573C9.18452 16.3805 8.85456 15.913 8.85456 15.3721V12.3471H7.95623C7.44289 12.3471 6.99373 12.0538 6.78289 11.5955C6.57206 11.128 6.65456 10.6055 6.99373 10.2205L10.8987 5.78383C11.2562 5.38049 11.8062 5.24299 12.3104 5.43549C12.8145 5.62799 13.1445 6.09549 13.1445 6.63633V9.66131H14.052C14.5654 9.66131 15.0145 9.95464 15.2254 10.413C15.4362 10.8805 15.3537 11.403 15.0145 11.788L11.1095 16.2246C10.8529 16.4996 10.5045 16.6555 10.147 16.6555ZM8.15789 10.9721H9.54202C9.91786 10.9721 10.2295 11.2838 10.2295 11.6596V15.1246L13.8412 11.0271H12.457C12.0812 11.0271 11.7695 10.7155 11.7695 10.3396V6.87466L8.15789 10.9721Z" fill="#A4ABB6"/>
<path d="M10.9733 20.8538C5.54664 20.8538 1.11914 16.4355 1.11914 10.9997C1.11914 5.56384 5.54664 1.14551 10.9733 1.14551C16.4 1.14551 20.8275 5.56384 20.8275 10.9997C20.8275 16.4355 16.4091 20.8538 10.9733 20.8538ZM10.9733 2.52051C6.29831 2.52051 2.49414 6.32467 2.49414 10.9997C2.49414 15.6747 6.29831 19.4788 10.9733 19.4788C15.6483 19.4788 19.4525 15.6747 19.4525 10.9997C19.4525 6.32467 15.6483 2.52051 10.9733 2.52051Z" fill="#A4ABB6"/>
</svg>
