<svg width="100" height="101" viewBox="0 0 100 101" fill="none" xmlns="http://www.w3.org/2000/svg">
<path d="M49.7911 94.9017C25.0827 94.9017 4.99939 74.8184 4.99939 50.11C4.99939 25.4017 25.0827 5.31836 49.7911 5.31836C74.4994 5.31836 94.5827 25.4017 94.5827 50.11C94.5827 74.8184 74.4994 94.9017 49.7911 94.9017ZM49.7911 11.5684C28.5411 11.5684 11.2494 28.86 11.2494 50.11C11.2494 71.36 28.5411 88.6517 49.7911 88.6517C71.0411 88.6517 88.3327 71.36 88.3327 50.11C88.3327 28.86 71.0411 11.5684 49.7911 11.5684Z" fill="#F2456E"/>
<path d="M63.6959 35.3184L35 65.3184M65 65.3184L36.3041 35.3184" stroke="#F2456E" stroke-width="5"/>
</svg>
