<svg width="22" height="22" viewBox="0 0 22 22" fill="none" xmlns="http://www.w3.org/2000/svg">
<path d="M13.7506 20.854H8.25058C7.04058 20.854 6.03225 20.7348 5.17975 20.4782C4.86808 20.3865 4.66641 20.084 4.68475 19.7632C4.91391 17.0223 7.69141 14.8682 11.0006 14.8682C14.3097 14.8682 17.0781 17.0132 17.3164 19.7632C17.3439 20.0932 17.1422 20.3865 16.8214 20.4782C15.9689 20.7348 14.9606 20.854 13.7506 20.854ZM6.16058 19.3048C6.76558 19.424 7.45308 19.479 8.25058 19.479H13.7506C14.5481 19.479 15.2356 19.424 15.8406 19.3048C15.3547 17.5448 13.3472 16.2432 11.0006 16.2432C8.65391 16.2432 6.64641 17.5448 6.16058 19.3048Z" fill="#A4ABB6"/>
<path d="M13.75 1.83301H8.25C3.66667 1.83301 1.83334 3.66634 1.83334 8.24967V13.7497C1.83334 17.2147 2.87834 19.1122 5.37167 19.818C5.57334 17.4347 8.02084 15.5555 11 15.5555C13.9792 15.5555 16.4267 17.4347 16.6283 19.818C19.1217 19.1122 20.1667 17.2147 20.1667 13.7497V8.24967C20.1667 3.66634 18.3333 1.83301 13.75 1.83301ZM11 12.9888C9.185 12.9888 7.71834 11.513 7.71834 9.69801C7.71834 7.88303 9.185 6.41634 11 6.41634C12.815 6.41634 14.2817 7.88303 14.2817 9.69801C14.2817 11.513 12.815 12.9888 11 12.9888Z" stroke="#A4ABB6" stroke-width="1.5" stroke-linecap="round" stroke-linejoin="round"/>
<path d="M10.9999 13.677C8.80909 13.677 7.03076 11.8895 7.03076 9.69866C7.03076 7.50784 8.80909 5.72949 10.9999 5.72949C13.1907 5.72949 14.9691 7.50784 14.9691 9.69866C14.9691 11.8895 13.1907 13.677 10.9999 13.677ZM10.9999 7.10449C9.56991 7.10449 8.40576 8.26868 8.40576 9.69866C8.40576 11.1378 9.56991 12.302 10.9999 12.302C12.4299 12.302 13.5941 11.1378 13.5941 9.69866C13.5941 8.26868 12.4299 7.10449 10.9999 7.10449Z" fill="#A4ABB6"/>
</svg>
