<svg width="22" height="22" viewBox="0 0 22 22" fill="none" xmlns="http://www.w3.org/2000/svg">
<path d="M20.1667 20.8545H1.83334C1.4575 20.8545 1.14584 20.5428 1.14584 20.167C1.14584 19.7912 1.4575 19.4795 1.83334 19.4795H20.1667C20.5425 19.4795 20.8542 19.7912 20.8542 20.167C20.8542 20.5428 20.5425 20.8545 20.1667 20.8545Z" fill="#A4ABB6"/>
<path d="M19.25 20.8538H2.75C2.37417 20.8538 2.0625 20.5422 2.0625 20.1663V5.49967C2.0625 2.73134 3.64833 1.14551 6.41667 1.14551H15.5833C18.3517 1.14551 19.9375 2.73134 19.9375 5.49967V20.1663C19.9375 20.5422 19.6258 20.8538 19.25 20.8538ZM3.4375 19.4788H18.5625V5.49967C18.5625 3.46467 17.6183 2.52051 15.5833 2.52051H6.41667C4.38167 2.52051 3.4375 3.46467 3.4375 5.49967V19.4788Z" fill="#A4ABB6"/>
<path d="M13.75 20.8542H8.25C7.87417 20.8542 7.5625 20.5425 7.5625 20.1667V14.6117C7.5625 13.7592 8.25917 13.0625 9.11167 13.0625H12.8975C13.75 13.0625 14.4467 13.7592 14.4467 14.6117V20.1667C14.4375 20.5425 14.1258 20.8542 13.75 20.8542ZM8.9375 19.4792H13.0625V14.6117C13.0625 14.52 12.9892 14.4375 12.8883 14.4375H9.10249C9.01082 14.4375 8.92834 14.5108 8.92834 14.6117V19.4792H8.9375Z" fill="#A4ABB6"/>
<path d="M11 10.7708C10.6242 10.7708 10.3125 10.4592 10.3125 10.0833V5.5C10.3125 5.12417 10.6242 4.8125 11 4.8125C11.3758 4.8125 11.6875 5.12417 11.6875 5.5V10.0833C11.6875 10.4592 11.3758 10.7708 11 10.7708Z" fill="#A4ABB6"/>
<path d="M13.2917 8.47949H8.70834C8.3325 8.47949 8.02084 8.16783 8.02084 7.79199C8.02084 7.41616 8.3325 7.10449 8.70834 7.10449H13.2917C13.6675 7.10449 13.9792 7.41616 13.9792 7.79199C13.9792 8.16783 13.6675 8.47949 13.2917 8.47949Z" fill="#A4ABB6"/>
</svg>
