<svg width="675" height="170" viewBox="0 0 675 170" fill="none" xmlns="http://www.w3.org/2000/svg">
<g clip-path="url(#clip0_4556_15880)">
<g filter="url(#filter0_d_4556_15880)">
<path d="M445.014 25.0648C454.567 24.1226 459.913 36.8578 452.571 43.3184H397.529C390.449 31.2694 399.184 15.234 411.956 18.3459C422.196 1.65429 441.163 10.5973 445.014 25.0648H445.014Z" fill="white"/>
</g>
<path d="M338 148.111C313.292 148.111 293.208 128.027 293.208 103.319C293.208 78.6107 313.292 58.5273 338 58.5273C362.708 58.5273 382.792 78.6107 382.792 103.319C382.792 128.027 362.708 148.111 338 148.111ZM338 64.7773C316.75 64.7773 299.458 82.069 299.458 103.319C299.458 124.569 316.75 141.861 338 141.861C359.25 141.861 376.542 124.569 376.542 103.319C376.542 82.069 359.25 64.7773 338 64.7773Z" fill="#2CC2A7"/>
<path d="M332.081 118.238C331.248 118.238 330.456 117.904 329.873 117.321L318.081 105.529C316.873 104.321 316.873 102.321 318.081 101.113C319.289 99.9043 321.289 99.9043 322.498 101.113L332.081 110.696L353.498 89.2793C354.706 88.071 356.706 88.071 357.915 89.2793C359.123 90.4876 359.123 92.4876 357.915 93.696L334.29 117.321C333.706 117.904 332.915 118.238 332.081 118.238Z" fill="#2CC2A7"/>
<g filter="url(#filter1_d_4556_15880)">
<path d="M369.261 118.835C371.135 117.219 373.525 116.326 376 116.318C381.044 116.318 385.231 120.068 385.686 124.904C388.671 125.326 391 127.825 391 130.893C391 134.26 388.191 136.943 384.788 136.943H368.089C364.203 136.943 361 133.88 361 130.04C361 126.734 363.374 123.996 366.516 123.303C366.784 121.685 367.825 120.072 369.261 118.835Z" fill="white"/>
</g>
<g filter="url(#filter2_d_4556_15880)">
<path d="M543.261 34.8346C545.135 33.2186 547.525 32.3261 550 32.3184C555.044 32.3184 559.231 36.0684 559.686 40.904C562.671 41.3259 565 43.8252 565 46.8927C565 50.2602 562.191 52.9434 558.788 52.9434H542.089C538.203 52.9434 535 49.8796 535 46.0396C535 42.734 537.374 39.9965 540.516 39.3027C540.784 37.6846 541.825 36.0721 543.261 34.8346Z" fill="white"/>
</g>
<g filter="url(#filter3_d_4556_15880)">
<path d="M185 4.98736C185 4.03923 185.337 3.1219 185.95 2.39901C186.564 1.67612 187.414 1.1947 188.349 1.04063C188.872 0.109329 189.663 -0.643536 190.618 -1.12045C191.574 -1.59736 192.651 -1.77634 193.709 -1.6342C194.768 -1.49207 195.759 -1.03537 196.555 -0.323265C197.351 0.38884 197.915 1.32354 198.173 2.35976C199.004 2.48736 199.755 2.92391 200.278 3.58202C200.8 4.24012 201.055 5.07122 200.99 5.90895C200.926 6.74668 200.548 7.52922 199.931 8.09992C199.314 8.67062 198.505 8.98736 197.665 8.98675H188.999C187.939 8.98675 186.921 8.56539 186.171 7.81536C185.421 7.06533 185 6.04806 185 4.98736Z" fill="white"/>
</g>
<g filter="url(#filter4_d_4556_15880)">
<path d="M215.019 112.588C218.199 109.846 222.255 108.332 226.455 108.318C235.014 108.318 242.119 114.682 242.892 122.888C247.957 123.604 251.909 127.845 251.909 133.051C251.909 138.765 247.143 143.318 241.368 143.318H213.03C206.435 143.318 201 138.119 201 131.603C201 125.993 205.028 121.348 210.361 120.171C210.816 117.425 212.582 114.688 215.019 112.588Z" fill="white"/>
</g>
<g filter="url(#filter5_d_4556_15880)">
<path d="M283 43.1184C283 47.0937 279.677 50.3184 275.58 50.3184H257.606C254.509 50.3184 252 47.8814 252 44.8768C252 41.8753 254.509 39.4384 257.606 39.4384C257.833 39.4384 258.053 39.4568 258.271 39.4799C258.213 39.0949 258.183 38.7062 258.183 38.3168C258.183 33.8999 261.873 30.3184 266.429 30.3184C270.16 30.3184 273.309 32.7214 274.328 36.0214C274.742 35.9539 275.162 35.92 275.582 35.9199C279.677 35.9199 283 39.1399 283 43.1184Z" fill="white"/>
</g>
<g filter="url(#filter6_d_4556_15880)">
<path d="M52.7 45.2784C52.7 48.0611 50.3738 50.3184 47.5061 50.3184H34.9244C32.7566 50.3184 31 48.6125 31 46.5093C31 44.4082 32.7566 42.7024 34.9244 42.7024C35.0829 42.7024 35.2369 42.7153 35.3899 42.7314C35.3489 42.462 35.3282 42.1898 35.3281 41.9173C35.3281 38.8254 37.9115 36.3184 41.1003 36.3184C43.7119 36.3184 45.9166 38.0005 46.6294 40.3105C46.9196 40.2632 47.2131 40.2395 47.5072 40.2394C50.3738 40.2394 52.7 42.4934 52.7 45.2784Z" fill="white"/>
</g>
<g filter="url(#filter7_d_4556_15880)">
<path d="M81.7 128.278C81.7 131.061 79.3738 133.318 76.5061 133.318H63.9244C61.7566 133.318 60 131.613 60 129.509C60 127.408 61.7566 125.702 63.9244 125.702C64.0829 125.702 64.2369 125.715 64.3899 125.731C64.3489 125.462 64.3282 125.19 64.3281 124.917C64.3281 121.825 66.9115 119.318 70.1003 119.318C72.7119 119.318 74.9166 121.001 75.6294 123.311C75.9196 123.263 76.2131 123.239 76.5072 123.239C79.3738 123.239 81.7 125.493 81.7 128.278Z" fill="white"/>
</g>
<g filter="url(#filter8_d_4556_15880)">
<path d="M632.7 110.278C632.7 113.061 630.374 115.318 627.506 115.318H614.924C612.757 115.318 611 113.613 611 111.509C611 109.408 612.757 107.702 614.924 107.702C615.083 107.702 615.237 107.715 615.39 107.731C615.349 107.462 615.328 107.19 615.328 106.917C615.328 103.825 617.911 101.318 621.1 101.318C623.712 101.318 625.917 103.001 626.629 105.311C626.92 105.263 627.213 105.239 627.507 105.239C630.374 105.239 632.7 107.493 632.7 110.278Z" fill="white"/>
</g>
<g filter="url(#filter9_d_4556_15880)">
<path d="M524.44 110.734C524.863 109.611 525.1 108.384 525.1 107.104C525.1 101.544 520.666 97.0326 515.2 97.0326C513.168 97.0326 511.271 97.6621 509.703 98.7322C506.847 93.6965 501.515 90.3184 495.4 90.3184C486.284 90.3184 478.9 97.83 478.9 107.104C478.9 107.387 478.91 107.671 478.921 107.954C473.146 110.021 469 115.623 469 122.211C469 130.552 475.652 137.318 483.85 137.318H521.8C529.091 137.318 535 131.307 535 123.89C535 117.396 530.462 111.972 524.44 110.734Z" fill="white"/>
</g>
<g filter="url(#filter10_d_4556_15880)">
<path d="M145.04 67.6934C145.399 66.738 145.6 65.6934 145.6 64.6041C145.6 59.8719 141.837 56.0326 137.2 56.0326C135.476 56.0326 133.866 56.5684 132.536 57.4791C130.112 53.1934 125.589 50.3184 120.4 50.3184C112.665 50.3184 106.4 56.7112 106.4 64.6041C106.4 64.8451 106.409 65.0862 106.417 65.3273C101.517 67.0862 98 71.8541 98 77.4612C98 84.5594 103.644 90.3184 110.6 90.3184H142.8C148.986 90.3184 154 85.2023 154 78.8898C154 73.363 150.15 68.7469 145.04 67.6934Z" fill="white"/>
</g>
</g>
<defs>
<filter id="filter0_d_4556_15880" x="365" y="-15.6816" width="121" height="94" filterUnits="userSpaceOnUse" color-interpolation-filters="sRGB">
<feFlood flood-opacity="0" result="BackgroundImageFix"/>
<feColorMatrix in="SourceAlpha" type="matrix" values="0 0 0 0 0 0 0 0 0 0 0 0 0 0 0 0 0 0 127 0" result="hardAlpha"/>
<feOffset dy="5"/>
<feGaussianBlur stdDeviation="15"/>
<feComposite in2="hardAlpha" operator="out"/>
<feColorMatrix type="matrix" values="0 0 0 0 0.458824 0 0 0 0 0.752941 0 0 0 0 0.917647 0 0 0 0.2 0"/>
<feBlend mode="normal" in2="BackgroundImageFix" result="effect1_dropShadow_4556_15880"/>
<feBlend mode="normal" in="SourceGraphic" in2="effect1_dropShadow_4556_15880" result="shape"/>
</filter>
<filter id="filter1_d_4556_15880" x="331" y="91.3184" width="90" height="80.625" filterUnits="userSpaceOnUse" color-interpolation-filters="sRGB">
<feFlood flood-opacity="0" result="BackgroundImageFix"/>
<feColorMatrix in="SourceAlpha" type="matrix" values="0 0 0 0 0 0 0 0 0 0 0 0 0 0 0 0 0 0 127 0" result="hardAlpha"/>
<feOffset dy="5"/>
<feGaussianBlur stdDeviation="15"/>
<feComposite in2="hardAlpha" operator="out"/>
<feColorMatrix type="matrix" values="0 0 0 0 0.458824 0 0 0 0 0.752941 0 0 0 0 0.917647 0 0 0 0.2 0"/>
<feBlend mode="normal" in2="BackgroundImageFix" result="effect1_dropShadow_4556_15880"/>
<feBlend mode="normal" in="SourceGraphic" in2="effect1_dropShadow_4556_15880" result="shape"/>
</filter>
<filter id="filter2_d_4556_15880" x="505" y="7.31836" width="90" height="80.625" filterUnits="userSpaceOnUse" color-interpolation-filters="sRGB">
<feFlood flood-opacity="0" result="BackgroundImageFix"/>
<feColorMatrix in="SourceAlpha" type="matrix" values="0 0 0 0 0 0 0 0 0 0 0 0 0 0 0 0 0 0 127 0" result="hardAlpha"/>
<feOffset dy="5"/>
<feGaussianBlur stdDeviation="15"/>
<feComposite in2="hardAlpha" operator="out"/>
<feColorMatrix type="matrix" values="0 0 0 0 0.458824 0 0 0 0 0.752941 0 0 0 0 0.917647 0 0 0 0.2 0"/>
<feBlend mode="normal" in2="BackgroundImageFix" result="effect1_dropShadow_4556_15880"/>
<feBlend mode="normal" in="SourceGraphic" in2="effect1_dropShadow_4556_15880" result="shape"/>
</filter>
<filter id="filter3_d_4556_15880" x="155" y="-26.6816" width="76" height="70.668" filterUnits="userSpaceOnUse" color-interpolation-filters="sRGB">
<feFlood flood-opacity="0" result="BackgroundImageFix"/>
<feColorMatrix in="SourceAlpha" type="matrix" values="0 0 0 0 0 0 0 0 0 0 0 0 0 0 0 0 0 0 127 0" result="hardAlpha"/>
<feOffset dy="5"/>
<feGaussianBlur stdDeviation="15"/>
<feComposite in2="hardAlpha" operator="out"/>
<feColorMatrix type="matrix" values="0 0 0 0 0.458824 0 0 0 0 0.752941 0 0 0 0 0.917647 0 0 0 0.2 0"/>
<feBlend mode="normal" in2="BackgroundImageFix" result="effect1_dropShadow_4556_15880"/>
<feBlend mode="normal" in="SourceGraphic" in2="effect1_dropShadow_4556_15880" result="shape"/>
</filter>
<filter id="filter4_d_4556_15880" x="171" y="83.3184" width="110.909" height="95" filterUnits="userSpaceOnUse" color-interpolation-filters="sRGB">
<feFlood flood-opacity="0" result="BackgroundImageFix"/>
<feColorMatrix in="SourceAlpha" type="matrix" values="0 0 0 0 0 0 0 0 0 0 0 0 0 0 0 0 0 0 127 0" result="hardAlpha"/>
<feOffset dy="5"/>
<feGaussianBlur stdDeviation="15"/>
<feComposite in2="hardAlpha" operator="out"/>
<feColorMatrix type="matrix" values="0 0 0 0 0.458824 0 0 0 0 0.752941 0 0 0 0 0.917647 0 0 0 0.2 0"/>
<feBlend mode="normal" in2="BackgroundImageFix" result="effect1_dropShadow_4556_15880"/>
<feBlend mode="normal" in="SourceGraphic" in2="effect1_dropShadow_4556_15880" result="shape"/>
</filter>
<filter id="filter5_d_4556_15880" x="222" y="5.31836" width="91" height="80" filterUnits="userSpaceOnUse" color-interpolation-filters="sRGB">
<feFlood flood-opacity="0" result="BackgroundImageFix"/>
<feColorMatrix in="SourceAlpha" type="matrix" values="0 0 0 0 0 0 0 0 0 0 0 0 0 0 0 0 0 0 127 0" result="hardAlpha"/>
<feOffset dy="5"/>
<feGaussianBlur stdDeviation="15"/>
<feComposite in2="hardAlpha" operator="out"/>
<feColorMatrix type="matrix" values="0 0 0 0 0.458824 0 0 0 0 0.752941 0 0 0 0 0.917647 0 0 0 0.2 0"/>
<feBlend mode="normal" in2="BackgroundImageFix" result="effect1_dropShadow_4556_15880"/>
<feBlend mode="normal" in="SourceGraphic" in2="effect1_dropShadow_4556_15880" result="shape"/>
</filter>
<filter id="filter6_d_4556_15880" x="1" y="11.3184" width="81.7" height="74" filterUnits="userSpaceOnUse" color-interpolation-filters="sRGB">
<feFlood flood-opacity="0" result="BackgroundImageFix"/>
<feColorMatrix in="SourceAlpha" type="matrix" values="0 0 0 0 0 0 0 0 0 0 0 0 0 0 0 0 0 0 127 0" result="hardAlpha"/>
<feOffset dy="5"/>
<feGaussianBlur stdDeviation="15"/>
<feComposite in2="hardAlpha" operator="out"/>
<feColorMatrix type="matrix" values="0 0 0 0 0.458824 0 0 0 0 0.752941 0 0 0 0 0.917647 0 0 0 0.2 0"/>
<feBlend mode="normal" in2="BackgroundImageFix" result="effect1_dropShadow_4556_15880"/>
<feBlend mode="normal" in="SourceGraphic" in2="effect1_dropShadow_4556_15880" result="shape"/>
</filter>
<filter id="filter7_d_4556_15880" x="30" y="94.3184" width="81.7" height="74" filterUnits="userSpaceOnUse" color-interpolation-filters="sRGB">
<feFlood flood-opacity="0" result="BackgroundImageFix"/>
<feColorMatrix in="SourceAlpha" type="matrix" values="0 0 0 0 0 0 0 0 0 0 0 0 0 0 0 0 0 0 127 0" result="hardAlpha"/>
<feOffset dy="5"/>
<feGaussianBlur stdDeviation="15"/>
<feComposite in2="hardAlpha" operator="out"/>
<feColorMatrix type="matrix" values="0 0 0 0 0.458824 0 0 0 0 0.752941 0 0 0 0 0.917647 0 0 0 0.2 0"/>
<feBlend mode="normal" in2="BackgroundImageFix" result="effect1_dropShadow_4556_15880"/>
<feBlend mode="normal" in="SourceGraphic" in2="effect1_dropShadow_4556_15880" result="shape"/>
</filter>
<filter id="filter8_d_4556_15880" x="581" y="76.3184" width="81.7" height="74" filterUnits="userSpaceOnUse" color-interpolation-filters="sRGB">
<feFlood flood-opacity="0" result="BackgroundImageFix"/>
<feColorMatrix in="SourceAlpha" type="matrix" values="0 0 0 0 0 0 0 0 0 0 0 0 0 0 0 0 0 0 127 0" result="hardAlpha"/>
<feOffset dy="5"/>
<feGaussianBlur stdDeviation="15"/>
<feComposite in2="hardAlpha" operator="out"/>
<feColorMatrix type="matrix" values="0 0 0 0 0.458824 0 0 0 0 0.752941 0 0 0 0 0.917647 0 0 0 0.2 0"/>
<feBlend mode="normal" in2="BackgroundImageFix" result="effect1_dropShadow_4556_15880"/>
<feBlend mode="normal" in="SourceGraphic" in2="effect1_dropShadow_4556_15880" result="shape"/>
</filter>
<filter id="filter9_d_4556_15880" x="439" y="65.3184" width="126" height="107" filterUnits="userSpaceOnUse" color-interpolation-filters="sRGB">
<feFlood flood-opacity="0" result="BackgroundImageFix"/>
<feColorMatrix in="SourceAlpha" type="matrix" values="0 0 0 0 0 0 0 0 0 0 0 0 0 0 0 0 0 0 127 0" result="hardAlpha"/>
<feOffset dy="5"/>
<feGaussianBlur stdDeviation="15"/>
<feComposite in2="hardAlpha" operator="out"/>
<feColorMatrix type="matrix" values="0 0 0 0 0.458824 0 0 0 0 0.752941 0 0 0 0 0.917647 0 0 0 0.2 0"/>
<feBlend mode="normal" in2="BackgroundImageFix" result="effect1_dropShadow_4556_15880"/>
<feBlend mode="normal" in="SourceGraphic" in2="effect1_dropShadow_4556_15880" result="shape"/>
</filter>
<filter id="filter10_d_4556_15880" x="68" y="25.3184" width="116" height="100" filterUnits="userSpaceOnUse" color-interpolation-filters="sRGB">
<feFlood flood-opacity="0" result="BackgroundImageFix"/>
<feColorMatrix in="SourceAlpha" type="matrix" values="0 0 0 0 0 0 0 0 0 0 0 0 0 0 0 0 0 0 127 0" result="hardAlpha"/>
<feOffset dy="5"/>
<feGaussianBlur stdDeviation="15"/>
<feComposite in2="hardAlpha" operator="out"/>
<feColorMatrix type="matrix" values="0 0 0 0 0.458824 0 0 0 0 0.752941 0 0 0 0 0.917647 0 0 0 0.2 0"/>
<feBlend mode="normal" in2="BackgroundImageFix" result="effect1_dropShadow_4556_15880"/>
<feBlend mode="normal" in="SourceGraphic" in2="effect1_dropShadow_4556_15880" result="shape"/>
</filter>
<clipPath id="clip0_4556_15880">
<rect width="675" height="169" fill="white" transform="translate(0 0.318359)"/>
</clipPath>
</defs>
</svg>
