<svg width="18" height="18" viewBox="0 0 18 18" fill="none" xmlns="http://www.w3.org/2000/svg">
<path d="M9.00033 17.0625C8.12283 17.0625 7.30531 16.725 6.69031 16.11L1.8978 11.3175C1.2828 10.7025 0.945312 9.8775 0.945312 9.0075C0.945312 8.1375 1.2828 7.31249 1.8978 6.69749L6.69031 1.90498C7.30531 1.28998 8.13033 0.952515 9.00033 0.952515C9.87033 0.952515 10.6953 1.28998 11.3103 1.90498L16.1028 6.69749C16.7178 7.31249 17.0553 8.1375 17.0553 9.0075C17.0553 9.8775 16.7178 10.7025 16.1028 11.3175L11.3103 16.11C10.6953 16.725 9.87783 17.0625 9.00033 17.0625ZM9.00033 2.0625C8.42283 2.0625 7.88283 2.28751 7.48531 2.68501L2.6928 7.47748C2.2878 7.8825 2.07031 8.4225 2.07031 8.9925C2.07031 9.5625 2.2953 10.11 2.6928 10.5075L7.48531 15.3C8.28783 16.1025 9.71276 16.1025 10.5153 15.3L15.3078 10.5075C15.7128 10.1025 15.9303 9.57 15.9303 8.9925C15.9303 8.415 15.7053 7.875 15.3078 7.47748L10.5153 2.68501C10.1178 2.28751 9.57783 2.0625 9.00033 2.0625Z" fill="white"/>
<path d="M13.3116 13.875C13.1691 13.875 13.0266 13.8225 12.9141 13.71L4.2891 5.085C4.0716 4.8675 4.0716 4.50746 4.2891 4.28996C4.5066 4.07246 4.8666 4.07246 5.0841 4.28996L13.7091 12.9149C13.9266 13.1324 13.9266 13.4925 13.7091 13.71C13.5966 13.8225 13.4541 13.875 13.3116 13.875Z" fill="white"/>
<path d="M4.6866 13.875C4.5441 13.875 4.4016 13.8225 4.2891 13.71C4.0716 13.4925 4.0716 13.1324 4.2891 12.9149L12.9141 4.28996C13.1316 4.07246 13.4916 4.07246 13.7091 4.28996C13.9266 4.50746 13.9266 4.8675 13.7091 5.085L5.0841 13.71C4.9716 13.8225 4.8291 13.875 4.6866 13.875Z" fill="white"/>
</svg>
