<svg width="18" height="18" viewBox="0 0 18 18" fill="none" xmlns="http://www.w3.org/2000/svg">
<path d="M9.66 15.6451H5.1075C2.445 15.6451 1.5 13.7776 1.5 12.0376V5.9626C1.5 3.3676 2.5125 2.3551 5.1075 2.3551H9.66C12.255 2.3551 13.2675 3.3676 13.2675 5.9626V12.0376C13.2675 14.6326 12.255 15.6451 9.66 15.6451ZM5.1075 3.4951C3.15 3.4951 2.64 4.0051 2.64 5.9626V12.0376C2.64 12.9601 2.9625 14.5051 5.1075 14.5051H9.66C11.6175 14.5051 12.1275 13.9951 12.1275 12.0376V5.9626C12.1275 4.0051 11.6175 3.4951 9.66 3.4951H5.1075Z" fill="white"/>
<path d="M15.5848 13.5824C15.2623 13.5824 14.8498 13.4774 14.3773 13.1474L12.3748 11.7449C12.2248 11.6399 12.1348 11.4674 12.1348 11.2799V6.71993C12.1348 6.53243 12.2248 6.35994 12.3748 6.25493L14.3773 4.85243C15.2698 4.22993 15.9223 4.40994 16.2298 4.56744C16.5373 4.73244 17.0623 5.15994 17.0623 6.24744V11.7449C17.0623 12.8324 16.5373 13.2674 16.2298 13.4249C16.0873 13.5074 15.8623 13.5824 15.5848 13.5824ZM13.2673 10.9799L15.0298 12.2099C15.3673 12.4424 15.6073 12.4649 15.7048 12.4124C15.8098 12.3599 15.9223 12.1499 15.9223 11.7449V6.25493C15.9223 5.84243 15.8023 5.63993 15.7048 5.58743C15.6073 5.53493 15.3673 5.55743 15.0298 5.78993L13.2673 7.01993V10.9799Z" fill="white"/>
<path d="M8.625 8.81244C7.695 8.81244 6.9375 8.05494 6.9375 7.12494C6.9375 6.19494 7.695 5.43744 8.625 5.43744C9.555 5.43744 10.3125 6.19494 10.3125 7.12494C10.3125 8.05494 9.555 8.81244 8.625 8.81244ZM8.625 6.56244C8.3175 6.56244 8.0625 6.81744 8.0625 7.12494C8.0625 7.43244 8.3175 7.68744 8.625 7.68744C8.9325 7.68744 9.1875 7.43244 9.1875 7.12494C9.1875 6.81744 8.9325 6.56244 8.625 6.56244Z" fill="white"/>
</svg>
