
<svg width="22" height="22" viewBox="0 0 22 22" fill="none" xmlns="http://www.w3.org/2000/svg">
<path d="M20.1673 20.8542H1.83398C1.45815 20.8542 1.14648 20.5425 1.14648 20.1667C1.14648 19.7909 1.45815 19.4792 1.83398 19.4792H20.1673C20.5432 19.4792 20.8548 19.7909 20.8548 20.1667C20.8548 20.5425 20.5432 20.8542 20.1673 20.8542Z" fill="#A4ABB6"/>
<path d="M19.148 20.8542C18.7721 20.8542 18.4605 20.5425 18.4605 20.1667V11.9167C18.4605 10.78 17.3971 9.85419 16.0955 9.85419H5.9021C4.60043 9.85419 3.53711 10.78 3.53711 11.9167V20.1667C3.53711 20.5425 3.22543 20.8542 2.84961 20.8542C2.47378 20.8542 2.16211 20.5425 2.16211 20.1667V11.9167C2.16211 10.0192 3.8396 8.47919 5.9021 8.47919H16.0863C18.1488 8.47919 19.8263 10.0192 19.8263 11.9167V20.1667C19.8355 20.5425 19.5238 20.8542 19.148 20.8542Z" fill="#A4ABB6"/>
<path d="M16.9043 9.85415C16.5284 9.85415 16.2168 9.54248 16.2168 9.16665V6.57248C16.2168 5.85748 15.5293 5.27081 14.6951 5.27081H7.31599C6.47266 5.27081 5.79432 5.85748 5.79432 6.57248V9.16665C5.79432 9.54248 5.48266 9.85415 5.10682 9.85415C4.73099 9.85415 4.41016 9.54248 4.41016 9.16665V6.57248C4.41016 5.09665 5.71182 3.89581 7.30682 3.89581H14.6859C16.2809 3.89581 17.5826 5.09665 17.5826 6.57248V9.16665C17.5918 9.54248 17.2801 9.85415 16.9043 9.85415Z" fill="#A4ABB6"/>
<path d="M15.8855 16.2708C14.8222 16.2708 13.9605 15.4092 13.9605 14.3458V14.0617C13.9605 13.7592 13.713 13.5117 13.4105 13.5117C13.108 13.5117 12.8605 13.7592 12.8605 14.0617V14.3458C12.8605 15.4092 11.9988 16.2708 10.9355 16.2708C9.87217 16.2708 9.01048 15.4092 9.01048 14.3458V14.0617C9.01048 13.7592 8.76298 13.5117 8.46048 13.5117C8.15798 13.5117 7.91048 13.7592 7.91048 14.0617V14.3458C7.91048 15.4092 7.04882 16.2708 5.98548 16.2708C4.92215 16.2708 4.06048 15.4092 4.06048 14.3458V14.0433C4.06048 13.75 3.82215 13.5025 3.51965 13.4933H3.18048C2.80465 13.4842 2.49298 13.1725 2.50215 12.7967C2.51132 12.4208 2.81382 12.1183 3.18965 12.1183H3.19882H3.53798C4.58298 12.1367 5.43548 12.9983 5.43548 14.0433V14.3458C5.43548 14.6483 5.68298 14.8958 5.98548 14.8958C6.28798 14.8958 6.53548 14.6483 6.53548 14.3458V14.0617C6.53548 12.9983 7.39715 12.1367 8.46048 12.1367C9.52384 12.1367 10.3855 12.9983 10.3855 14.0617V14.3458C10.3855 14.6483 10.633 14.8958 10.9355 14.8958C11.238 14.8958 11.4855 14.6483 11.4855 14.3458V14.0617C11.4855 12.9983 12.3472 12.1367 13.4105 12.1367C14.4738 12.1367 15.3355 12.9983 15.3355 14.0617V14.3458C15.3355 14.6483 15.583 14.8958 15.8855 14.8958C16.188 14.8958 16.4355 14.6483 16.4355 14.3458V14.0617C16.4355 12.9983 17.2972 12.1367 18.3605 12.1367H18.773C19.1488 12.1367 19.4605 12.4483 19.4605 12.8242C19.4605 13.2 19.1488 13.5117 18.773 13.5117H18.3605C18.058 13.5117 17.8105 13.7592 17.8105 14.0617V14.3458C17.8105 15.4092 16.9488 16.2708 15.8855 16.2708Z" fill="#A4ABB6"/>
<path d="M7.33398 5.27083C6.95815 5.27083 6.64648 4.95917 6.64648 4.58333V2.75C6.64648 2.37417 6.95815 2.0625 7.33398 2.0625C7.70982 2.0625 8.02148 2.37417 8.02148 2.75V4.58333C8.02148 4.95917 7.70982 5.27083 7.33398 5.27083Z" fill="#A4ABB6"/>
<path d="M14.666 5.27083C14.2902 5.27083 13.9785 4.95917 13.9785 4.58333V2.75C13.9785 2.37417 14.2902 2.0625 14.666 2.0625C15.0418 2.0625 15.3535 2.37417 15.3535 2.75V4.58333C15.3535 4.95917 15.0418 5.27083 14.666 5.27083Z" fill="#A4ABB6"/>
<path d="M11 5.27081C10.6242 5.27081 10.3125 4.95915 10.3125 4.58331V1.83331C10.3125 1.45748 10.6242 1.14581 11 1.14581C11.3758 1.14581 11.6875 1.45748 11.6875 1.83331V4.58331C11.6875 4.95915 11.3758 5.27081 11 5.27081Z" fill="#A4ABB6"/>
</svg>
