<svg width="22" height="22" viewBox="0 0 22 22" fill="none" xmlns="http://www.w3.org/2000/svg">
<path d="M15.584 19.4791H6.41732C6.04148 19.4791 5.72982 19.1675 5.72982 18.7916C5.72982 18.4158 6.04148 18.1041 6.41732 18.1041H15.584C18.2057 18.1041 19.4798 16.83 19.4798 14.2083V7.79165C19.4798 5.16998 18.2057 3.89581 15.584 3.89581H6.41732C3.79565 3.89581 2.52148 5.16998 2.52148 7.79165C2.52148 8.16748 2.20982 8.47915 1.83398 8.47915C1.45815 8.47915 1.14648 8.16748 1.14648 7.79165C1.14648 4.44581 3.07148 2.52081 6.41732 2.52081H15.584C18.9298 2.52081 20.8548 4.44581 20.8548 7.79165V14.2083C20.8548 17.5541 18.9298 19.4791 15.584 19.4791Z" fill="#A4ABB6"/>
<path d="M10.9999 11.7975C10.2299 11.7975 9.45071 11.5592 8.85488 11.0733L5.98571 8.78164C5.69238 8.54331 5.63738 8.11247 5.87571 7.81914C6.11405 7.52581 6.54487 7.47081 6.8382 7.70914L9.70738 10.0008C10.404 10.56 11.5865 10.56 12.2832 10.0008L15.1524 7.70914C15.4457 7.47081 15.8857 7.51664 16.1149 7.81914C16.3532 8.11247 16.3074 8.55247 16.0049 8.78164L13.1357 11.0733C12.549 11.5592 11.7699 11.7975 10.9999 11.7975Z" fill="#A4ABB6"/>
<path d="M7.33399 15.8125H1.83398C1.45815 15.8125 1.14648 15.5008 1.14648 15.125C1.14648 14.7492 1.45815 14.4375 1.83398 14.4375H7.33399C7.70982 14.4375 8.02149 14.7492 8.02149 15.125C8.02149 15.5008 7.70982 15.8125 7.33399 15.8125Z" fill="#A4ABB6"/>
<path d="M4.58398 12.1458H1.83398C1.45815 12.1458 1.14648 11.8341 1.14648 11.4583C1.14648 11.0825 1.45815 10.7708 1.83398 10.7708H4.58398C4.95982 10.7708 5.27148 11.0825 5.27148 11.4583C5.27148 11.8341 4.95982 12.1458 4.58398 12.1458Z" fill="#A4ABB6"/>
</svg>
