<svg width="22" height="22" viewBox="0 0 22 22" fill="none" xmlns="http://www.w3.org/2000/svg">
<path d="M13.7493 20.8541H8.24935C4.20685 20.8541 2.97852 19.6258 2.97852 15.5833V6.41665C2.97852 2.37415 4.20685 1.14581 8.24935 1.14581H13.7493C17.7918 1.14581 19.0202 2.37415 19.0202 6.41665V15.5833C19.0202 19.6258 17.7918 20.8541 13.7493 20.8541ZM8.24935 2.52081C4.96768 2.52081 4.35352 3.14415 4.35352 6.41665V15.5833C4.35352 18.8558 4.96768 19.4791 8.24935 19.4791H13.7493C17.031 19.4791 17.6452 18.8558 17.6452 15.5833V6.41665C17.6452 3.14415 17.031 2.52081 13.7493 2.52081H8.24935Z" fill="#A4ABB6"/>
<path d="M12.8327 5.72919H9.16602C8.79018 5.72919 8.47852 5.41752 8.47852 5.04169C8.47852 4.66585 8.79018 4.35419 9.16602 4.35419H12.8327C13.2085 4.35419 13.5202 4.66585 13.5202 5.04169C13.5202 5.41752 13.2085 5.72919 12.8327 5.72919Z" fill="#A4ABB6"/>
<path d="M11.0009 18.205C9.83674 18.205 8.89258 17.2608 8.89258 16.0967C8.89258 14.9325 9.83674 13.9883 11.0009 13.9883C12.1651 13.9883 13.1092 14.9325 13.1092 16.0967C13.1092 17.2608 12.1651 18.205 11.0009 18.205ZM11.0009 15.3542C10.5976 15.3542 10.2676 15.6842 10.2676 16.0875C10.2676 16.4908 10.5976 16.8208 11.0009 16.8208C11.4042 16.8208 11.7342 16.4908 11.7342 16.0875C11.7342 15.6842 11.4042 15.3542 11.0009 15.3542Z" fill="#A4ABB6"/>
</svg>
