<svg width="30" height="30" viewBox="0 0 30 30" fill="none" xmlns="http://www.w3.org/2000/svg">
<rect width="30" height="30" rx="6" fill="#F9F9F9"/>
<path d="M14.8542 24.7086C9.4275 24.7086 5 20.2902 5 14.8544C5 9.41858 9.4275 5.00024 14.8542 5.00024C20.2808 5.00024 24.7083 9.41858 24.7083 14.8544C24.7083 20.2902 20.29 24.7086 14.8542 24.7086ZM14.8542 6.37524C10.1792 6.37524 6.375 10.1794 6.375 14.8544C6.375 19.5294 10.1792 23.3336 14.8542 23.3336C19.5292 23.3336 23.3333 19.5294 23.3333 14.8544C23.3333 10.1794 19.5292 6.37524 14.8542 6.37524Z" fill="#A4ABB6"/>
<path d="M14.196 16.492V16.012C14.196 15.636 14.264 15.288 14.4 14.968C14.544 14.648 14.784 14.3 15.12 13.924C15.376 13.644 15.552 13.404 15.648 13.204C15.752 13.004 15.804 12.792 15.804 12.568C15.804 12.304 15.708 12.096 15.516 11.944C15.324 11.792 15.052 11.716 14.7 11.716C13.916 11.716 13.192 12.004 12.528 12.58L12.024 11.428C12.36 11.124 12.776 10.88 13.272 10.696C13.776 10.512 14.284 10.42 14.796 10.42C15.3 10.42 15.74 10.504 16.116 10.672C16.5 10.84 16.796 11.072 17.004 11.368C17.22 11.664 17.328 12.012 17.328 12.412C17.328 12.78 17.244 13.124 17.076 13.444C16.916 13.764 16.628 14.112 16.212 14.488C15.836 14.832 15.576 15.132 15.432 15.388C15.288 15.644 15.196 15.9 15.156 16.156L15.108 16.492H14.196ZM13.812 19V17.332H15.492V19H13.812Z" fill="#A4ABB6"/>
</svg>
