<svg width="20" height="20" viewBox="0 0 20 20" fill="none" xmlns="http://www.w3.org/2000/svg">
<rect width="20" height="20" rx="3" fill="#3C4E69"/>
<path d="M13.6384 14.9271C13.2928 14.9271 12.9472 14.7997 12.6743 14.5269L5.47107 7.32376C4.94356 6.79625 4.94356 5.92314 5.47107 5.39563C5.99858 4.86812 6.87174 4.86812 7.39925 5.39563L14.6024 12.5988C15.13 13.1263 15.13 13.9994 14.6024 14.5269C14.3296 14.7815 13.984 14.9271 13.6384 14.9271Z" fill="white"/>
<path d="M6.35969 15.0004C6.01409 15.0004 5.66848 14.8731 5.39563 14.6002C4.86812 14.0727 4.86812 13.1996 5.39563 12.6721L12.5989 5.46887C13.1264 4.94137 13.9995 4.94137 14.527 5.46887C15.0545 5.99638 15.0545 6.86949 14.527 7.397L7.32385 14.6002C7.051 14.8731 6.70539 15.0004 6.35969 15.0004Z" fill="white"/>
</svg>
